<?xml version="1.0" encoding="UTF-8"?>
<svg id="Layer_1" data-name="Layer 1" xmlns="http://www.w3.org/2000/svg" viewBox="0 0 170 221">
  <defs>
    <style>
      .cls-1 {
        opacity: .8;
      }

      .cls-2 {
        fill: #faeff4;
      }
    </style>
  </defs>
  <g class="cls-1">
    <path class="cls-2" d="M65.92,47.86c10.95.16,22.46.81,33.34-.16.73-.11,1.47-.2,2.21-.29-11.5,2.83-23.9,1.92-35.55.45h0Z"/>
  </g>
  <g class="cls-1">
    <path class="cls-2" d="M59.05,51.9c15.37,1.07,31.02,2.51,46.29-.21,1-.26,2-.5,3.01-.74-14.16,5.09-34.53,3.32-49.3.95h0Z"/>
  </g>
  <g class="cls-1">
    <path class="cls-2" d="M54.14,58.17c18.45,1.07,37.13,2.51,55.49-.2,0,0,3.63-.75,3.63-.75-9.5,2.96-19.62,3.2-29.49,3.23-9.91-.15-19.83-.83-29.63-2.28h0Z"/>
  </g>
  <g class="cls-1">
    <path class="cls-2" d="M58.05,106.33c5.67,1.26,11.18,5.04,13.3,10.6.79,1.83.9,3.85.86,5.77-.1-.48-.19-.95-.27-1.42-.07-.43-.18-.99-.33-1.39-1.73-6.57-7.59-10.93-13.56-13.55h0Z"/>
  </g>
  <g class="cls-1">
    <path class="cls-2" d="M113.26,113.11c-4.26,2.26-7.59,5.8-8.37,10.63-.75-5.07,3.52-9.78,8.37-10.63h0Z"/>
  </g>
  <g class="cls-1">
    <path class="cls-2" d="M114.23,108.42c-7.37,1.77-13.7,6.43-14.95,14.28.05-1.86.24-3.82,1.09-5.56,2.28-5.36,8.23-8.47,13.86-8.72h0Z"/>
  </g>
  <g class="cls-1">
    <path class="cls-2" d="M67.8,124.02c-1.56-6.12-5.54-11.51-12.06-12.62,6.84-.44,12.04,6.16,12.06,12.62h0Z"/>
  </g>
</svg>