<?xml version="1.0" encoding="UTF-8"?>
<svg id="Layer_1" data-name="Layer 1" xmlns="http://www.w3.org/2000/svg" viewBox="0 0 238 238">
  <defs>
    <style>
      .cls-1 {
        fill: #faeff4;
      }

      .cls-2 {
        opacity: .5;
      }
    </style>
  </defs>
  <g class="cls-2">
    <path d="M94.01,217.12h-16.73c-.55,0-1-.45-1-1v-15.2c0-.55.45-1,1-1s1,.45,1,1v14.2h14.73v-14.2c0-.55.45-1,1-1s1,.45,1,1v15.2c0,.55-.45,1-1,1Z"/>
  </g>
  <path class="cls-1" d="M81.32,195.84l-4.74,4.27c-.4.36-.14,1.02.39,1.02h9.48c.53,0,.79-.66.39-1.02l-4.74-4.27c-.22-.2-.56-.2-.78,0Z"/>
  <path class="cls-1" d="M87.79,194.61l-5.84,5.26c-.49.44-.18,1.25.48,1.25h11.68c.66,0,.97-.81.48-1.25l-5.84-5.26c-.27-.25-.69-.25-.96,0Z"/>
</svg>