<?xml version="1.0" encoding="UTF-8"?>
<svg id="Layer_1" data-name="Layer 1" xmlns="http://www.w3.org/2000/svg" viewBox="0 0 170 221">
  <defs>
    <style>
      .cls-1 {
        fill: #35241f;
        opacity: .17;
      }

      .cls-2 {
        fill: #e8bda7;
      }
    </style>
  </defs>
  <path class="cls-2" d="M111,119.22c-4.49,3.3-7.52,9.72-7.52,17.09,0,6.9,2.66,12.97,6.69,16.42h-49.84c4.06-3.43,6.77-9.54,6.77-16.51,0-7.37-3.03-13.79-7.51-17.09l51.41.09Z"/>
  <path class="cls-2" d="M103.48,136.31c0,1.33.1,2.63.29,3.89-4.65,1.68-9.67,2.59-14.89,2.59h-7.77c-5.02,0-9.86-.85-14.36-2.4.23-1.34.34-2.74.34-4.17,0-7.38-3.03-13.8-7.5-17.09l51.4.09c-4.48,3.3-7.51,9.72-7.51,17.09Z"/>
  <path class="cls-1" d="M103.48,136.31c0,1.33.1,2.63.29,3.89-4.65,1.68-9.67,2.59-14.89,2.59h-7.77c-5.02,0-9.86-.85-14.36-2.4.23-1.34.34-2.74.34-4.17,0-7.38-3.03-13.8-7.5-17.09l51.4.09c-4.48,3.3-7.51,9.72-7.51,17.09Z"/>
  <g>
    <path class="cls-2" d="M80.59,37.82h8.83c21.29,0,38.58,17.29,38.58,38.58v17.78H42.01v-17.78c0-21.29,17.29-38.58,38.58-38.58Z"/>
    <rect class="cls-2" x="42.01" y="51.62" width="85.98" height="86.18" rx="39.1" ry="39.1"/>
  </g>
</svg>