<?xml version="1.0" encoding="UTF-8"?>
<svg id="Layer_1" data-name="Layer 1" xmlns="http://www.w3.org/2000/svg" viewBox="0 0 170 221">
  <defs>
    <style>
      .cls-1 {
        fill: #35241f;
        opacity: .17;
      }

      .cls-2 {
        fill: #e8bda7;
      }
    </style>
  </defs>
  <path class="cls-2" d="M111,119.22c-4.49,3.3-7.52,9.72-7.52,17.09,0,6.9,2.66,12.97,6.69,16.42h-49.84c4.06-3.43,6.77-9.54,6.77-16.51,0-7.37-3.03-13.79-7.51-17.09l51.41.09Z"/>
  <path class="cls-2" d="M103.48,136.31c0,.43.01.85.03,1.27h0c-5.5,2.79-11.83,4.31-18.51,4.31s-12.58-1.42-17.96-4.04c.03-.54.05-1.08.05-1.63,0-7.38-3.03-13.8-7.5-17.09l51.41.09c-4.49,3.3-7.52,9.72-7.52,17.09Z"/>
  <path class="cls-1" d="M103.48,136.31c0,.43.01.85.03,1.27h0c-5.5,2.79-11.83,4.31-18.51,4.31s-12.58-1.42-17.96-4.04c.03-.54.05-1.08.05-1.63,0-7.38-3.03-13.8-7.5-17.09l51.41.09c-4.49,3.3-7.52,9.72-7.52,17.09Z"/>
  <g>
    <path class="cls-2" d="M80.59,37.82h8.83c21.29,0,38.58,17.29,38.58,38.58v17.78H42.01v-17.78c0-21.29,17.29-38.58,38.58-38.58Z"/>
    <path class="cls-2" d="M127.99,85.75v6.77c0,4.93-1.49,9.78-4.32,14.06l-10.78,16.31c-12.34,18.67-43.45,18.67-55.79,0l-10.78-16.31c-2.83-4.28-4.32-9.13-4.32-14.06v-6.77h85.98Z"/>
  </g>
</svg>