<?xml version="1.0" encoding="UTF-8"?>
<svg id="Layer_1" data-name="Layer 1" xmlns="http://www.w3.org/2000/svg" viewBox="0 0 170 221">
  <defs>
    <style>
      .cls-1 {
        fill: #35241f;
        opacity: .17;
      }

      .cls-2 {
        fill: #e8bda7;
      }
    </style>
  </defs>
  <path class="cls-2" d="M111,119.22c-4.49,3.3-7.52,9.72-7.52,17.09,0,6.9,2.66,12.97,6.69,16.42h-49.84c4.06-3.43,6.77-9.54,6.77-16.51,0-7.37-3.03-13.79-7.51-17.09l51.41.09Z"/>
  <path class="cls-2" d="M103.48,136.31c0,.19,0,.38.01.56-5.11,1.97-10.65,3.05-16.43,3.05h-4.11c-5.57,0-10.92-1-15.87-2.84.02-.29.02-.57.02-.86,0-7.38-3.03-13.8-7.51-17.09l51.41.09c-4.49,3.3-7.52,9.72-7.52,17.09Z"/>
  <path class="cls-1" d="M103.48,136.31c0,.19,0,.38.01.56-5.11,1.97-10.65,3.05-16.43,3.05h-4.11c-5.57,0-10.92-1-15.87-2.84.02-.29.02-.57.02-.86,0-7.38-3.03-13.8-7.51-17.09l51.41.09c-4.49,3.3-7.52,9.72-7.52,17.09Z"/>
  <g>
    <path class="cls-2" d="M80.59,37.82h8.83c21.29,0,38.58,17.29,38.58,38.58v17.78H42.01v-17.78c0-21.29,17.29-38.58,38.58-38.58Z"/>
    <path class="cls-2" d="M82.94,78.56h4.11c22.59,0,40.93,18.34,40.93,40.93v15.43H42.01v-15.43c0-22.59,18.34-40.93,40.93-40.93Z" transform="translate(170 213.48) rotate(-180)"/>
  </g>
</svg>