<?xml version="1.0" encoding="UTF-8"?>
<svg id="Layer_1" data-name="Layer 1" xmlns="http://www.w3.org/2000/svg" viewBox="0 0 170 221">
  <defs>
    <style>
      .cls-1 {
        fill: #35241f;
        opacity: .17;
      }

      .cls-2 {
        fill: #e8bda7;
      }
    </style>
  </defs>
  <path class="cls-2" d="M111,119.22c-4.49,3.3-7.52,9.72-7.52,17.09,0,6.9,2.66,12.97,6.69,16.42h-49.84c4.06-3.43,6.77-9.54,6.77-16.51,0-7.37-3.03-13.79-7.51-17.09l51.41.09Z"/>
  <path class="cls-2" d="M103.48,136.31c0,.48.01.96.04,1.43l-36.48.34h-.01c.05-.61.07-1.23.07-1.86,0-7.38-3.04-13.8-7.51-17.09l51.41.09c-4.49,3.3-7.52,9.72-7.52,17.09Z"/>
  <path class="cls-1" d="M103.48,136.31c0,.48.01.96.04,1.43-6.57,4.08-13.17,6.47-18.52,6.47s-11.58-2.26-17.96-6.13h-.01c.05-.61.07-1.23.07-1.86,0-7.38-3.04-13.8-7.51-17.09l51.41.09c-4.49,3.3-7.52,9.72-7.52,17.09Z"/>
  <g>
    <path class="cls-2" d="M80.59,37.82h8.83c21.29,0,38.58,17.29,38.58,38.58v17.78H42.01v-17.78c0-21.29,17.29-38.58,38.58-38.58Z"/>
    <path class="cls-2" d="M128.04,92.49c0,24.03-28.95,46.71-43.04,46.71s-43.04-22.69-43.04-46.71,19.27-43.5,43.04-43.5,43.04,19.48,43.04,43.5Z"/>
  </g>
</svg>