<?xml version="1.0" encoding="UTF-8"?>
<svg id="Layer_1" data-name="Layer 1" xmlns="http://www.w3.org/2000/svg" viewBox="0 0 170 221">
  <defs>
    <style>
      .cls-1 {
        fill: #35241f;
        opacity: .17;
      }

      .cls-2 {
        fill: #e8bda7;
      }
    </style>
  </defs>
  <path class="cls-2" d="M111,119.22c-4.49,3.3-7.52,9.72-7.52,17.09,0,6.9,2.66,12.97,6.69,16.42h-49.84c4.06-3.43,6.77-9.54,6.77-16.51,0-7.37-3.03-13.79-7.51-17.09l51.41.09Z"/>
  <path class="cls-2" d="M110.99,119.22c-4.48,3.3-7.52,9.72-7.52,17.09v.05l-5.46,2.38c-4.13,1.81-8.51,2.72-13.01,2.72s-8.89-.91-13.02-2.72l-4.9-2.14c.01-.13.01-.25.01-.38,0-7.38-3.03-13.8-7.51-17.09l51.41.09Z"/>
  <path class="cls-1" d="M110.99,119.22c-4.48,3.3-7.52,9.72-7.52,17.09v.05l-5.46,2.38c-4.13,1.81-8.51,2.72-13.01,2.72s-8.89-.91-13.02-2.72l-4.9-2.14c.01-.13.01-.25.01-.38,0-7.38-3.03-13.8-7.51-17.09l51.41.09Z"/>
  <g>
    <path class="cls-2" d="M80.59,37.82h8.83c21.29,0,38.58,17.29,38.58,38.58v17.78H42.01v-17.78c0-21.29,17.29-38.58,38.58-38.58Z"/>
    <path class="cls-2" d="M96.1,134.42l13.09-5.71c7.87-3.43,13.7-10.32,15.8-18.65l2.17-8.62c2.23-8.85-.04-18.23-6.07-25.09l-7.46-8.47c-5.27-5.99-12.85-9.42-20.82-9.42h-15.61c-7.97,0-15.56,3.43-20.82,9.42l-7.46,8.47c-6.03,6.85-8.3,16.24-6.07,25.09l2.17,8.62c2.1,8.33,7.93,15.21,15.8,18.65l13.09,5.71c7.07,3.09,15.12,3.09,22.19,0Z"/>
  </g>
</svg>