<?xml version="1.0" encoding="UTF-8"?>
<svg id="Layer_1" data-name="Layer 1" xmlns="http://www.w3.org/2000/svg" viewBox="0 0 170 221">
  <defs>
    <style>
      .cls-1 {
        fill: #35241f;
        opacity: .17;
      }

      .cls-2 {
        fill: #e8bda7;
      }

      .cls-3 {
        fill: #ddb99e;
      }
    </style>
  </defs>
  <path class="cls-2" d="M111,119.22c-4.49,3.3-7.52,9.72-7.52,17.09,0,6.9,2.66,12.97,6.69,16.42h-49.84c4.06-3.43,6.77-9.54,6.77-16.51,0-7.37-3.03-13.79-7.51-17.09l51.41.09Z"/>
  <path class="cls-2" d="M103.48,136.31c0,1.43.11,2.82.34,4.16-5.87,2.67-12.25,4.08-18.82,4.08s-12.56-1.32-18.29-3.85c.26-1.44.39-2.94.39-4.48,0-7.38-3.03-13.8-7.51-17.09l51.41.09c-4.49,3.3-7.52,9.72-7.52,17.09Z"/>
  <path class="cls-1" d="M103.48,136.31c0,1.43.11,2.82.34,4.16-5.87,2.67-12.25,4.08-18.82,4.08s-12.56-1.32-18.29-3.85c.26-1.44.39-2.94.39-4.48,0-7.38-3.03-13.8-7.51-17.09l51.41.09c-4.49,3.3-7.52,9.72-7.52,17.09Z"/>
  <g>
    <path class="cls-3" d="M80.88,40.75h8.83c21.29,0,38.58,17.29,38.58,38.58v17.78H42.3v-17.78c0-21.29,17.29-38.58,38.58-38.58Z"/>
    <path class="cls-3" d="M128.28,88.68v6.77c0,4.93-1.49,9.78-4.32,14.06l-10.78,16.31c-12.34,18.67-43.45,18.67-55.79,0l-10.78-16.31c-2.83-4.28-4.32-9.13-4.32-14.06v-6.77h85.98Z"/>
  </g>
  <g>
    <path class="cls-2" d="M80.59,37.82h8.83c21.29,0,38.58,17.29,38.58,38.58v17.78H42.01v-17.78c0-21.29,17.29-38.58,38.58-38.58Z"/>
    <ellipse class="cls-2" cx="85" cy="93.25" rx="42.99" ry="46.29"/>
  </g>
</svg>