<?xml version="1.0" encoding="UTF-8"?>
<svg id="Layer_1" data-name="Layer 1" xmlns="http://www.w3.org/2000/svg" viewBox="0 0 170 221">
  <defs>
    <style>
      .cls-1 {
        fill: #35241f;
        opacity: .17;
      }

      .cls-2 {
        fill: #e8bda7;
      }
    </style>
  </defs>
  <path class="cls-2" d="M111,119.22c-4.49,3.3-7.52,9.72-7.52,17.09,0,6.9,2.66,12.97,6.69,16.42h-49.84c4.06-3.43,6.77-9.54,6.77-16.51,0-7.37-3.03-13.79-7.51-17.09l51.41.09Z"/>
  <g>
    <path class="cls-2" d="M80.59,34.52h8.83c21.29,0,38.58,17.29,38.58,38.58v17.78H42.01v-17.78c0-21.29,17.29-38.58,38.58-38.58Z"/>
    <rect class="cls-2" x="42.01" y="49.89" width="85.98" height="85.02" rx="26.55" ry="26.55"/>
  </g>
  <path class="cls-1" d="M110.7,119.22l-51.41-.09c4.47,3.3,7.51,9.72,7.51,17.09,0,1.24-.09,2.45-.25,3.63.67.04,1.33.07,2.01.07h32.89c.67,0,1.33-.03,1.99-.07-.16-1.15-.24-2.33-.24-3.54,0-7.37,3.03-13.79,7.52-17.09Z"/>
  <path class="cls-2" d="M89.41,34.52h-8.83c-21.3,0-38.58,17.27-38.58,38.58v35.27c0,14.66,11.89,26.55,26.55,26.55h32.89c14.66,0,26.55-11.89,26.55-26.55v-35.27c0-21.3-17.27-38.58-38.58-38.58Z"/>
</svg>