<svg width="90" height="43" viewBox="0 0 90 43" fill="none" xmlns="http://www.w3.org/2000/svg">
<g filter="url(#filter0_dd_214870_198)">
<mask id="path-1-outside-1_214870_198" maskUnits="userSpaceOnUse" x="0" y="0" width="84" height="37" fill="black">
<rect fill="white" width="84" height="37"/>
<path d="M25.7721 13.4527L32.639 11.7403L49.234 15.1652L53.8119 25.0972L46.3728 28.5221L23.4832 27.1521L25.7721 13.4527Z"/>
<path d="M28.0034 22.6605C28.0034 23.4016 26.7633 25.2852 25.4301 25.5322C25.7092 26.3351 26.1742 26.7982 26.9493 26.7982C27.9724 26.7982 28.4994 26.1807 29.0885 25.4396C29.4605 24.9764 29.7395 24.7603 30.1736 24.7603C30.6386 24.7603 30.8246 25.069 30.8246 25.841C30.8246 30.3801 26.6702 36 21.2758 36C17.7415 36 15.6953 33.1901 15.6953 29.8861C15.6953 28.0025 16.1603 25.9028 16.8734 23.8957C16.4704 23.8957 16.0983 23.8648 15.7263 23.8648L14.8892 26.9835C13.9591 30.3184 12.099 34.6413 6.6735 34.6413C3.54222 34.6413 1 32.3563 1 29.2994C1 24.0192 6.20846 21.5489 12.9981 20.8078C15.1682 16.1761 18.5785 10.3709 23.725 10.3709C25.8952 10.3709 27.2903 11.2355 27.2903 12.6559C27.2903 13.0573 27.0423 13.2735 26.8563 13.8602C26.2982 15.6511 25.5852 18.4611 25.2751 20.9931C27.1973 21.3636 28.0034 22.043 28.0034 22.6605ZM16.9044 20.5608C17.2454 20.5608 17.5865 20.5299 17.9585 20.5299H18.2995C19.1366 18.8007 20.0357 17.2568 20.7487 16.1761C19.5396 16.1761 18.4855 17.4112 17.4624 19.3565C17.2454 19.758 17.0594 20.1594 16.9044 20.5608ZM8.28564 27.1379C9.64976 27.1379 10.6728 25.6557 11.4479 24.1427C8.22363 24.6985 7.41756 25.9028 7.41756 26.4277C7.41756 26.7056 7.57258 27.1379 8.28564 27.1379Z"/>
<path d="M33.7389 28.1878C33.9559 28.1878 34.1419 28.0642 34.2969 27.8481C33.9869 27.2923 33.8319 26.6438 33.8319 25.9954C33.8319 24.1427 35.103 23.0619 36.2811 23.0619C37.8932 23.0619 38.7923 24.1427 38.7923 25.9954C38.7923 26.1807 38.7613 26.3659 38.7613 26.5512C39.9394 26.1189 39.9704 24.7294 40.9935 24.7294C41.3035 24.7294 41.5826 25.0382 41.5826 25.5013C41.5826 27.6937 40.1874 29.4847 37.9862 29.7317C37.1182 31.7388 35.444 33.5915 32.5298 33.5915C29.5845 33.5915 28.0964 30.6272 28.0964 27.879C28.0964 25.4396 29.2435 23.1855 31.5377 23.1855C32.8088 23.1855 33.6459 23.803 33.6459 24.5132C33.6459 24.6367 33.6149 24.7294 33.5839 24.8529C33.3668 25.3778 33.1808 26.3351 33.1808 27.0761C33.1808 27.6937 33.3048 28.1878 33.7389 28.1878Z"/>
<path d="M48.9801 25.7792C48.9801 26.4277 49.2281 26.7982 49.7552 26.7982C50.4682 26.7982 51.0573 26.1807 51.6153 25.4396C51.8943 25.069 52.2044 24.7603 52.6694 24.7603C53.1345 24.7603 53.3515 25.069 53.3515 25.5013C53.3515 26.4277 52.1114 33.4989 48.019 33.4989C46.8719 33.4989 46.0658 33.0666 45.5698 32.1711C44.8257 33.1901 43.7406 33.5915 42.5315 33.5915C40.0513 33.5915 38.6562 31.4609 38.6562 29.2994C38.6562 25.5322 41.5394 23.0619 44.3607 23.0619C45.2908 23.0619 46.1588 23.3399 46.7789 23.7722C47.1509 23.5251 47.647 23.3707 48.05 23.3707C48.7011 23.3707 49.1661 23.7413 49.1661 24.2971C49.1661 24.6985 48.9801 25.2234 48.9801 25.7792ZM44.7017 28.0951C45.5388 28.0951 45.9728 27.3849 45.9728 26.613C45.9728 26.3351 45.8488 25.5631 44.9807 25.5631C44.2057 25.5631 43.7406 26.3351 43.7406 27.0453C43.7406 27.6011 44.0197 28.0951 44.7017 28.0951Z"/>
<path d="M56.8533 25.7792C56.8533 26.4277 57.1324 26.9526 57.8764 26.9526C58.9305 26.9526 59.7056 25.9336 60.1086 25.4396C60.4186 25.069 60.6977 24.7603 61.1627 24.7603C61.6277 24.7603 61.8448 25.069 61.8448 25.5013C61.8448 26.4277 60.7597 33.5915 55.8922 33.5915C53.412 33.5915 51.8309 31.43 51.8309 28.373C51.8309 27.632 51.8619 26.7056 51.9239 25.7175C50.7768 25.7175 50.6218 25.3778 50.6218 24.7603C50.6218 24.328 51.0558 23.7413 52.2339 23.2781C52.792 20.3446 53.9701 17.5656 56.5123 17.5656C57.7214 17.5656 58.4965 18.2449 58.4965 18.8934C58.4965 19.0478 58.4035 19.3565 58.2795 19.758L57.4734 22.5061H57.9384C59.3956 22.5061 59.8606 22.9693 59.8606 23.5251C59.8606 24.6985 58.8685 25.5322 57.7834 25.5322C57.5044 25.5322 57.1944 25.5013 56.8533 25.5013V25.7792Z"/>
<path d="M69.1742 25.7792C69.1742 26.4277 69.4223 26.7982 69.9493 26.7982C70.6624 26.7982 71.2514 26.1807 71.8095 25.4396C72.0885 25.069 72.3985 24.7603 72.8636 24.7603C73.3286 24.7603 73.5456 25.069 73.5456 25.5013C73.5456 26.4277 72.3055 33.4989 68.2132 33.4989C67.0661 33.4989 66.26 33.0666 65.7639 32.1711C65.0199 33.1901 63.9348 33.5915 62.7257 33.5915C60.2455 33.5915 58.8503 31.4609 58.8503 29.2994C58.8503 25.5322 61.7336 23.0619 64.5548 23.0619C65.4849 23.0619 66.353 23.3399 66.9731 23.7722C67.3451 23.5251 67.8411 23.3707 68.2442 23.3707C68.8952 23.3707 69.3603 23.7413 69.3603 24.2971C69.3603 24.6985 69.1742 25.2234 69.1742 25.7792ZM64.8959 28.0951C65.7329 28.0951 66.167 27.3849 66.167 26.613C66.167 26.3351 66.043 25.5631 65.1749 25.5631C64.3998 25.5631 63.9348 26.3351 63.9348 27.0453C63.9348 27.6011 64.2138 28.0951 64.8959 28.0951Z"/>
<path d="M73.5132 29.7008C73.5132 29.0524 73.6062 28.3113 73.7612 27.6937C73.5442 27.7246 73.3272 27.7246 73.1101 27.7246C71.932 27.7246 70.9399 26.7056 70.9399 25.1617C70.9399 23.9265 71.56 22.7223 72.4281 22.7223C72.7071 22.7223 73.3892 23.6178 74.9393 23.8648C75.4663 23.1237 76.1174 22.5061 77.2335 22.5061C78.6906 22.5061 78.9697 23.4325 78.9697 23.9883C78.9697 24.6676 78.6596 25.3161 78.6596 25.9336C78.6596 26.4277 78.8766 26.7982 79.4037 26.7982C80.2408 26.7982 80.8608 25.9336 81.2638 25.4396C81.5739 25.069 81.8529 24.7603 82.3179 24.7603C82.783 24.7603 83 25.069 83 25.5013C83 26.4277 81.8529 33.5915 77.1715 33.5915C75.0633 33.5915 73.5132 32.1093 73.5132 29.7008Z"/>
<path fill-rule="evenodd" clip-rule="evenodd" d="M50.9594 12.8626C52.4346 12.8582 53.1334 13.9901 53.1379 15.3962C53.1514 17.51 51.6626 19.5513 49.6516 19.5648C49.1795 19.5648 48.7439 19.4478 48.4307 19.2541C48.4397 21.2508 48.8572 22.0531 48.8572 22.265C48.8617 23.0672 47.8403 23.7255 46.5601 23.7255C45.457 23.73 44.6625 23.0714 44.6534 21.2325C44.6489 20.3581 44.6992 19.0465 44.8127 17.7981C44.5313 18.0459 44.1903 18.2215 43.8136 18.2891C43.3097 19.3663 42.3064 20.0787 41.0808 20.0833C39.5328 20.0923 38.6883 19.0195 38.6837 17.7575C38.6747 16.189 39.9232 14.8146 41.5211 14.8056C42.0794 14.8057 42.4518 15.0171 42.6697 15.292C42.7149 15.2786 42.7467 15.2789 42.7921 15.2789C43.6909 15.2744 44.1131 15.8239 44.163 16.5631C44.6987 16.3422 44.8937 15.9771 45.2069 15.1524C45.2115 15.1479 45.2115 15.1431 45.2115 15.1386L45.2128 15.136C45.2398 15.038 45.2668 14.9488 45.2938 14.8685C45.6252 13.8905 46.5057 13.1018 47.3545 13.0973C48.0446 13.0928 48.4393 13.5209 48.4438 14.0707C48.4438 14.1474 48.4441 14.2466 48.4214 14.3638C48.9526 13.5795 49.7564 12.8716 50.9594 12.8626ZM41.6659 16.0806C41.3256 16.0853 41.0486 16.4236 41.0486 16.8247C41.0531 17.131 41.2076 17.3476 41.5343 17.3432C41.6387 17.3432 41.748 17.3292 41.8252 17.2796C41.7481 17.0678 41.6982 16.8201 41.6982 16.5769C41.6982 16.4191 41.73 16.2522 41.789 16.099C41.7436 16.0809 41.7113 16.0806 41.6659 16.0806ZM49.9056 14.8056C49.4881 14.8103 49.0978 15.2428 48.8664 15.8872C49.0253 16.081 49.2797 16.198 49.4976 16.198C49.9106 16.1978 50.342 15.7652 50.342 15.292C50.3374 15.0397 50.2006 14.8056 49.9056 14.8056Z"/>
<path d="M37.6214 1C43.8635 1.00004 48.4346 4.16859 48.4346 8.17551C48.4344 12.1823 45.198 14.5572 41.0216 14.5572C40.386 14.5572 39.7096 14.5124 39.0286 14.3952C38.2796 17.4691 36.8723 20.3133 33.209 20.3134C30.8393 20.3134 28.7505 18.9382 28.7505 16.1888V16.1849C28.7505 14.6028 29.8088 12.9708 30.9074 12.9708C31.2613 12.971 31.4475 13.5069 32.2461 13.507C35.9051 13.507 33.2089 5.44847 38.5113 5.44847C39.7778 5.44852 40.9492 5.96231 40.9492 6.49864C40.9491 6.85004 40.6674 6.75556 40.268 7.9677C39.9638 8.87812 39.7728 10.1807 39.5413 11.623C41.5842 11.3435 43.0822 9.94663 43.0823 8.05816C43.0823 5.93976 41.2304 4.74967 38.7654 4.74967C35.2017 4.74967 33.3947 7.03028 33.3946 9.383C33.3946 10.1762 33.6763 10.1539 33.6763 10.5459C33.6763 11.4068 32.2688 12.2005 30.6981 12.2005C28.61 12.2004 26.8532 10.6182 26.853 8.42789C26.853 2.79384 33.2361 1 37.6214 1Z"/>
</mask>
<path d="M25.7721 13.4527L32.639 11.7403L49.234 15.1652L53.8119 25.0972L46.3728 28.5221L23.4832 27.1521L25.7721 13.4527Z" fill="#16070E"/>
<path d="M28.0034 22.6605C28.0034 23.4016 26.7633 25.2852 25.4301 25.5322C25.7092 26.3351 26.1742 26.7982 26.9493 26.7982C27.9724 26.7982 28.4994 26.1807 29.0885 25.4396C29.4605 24.9764 29.7395 24.7603 30.1736 24.7603C30.6386 24.7603 30.8246 25.069 30.8246 25.841C30.8246 30.3801 26.6702 36 21.2758 36C17.7415 36 15.6953 33.1901 15.6953 29.8861C15.6953 28.0025 16.1603 25.9028 16.8734 23.8957C16.4704 23.8957 16.0983 23.8648 15.7263 23.8648L14.8892 26.9835C13.9591 30.3184 12.099 34.6413 6.6735 34.6413C3.54222 34.6413 1 32.3563 1 29.2994C1 24.0192 6.20846 21.5489 12.9981 20.8078C15.1682 16.1761 18.5785 10.3709 23.725 10.3709C25.8952 10.3709 27.2903 11.2355 27.2903 12.6559C27.2903 13.0573 27.0423 13.2735 26.8563 13.8602C26.2982 15.6511 25.5852 18.4611 25.2751 20.9931C27.1973 21.3636 28.0034 22.043 28.0034 22.6605ZM16.9044 20.5608C17.2454 20.5608 17.5865 20.5299 17.9585 20.5299H18.2995C19.1366 18.8007 20.0357 17.2568 20.7487 16.1761C19.5396 16.1761 18.4855 17.4112 17.4624 19.3565C17.2454 19.758 17.0594 20.1594 16.9044 20.5608ZM8.28564 27.1379C9.64976 27.1379 10.6728 25.6557 11.4479 24.1427C8.22363 24.6985 7.41756 25.9028 7.41756 26.4277C7.41756 26.7056 7.57258 27.1379 8.28564 27.1379Z" fill="#FAEFF4"/>
<path d="M33.7389 28.1878C33.9559 28.1878 34.1419 28.0642 34.2969 27.8481C33.9869 27.2923 33.8319 26.6438 33.8319 25.9954C33.8319 24.1427 35.103 23.0619 36.2811 23.0619C37.8932 23.0619 38.7923 24.1427 38.7923 25.9954C38.7923 26.1807 38.7613 26.3659 38.7613 26.5512C39.9394 26.1189 39.9704 24.7294 40.9935 24.7294C41.3035 24.7294 41.5826 25.0382 41.5826 25.5013C41.5826 27.6937 40.1874 29.4847 37.9862 29.7317C37.1182 31.7388 35.444 33.5915 32.5298 33.5915C29.5845 33.5915 28.0964 30.6272 28.0964 27.879C28.0964 25.4396 29.2435 23.1855 31.5377 23.1855C32.8088 23.1855 33.6459 23.803 33.6459 24.5132C33.6459 24.6367 33.6149 24.7294 33.5839 24.8529C33.3668 25.3778 33.1808 26.3351 33.1808 27.0761C33.1808 27.6937 33.3048 28.1878 33.7389 28.1878Z" fill="#FAEFF4"/>
<path d="M48.9801 25.7792C48.9801 26.4277 49.2281 26.7982 49.7552 26.7982C50.4682 26.7982 51.0573 26.1807 51.6153 25.4396C51.8943 25.069 52.2044 24.7603 52.6694 24.7603C53.1345 24.7603 53.3515 25.069 53.3515 25.5013C53.3515 26.4277 52.1114 33.4989 48.019 33.4989C46.8719 33.4989 46.0658 33.0666 45.5698 32.1711C44.8257 33.1901 43.7406 33.5915 42.5315 33.5915C40.0513 33.5915 38.6562 31.4609 38.6562 29.2994C38.6562 25.5322 41.5394 23.0619 44.3607 23.0619C45.2908 23.0619 46.1588 23.3399 46.7789 23.7722C47.1509 23.5251 47.647 23.3707 48.05 23.3707C48.7011 23.3707 49.1661 23.7413 49.1661 24.2971C49.1661 24.6985 48.9801 25.2234 48.9801 25.7792ZM44.7017 28.0951C45.5388 28.0951 45.9728 27.3849 45.9728 26.613C45.9728 26.3351 45.8488 25.5631 44.9807 25.5631C44.2057 25.5631 43.7406 26.3351 43.7406 27.0453C43.7406 27.6011 44.0197 28.0951 44.7017 28.0951Z" fill="#FAEFF4"/>
<path d="M56.8533 25.7792C56.8533 26.4277 57.1324 26.9526 57.8764 26.9526C58.9305 26.9526 59.7056 25.9336 60.1086 25.4396C60.4186 25.069 60.6977 24.7603 61.1627 24.7603C61.6277 24.7603 61.8448 25.069 61.8448 25.5013C61.8448 26.4277 60.7597 33.5915 55.8922 33.5915C53.412 33.5915 51.8309 31.43 51.8309 28.373C51.8309 27.632 51.8619 26.7056 51.9239 25.7175C50.7768 25.7175 50.6218 25.3778 50.6218 24.7603C50.6218 24.328 51.0558 23.7413 52.2339 23.2781C52.792 20.3446 53.9701 17.5656 56.5123 17.5656C57.7214 17.5656 58.4965 18.2449 58.4965 18.8934C58.4965 19.0478 58.4035 19.3565 58.2795 19.758L57.4734 22.5061H57.9384C59.3956 22.5061 59.8606 22.9693 59.8606 23.5251C59.8606 24.6985 58.8685 25.5322 57.7834 25.5322C57.5044 25.5322 57.1944 25.5013 56.8533 25.5013V25.7792Z" fill="#FAEFF4"/>
<path d="M69.1742 25.7792C69.1742 26.4277 69.4223 26.7982 69.9493 26.7982C70.6624 26.7982 71.2514 26.1807 71.8095 25.4396C72.0885 25.069 72.3985 24.7603 72.8636 24.7603C73.3286 24.7603 73.5456 25.069 73.5456 25.5013C73.5456 26.4277 72.3055 33.4989 68.2132 33.4989C67.0661 33.4989 66.26 33.0666 65.7639 32.1711C65.0199 33.1901 63.9348 33.5915 62.7257 33.5915C60.2455 33.5915 58.8503 31.4609 58.8503 29.2994C58.8503 25.5322 61.7336 23.0619 64.5548 23.0619C65.4849 23.0619 66.353 23.3399 66.9731 23.7722C67.3451 23.5251 67.8411 23.3707 68.2442 23.3707C68.8952 23.3707 69.3603 23.7413 69.3603 24.2971C69.3603 24.6985 69.1742 25.2234 69.1742 25.7792ZM64.8959 28.0951C65.7329 28.0951 66.167 27.3849 66.167 26.613C66.167 26.3351 66.043 25.5631 65.1749 25.5631C64.3998 25.5631 63.9348 26.3351 63.9348 27.0453C63.9348 27.6011 64.2138 28.0951 64.8959 28.0951Z" fill="#FAEFF4"/>
<path d="M73.5132 29.7008C73.5132 29.0524 73.6062 28.3113 73.7612 27.6937C73.5442 27.7246 73.3272 27.7246 73.1101 27.7246C71.932 27.7246 70.9399 26.7056 70.9399 25.1617C70.9399 23.9265 71.56 22.7223 72.4281 22.7223C72.7071 22.7223 73.3892 23.6178 74.9393 23.8648C75.4663 23.1237 76.1174 22.5061 77.2335 22.5061C78.6906 22.5061 78.9697 23.4325 78.9697 23.9883C78.9697 24.6676 78.6596 25.3161 78.6596 25.9336C78.6596 26.4277 78.8766 26.7982 79.4037 26.7982C80.2408 26.7982 80.8608 25.9336 81.2638 25.4396C81.5739 25.069 81.8529 24.7603 82.3179 24.7603C82.783 24.7603 83 25.069 83 25.5013C83 26.4277 81.8529 33.5915 77.1715 33.5915C75.0633 33.5915 73.5132 32.1093 73.5132 29.7008Z" fill="#FAEFF4"/>
<path fill-rule="evenodd" clip-rule="evenodd" d="M50.9594 12.8626C52.4346 12.8582 53.1334 13.9901 53.1379 15.3962C53.1514 17.51 51.6626 19.5513 49.6516 19.5648C49.1795 19.5648 48.7439 19.4478 48.4307 19.2541C48.4397 21.2508 48.8572 22.0531 48.8572 22.265C48.8617 23.0672 47.8403 23.7255 46.5601 23.7255C45.457 23.73 44.6625 23.0714 44.6534 21.2325C44.6489 20.3581 44.6992 19.0465 44.8127 17.7981C44.5313 18.0459 44.1903 18.2215 43.8136 18.2891C43.3097 19.3663 42.3064 20.0787 41.0808 20.0833C39.5328 20.0923 38.6883 19.0195 38.6837 17.7575C38.6747 16.189 39.9232 14.8146 41.5211 14.8056C42.0794 14.8057 42.4518 15.0171 42.6697 15.292C42.7149 15.2786 42.7467 15.2789 42.7921 15.2789C43.6909 15.2744 44.1131 15.8239 44.163 16.5631C44.6987 16.3422 44.8937 15.9771 45.2069 15.1524C45.2115 15.1479 45.2115 15.1431 45.2115 15.1386L45.2128 15.136C45.2398 15.038 45.2668 14.9488 45.2938 14.8685C45.6252 13.8905 46.5057 13.1018 47.3545 13.0973C48.0446 13.0928 48.4393 13.5209 48.4438 14.0707C48.4438 14.1474 48.4441 14.2466 48.4214 14.3638C48.9526 13.5795 49.7564 12.8716 50.9594 12.8626ZM41.6659 16.0806C41.3256 16.0853 41.0486 16.4236 41.0486 16.8247C41.0531 17.131 41.2076 17.3476 41.5343 17.3432C41.6387 17.3432 41.748 17.3292 41.8252 17.2796C41.7481 17.0678 41.6982 16.8201 41.6982 16.5769C41.6982 16.4191 41.73 16.2522 41.789 16.099C41.7436 16.0809 41.7113 16.0806 41.6659 16.0806ZM49.9056 14.8056C49.4881 14.8103 49.0978 15.2428 48.8664 15.8872C49.0253 16.081 49.2797 16.198 49.4976 16.198C49.9106 16.1978 50.342 15.7652 50.342 15.292C50.3374 15.0397 50.2006 14.8056 49.9056 14.8056Z" fill="#FAEFF4"/>
<path d="M37.6214 1C43.8635 1.00004 48.4346 4.16859 48.4346 8.17551C48.4344 12.1823 45.198 14.5572 41.0216 14.5572C40.386 14.5572 39.7096 14.5124 39.0286 14.3952C38.2796 17.4691 36.8723 20.3133 33.209 20.3134C30.8393 20.3134 28.7505 18.9382 28.7505 16.1888V16.1849C28.7505 14.6028 29.8088 12.9708 30.9074 12.9708C31.2613 12.971 31.4475 13.5069 32.2461 13.507C35.9051 13.507 33.2089 5.44847 38.5113 5.44847C39.7778 5.44852 40.9492 5.96231 40.9492 6.49864C40.9491 6.85004 40.6674 6.75556 40.268 7.9677C39.9638 8.87812 39.7728 10.1807 39.5413 11.623C41.5842 11.3435 43.0822 9.94663 43.0823 8.05816C43.0823 5.93976 41.2304 4.74967 38.7654 4.74967C35.2017 4.74967 33.3947 7.03028 33.3946 9.383C33.3946 10.1762 33.6763 10.1539 33.6763 10.5459C33.6763 11.4068 32.2688 12.2005 30.6981 12.2005C28.61 12.2004 26.8532 10.6182 26.853 8.42789C26.853 2.79384 33.2361 1 37.6214 1Z" fill="#FAEFF4"/>
<path d="M32.639 11.7403L32.8411 10.761L32.6181 10.7149L32.397 10.77L32.639 11.7403ZM25.7721 13.4527L25.5302 12.4825L24.8939 12.6411L24.7858 13.2879L25.7721 13.4527ZM23.4832 27.1521L22.4968 26.9873L22.3136 28.0839L23.4234 28.1503L23.4832 27.1521ZM46.3728 28.5221L46.313 29.5203L46.5633 29.5352L46.791 29.4304L46.3728 28.5221ZM53.8119 25.0972L54.2301 26.0056L55.1389 25.5872L54.7201 24.6786L53.8119 25.0972ZM49.234 15.1652L50.1422 14.7466L49.9307 14.2879L49.4361 14.1858L49.234 15.1652ZM25.4301 25.5322L25.2479 24.549L24.1034 24.761L24.4856 25.8605L25.4301 25.5322ZM29.0885 25.4396L28.3088 24.8134L28.3056 24.8174L29.0885 25.4396ZM16.8734 23.8957L17.8157 24.2304L18.2899 22.8957H16.8734V23.8957ZM15.7263 23.8648V22.8648H14.9593L14.7605 23.6056L15.7263 23.8648ZM14.8892 26.9835L15.8525 27.2522L15.855 27.2427L14.8892 26.9835ZM12.9981 20.8078L13.1066 21.8019L13.6652 21.7409L13.9036 21.2321L12.9981 20.8078ZM26.8563 13.8602L25.903 13.5579L25.9015 13.5627L26.8563 13.8602ZM25.2751 20.9931L24.2825 20.8716L24.1691 21.7983L25.0858 21.975L25.2751 20.9931ZM16.9044 20.5608L15.9715 20.2006L15.4463 21.5608H16.9044V20.5608ZM18.2995 20.5299V21.5299H18.9264L19.1996 20.9656L18.2995 20.5299ZM20.7487 16.1761L21.5834 16.7268L22.6066 15.1761H20.7487V16.1761ZM17.4624 19.3565L18.3422 19.8321L18.3475 19.822L17.4624 19.3565ZM11.4479 24.1427L12.3379 24.5986L13.2505 22.8172L11.278 23.1572L11.4479 24.1427ZM34.2969 27.8481L35.1095 28.4309L35.4794 27.9152L35.1702 27.361L34.2969 27.8481ZM38.7613 26.5512H37.7613V27.9834L39.1058 27.49L38.7613 26.5512ZM37.9862 29.7317L37.8747 28.7379L37.2986 28.8026L37.0684 29.3347L37.9862 29.7317ZM33.5839 24.8529L34.508 25.235L34.536 25.1673L34.5538 25.0964L33.5839 24.8529ZM45.5698 32.1711L46.4446 31.6865L45.6857 30.3166L44.7622 31.5814L45.5698 32.1711ZM46.7789 23.7722L46.207 24.5925L46.7652 24.9816L47.3321 24.6052L46.7789 23.7722ZM60.1086 25.4396L59.3416 24.7978L59.3337 24.8075L60.1086 25.4396ZM51.9239 25.7175L52.9219 25.7801L52.9886 24.7175H51.9239V25.7175ZM52.2339 23.2781L52.5998 24.2088L53.1132 24.0069L53.2163 23.465L52.2339 23.2781ZM58.2795 19.758L57.324 19.4628L57.3219 19.4696L57.3199 19.4765L58.2795 19.758ZM57.4734 22.5061L56.5138 22.2247L56.1379 23.5061H57.4734V22.5061ZM56.8533 25.5013V24.5013H55.8533V25.5013H56.8533ZM65.7639 32.1711L66.6387 31.6865L65.8799 30.3166L64.9563 31.5814L65.7639 32.1711ZM66.9731 23.7722L66.4011 24.5925L66.9593 24.9816L67.5262 24.6052L66.9731 23.7722ZM73.7612 27.6937L74.7311 27.9372L75.0933 26.4941L73.6203 26.7037L73.7612 27.6937ZM74.9393 23.8648L74.7819 24.8523L75.3946 24.95L75.7542 24.4444L74.9393 23.8648ZM81.2638 25.4396L80.4968 24.7978L80.489 24.8075L81.2638 25.4396ZM50.9594 12.8626L50.9564 11.8626L50.9519 11.8626L50.9594 12.8626ZM53.1379 15.3962L52.1379 15.3995L52.138 15.4026L53.1379 15.3962ZM49.6516 19.5648L49.6515 20.5648L49.6583 20.5648L49.6516 19.5648ZM48.4307 19.2541L48.9568 18.4037C48.6476 18.2124 48.259 18.204 47.9419 18.3817C47.6248 18.5593 47.429 18.8951 47.4307 19.2586L48.4307 19.2541ZM48.8572 22.265L47.8571 22.265L47.8572 22.2706L48.8572 22.265ZM46.5601 23.7255L46.5601 22.7255L46.556 22.7255L46.5601 23.7255ZM44.6534 21.2325L45.6534 21.2275L45.6534 21.2273L44.6534 21.2325ZM44.8127 17.7981L45.8086 17.8887C45.8456 17.4809 45.6304 17.0918 45.2653 16.9064C44.9002 16.7211 44.459 16.7771 44.1518 17.0477L44.8127 17.7981ZM43.8136 18.2891L43.6369 17.3049C43.3172 17.3622 43.0454 17.5713 42.9078 17.8654L43.8136 18.2891ZM41.0808 20.0833L41.0771 19.0833L41.075 19.0833L41.0808 20.0833ZM38.6837 17.7575L39.6837 17.7539L39.6837 17.7517L38.6837 17.7575ZM41.5211 14.8056L41.5212 13.8056L41.5155 13.8056L41.5211 14.8056ZM42.6697 15.292L41.8859 15.9131C42.1397 16.2334 42.5628 16.367 42.9545 16.2506L42.6697 15.292ZM42.7921 15.2789L42.7921 16.2789L42.7971 16.2789L42.7921 15.2789ZM44.163 16.5631L43.1653 16.6305C43.187 16.9516 43.3619 17.2425 43.6352 17.4124C43.9084 17.5823 44.2468 17.6103 44.5442 17.4876L44.163 16.5631ZM45.2069 15.1524L44.5024 14.4427C44.4012 14.5432 44.3227 14.6641 44.2721 14.7974L45.2069 15.1524ZM45.2115 15.1386L44.3183 14.6891C44.2481 14.8285 44.2115 14.9825 44.2115 15.1386H45.2115ZM45.2128 15.136L46.1061 15.5855C46.1357 15.5266 46.1595 15.4649 46.177 15.4013L45.2128 15.136ZM45.2938 14.8685L44.3467 14.5476L44.3458 14.5503L45.2938 14.8685ZM47.3545 13.0973L47.3599 14.0973L47.3611 14.0973L47.3545 13.0973ZM48.4438 14.0707L49.4439 14.0707L49.4438 14.0625L48.4438 14.0707ZM48.4214 14.3638L47.4397 14.1736C47.3494 14.6399 47.5995 15.1054 48.0382 15.2874C48.4769 15.4694 48.9831 15.3178 49.2494 14.9245L48.4214 14.3638ZM37.6214 1L37.6214 0H37.6214V1ZM48.4346 8.17551L49.4346 8.17555V8.17551H48.4346ZM41.0216 14.5572L41.0216 15.5572H41.0216V14.5572ZM39.0286 14.3952L39.1982 13.4097C38.6802 13.3206 38.1815 13.6477 38.0571 14.1585L39.0286 14.3952ZM33.209 20.3134L33.209 21.3134L33.2091 21.3134L33.209 20.3134ZM30.9074 12.9708L30.9082 11.9708H30.9074V12.9708ZM32.2461 13.507L32.246 14.507H32.2461V13.507ZM38.5113 5.44847L38.5113 4.44847H38.5113V5.44847ZM40.9492 6.49864L41.9492 6.49884V6.49864H40.9492ZM40.268 7.9677L41.2164 8.28456L41.2177 8.28066L40.268 7.9677ZM39.5413 11.623L38.554 11.4645C38.5038 11.7772 38.6047 12.0953 38.8261 12.3218C39.0474 12.5484 39.363 12.6567 39.6769 12.6137L39.5413 11.623ZM43.0823 8.05816L44.0823 8.0582V8.05816H43.0823ZM38.7654 4.74967L38.7654 3.74967H38.7654V4.74967ZM33.3946 9.383L32.3946 9.38297V9.383H33.3946ZM33.6763 10.5459L34.6763 10.5459L34.6763 10.5458L33.6763 10.5459ZM30.6981 12.2005L30.698 13.2005H30.6981V12.2005ZM26.853 8.42789L25.853 8.42789L25.853 8.42795L26.853 8.42789ZM41.6659 16.0806L41.6659 15.0805L41.6522 15.0807L41.6659 16.0806ZM41.0486 16.8247H40.0486C40.0486 16.8296 40.0486 16.8346 40.0487 16.8396L41.0486 16.8247ZM41.5343 17.3432V16.3431L41.5208 16.3433L41.5343 17.3432ZM41.8252 17.2796L42.3657 18.1209C42.7591 17.8682 42.9248 17.3767 42.7648 16.9374L41.8252 17.2796ZM41.6982 16.5769L40.6982 16.5769L40.6982 16.577L41.6982 16.5769ZM41.789 16.099L42.7222 16.4584C42.9192 15.9468 42.6676 15.3719 42.1581 15.1696L41.789 16.099ZM49.9056 14.8056L49.9056 13.8055L49.8944 13.8057L49.9056 14.8056ZM48.8664 15.8872L47.9253 15.5492C47.8063 15.8802 47.8701 16.2493 48.0931 16.5213L48.8664 15.8872ZM49.4976 16.198L49.4976 17.198L49.4979 17.198L49.4976 16.198ZM50.342 15.292H51.342C51.342 15.2859 51.3419 15.2798 51.3418 15.2737L50.342 15.292ZM32.639 11.7403L32.397 10.77L25.5302 12.4825L25.7721 13.4527L26.0141 14.423L32.881 12.7106L32.639 11.7403ZM25.7721 13.4527L24.7858 13.2879L22.4968 26.9873L23.4832 27.1521L24.4695 27.3169L26.7585 13.6175L25.7721 13.4527ZM23.4832 27.1521L23.4234 28.1503L46.313 29.5203L46.3728 28.5221L46.4325 27.5238L23.5429 26.1539L23.4832 27.1521ZM46.3728 28.5221L46.791 29.4304L54.2301 26.0056L53.8119 25.0972L53.3937 24.1889L45.9546 27.6137L46.3728 28.5221ZM53.8119 25.0972L54.7201 24.6786L50.1422 14.7466L49.234 15.1652L48.3258 15.5838L52.9037 25.5158L53.8119 25.0972ZM49.234 15.1652L49.4361 14.1858L32.8411 10.761L32.639 11.7403L32.4369 12.7197L49.0319 16.1445L49.234 15.1652ZM28.0034 22.6605H27.0034C27.0034 22.62 27.0033 22.7135 26.8878 22.9532C26.7863 23.164 26.6315 23.4129 26.4365 23.656C26.0157 24.1808 25.564 24.4904 25.2479 24.549L25.4301 25.5322L25.6123 26.5155C26.6294 26.327 27.4643 25.5713 27.9968 24.9073C28.2785 24.556 28.5171 24.1795 28.6897 23.821C28.8485 23.4914 29.0034 23.0716 29.0034 22.6605H28.0034ZM25.4301 25.5322L24.4856 25.8605C24.6583 26.3576 24.9216 26.8498 25.3467 27.2202C25.7935 27.6096 26.3433 27.7982 26.9493 27.7982V26.7982V25.7982C26.7802 25.7982 26.7099 25.7553 26.6607 25.7124C26.5897 25.6505 26.481 25.5097 26.3747 25.2039L25.4301 25.5322ZM26.9493 26.7982V27.7982C28.5001 27.7982 29.2986 26.7823 29.8713 26.0618L29.0885 25.4396L28.3056 24.8174C27.7002 25.5791 27.4446 25.7982 26.9493 25.7982V26.7982ZM29.0885 25.4396L29.8681 26.0658C30.0361 25.8566 30.1199 25.7862 30.1565 25.7622C30.1677 25.7549 30.1663 25.7574 30.1568 25.7602C30.1477 25.7629 30.15 25.7603 30.1736 25.7603V24.7603V23.7603C29.7657 23.7603 29.3959 23.8691 29.059 24.0903C28.7545 24.2901 28.5128 24.5594 28.3088 24.8134L29.0885 25.4396ZM30.1736 24.7603V25.7603C30.1824 25.7603 30.1193 25.7621 30.0278 25.7168C29.9255 25.6661 29.8547 25.5899 29.8169 25.5272C29.7868 25.4772 29.793 25.4616 29.804 25.5233C29.8148 25.5831 29.8246 25.6837 29.8246 25.841H30.8246H31.8246C31.8246 25.4238 31.7839 24.9165 31.5301 24.4951C31.3876 24.2587 31.1831 24.057 30.9152 23.9244C30.658 23.7971 30.3972 23.7603 30.1736 23.7603V24.7603ZM30.8246 25.841H29.8246C29.8246 27.8304 28.9008 30.1446 27.3181 31.967C25.7421 33.7817 23.6112 35 21.2758 35V36V37C24.3348 37 26.9783 35.4084 28.8281 33.2784C30.6713 31.156 31.8246 28.3907 31.8246 25.841H30.8246ZM21.2758 36V35C19.7969 35 18.681 34.4224 17.9204 33.5323C17.1453 32.6255 16.6953 31.3388 16.6953 29.8861H15.6953H14.6953C14.6953 31.7373 15.2683 33.5076 16.4 34.8317C17.546 36.1727 19.2204 37 21.2758 37V36ZM15.6953 29.8861H16.6953C16.6953 28.1533 17.1262 26.1712 17.8157 24.2304L16.8734 23.8957L15.9311 23.5609C15.1945 25.6344 14.6953 27.8517 14.6953 29.8861H15.6953ZM16.8734 23.8957V22.8957C16.6951 22.8957 16.5206 22.8888 16.3288 22.8811C16.1433 22.8735 15.9363 22.8648 15.7263 22.8648V23.8648V24.8648C15.8883 24.8648 16.0534 24.8715 16.2476 24.8794C16.4356 24.887 16.6487 24.8957 16.8734 24.8957V23.8957ZM15.7263 23.8648L14.7605 23.6056L13.9234 26.7243L14.8892 26.9835L15.855 27.2427L16.6921 24.124L15.7263 23.8648ZM14.8892 26.9835L13.926 26.7149C13.4715 28.3445 12.8201 30.0896 11.7018 31.4194C10.6207 32.7049 9.07338 33.6413 6.6735 33.6413V34.6413V35.6413C9.69909 35.6413 11.7946 34.4163 13.2325 32.7066C14.6331 31.0412 15.3769 28.9573 15.8525 27.2521L14.8892 26.9835ZM6.6735 34.6413V33.6413C4.02318 33.6413 2 31.7353 2 29.2994H1H0C0 32.9774 3.06127 35.6413 6.6735 35.6413V34.6413ZM1 29.2994H2C2 27.0608 3.07329 25.4161 4.99023 24.1948C6.95484 22.9432 9.77931 22.1651 13.1066 21.8019L12.9981 20.8078L12.8895 19.8137C9.4272 20.1916 6.25264 21.0192 3.91562 22.508C1.53093 24.0273 0 26.2578 0 29.2994H1ZM12.9981 20.8078L13.9036 21.2321C14.9785 18.9379 16.3264 16.4314 17.9997 14.509C19.6749 12.5844 21.5627 11.3709 23.725 11.3709V10.3709V9.37092C20.7409 9.37092 18.3503 11.06 16.4911 13.1959C14.6301 15.334 13.1878 18.046 12.0925 20.3835L12.9981 20.8078ZM23.725 10.3709V11.3709C24.6961 11.3709 25.3795 11.5672 25.7854 11.825C26.1533 12.0586 26.2903 12.3294 26.2903 12.6559H27.2903H28.2903C28.2903 11.5621 27.7297 10.6904 26.8575 10.1366C26.0233 9.60692 24.924 9.37092 23.725 9.37092V10.3709ZM27.2903 12.6559H26.2903C26.2903 12.6241 26.3112 12.6108 26.2416 12.7557C26.1734 12.8978 26.023 13.1796 25.903 13.5579L26.8563 13.8602L27.8095 14.1624C27.8755 13.9541 27.9422 13.8345 28.0445 13.6214C28.1454 13.4112 28.2903 13.0891 28.2903 12.6559H27.2903ZM26.8563 13.8602L25.9015 13.5627C25.332 15.3905 24.6021 18.2618 24.2825 20.8716L25.2751 20.9931L26.2677 21.1146C26.5682 18.6603 27.2644 15.9117 27.811 14.1577L26.8563 13.8602ZM25.2751 20.9931L25.0858 21.975C25.9763 22.1467 26.5165 22.3744 26.8069 22.5673C27.1099 22.7684 27.0034 22.8259 27.0034 22.6605H28.0034H29.0034C29.0034 21.8776 28.4938 21.2866 27.9132 20.9011C27.3201 20.5073 26.4961 20.2101 25.4644 20.0112L25.2751 20.9931ZM16.9044 20.5608V21.5608C17.1011 21.5608 17.2945 21.5519 17.464 21.5444C17.6404 21.5366 17.7977 21.5299 17.9585 21.5299V20.5299V19.5299C17.7473 19.5299 17.548 19.5387 17.3756 19.5463C17.1964 19.5543 17.0487 19.5608 16.9044 19.5608V20.5608ZM17.9585 20.5299V21.5299H18.2995V20.5299V19.5299H17.9585V20.5299ZM18.2995 20.5299L19.1996 20.9656C20.0178 19.2754 20.8952 17.7699 21.5834 16.7268L20.7487 16.1761L19.914 15.6253C19.1762 16.7437 18.2553 18.3261 17.3994 20.0942L18.2995 20.5299ZM20.7487 16.1761V15.1761C19.7748 15.1761 18.9679 15.6794 18.3227 16.3358C17.6797 16.9899 17.1068 17.8844 16.5774 18.8911L17.4624 19.3565L18.3475 19.822C18.8412 18.8833 19.3068 18.1876 19.749 17.7378C20.1889 17.2903 20.5136 17.1761 20.7487 17.1761V16.1761ZM17.4624 19.3565L16.5828 18.881C16.3468 19.3174 16.1427 19.7573 15.9715 20.2006L16.9044 20.5608L17.8373 20.921C17.9761 20.5614 18.144 20.1985 18.3421 19.8321L17.4624 19.3565ZM8.28564 27.1379V28.1379C9.35862 28.1379 10.2012 27.5506 10.8182 26.8906C11.437 26.2286 11.9369 25.3815 12.3379 24.5986L11.4479 24.1427L10.5579 23.6868C10.1839 24.4169 9.78471 25.0674 9.35714 25.5248C8.9278 25.9841 8.57678 26.1379 8.28564 26.1379V27.1379ZM11.4479 24.1427L11.278 23.1572C9.57084 23.4515 8.40476 23.933 7.63855 24.4858C6.90604 25.0143 6.41756 25.7095 6.41756 26.4277H7.41756H8.41756C8.41756 26.621 8.33212 26.4516 8.80871 26.1077C9.25162 25.7882 10.1007 25.3897 11.6178 25.1282L11.4479 24.1427ZM7.41756 26.4277H6.41756C6.41756 26.7317 6.50003 27.1753 6.83924 27.5541C7.20076 27.9578 7.71804 28.1379 8.28564 28.1379V27.1379V26.1379C8.20732 26.1379 8.19109 26.126 8.2132 26.1346C8.23953 26.1449 8.28521 26.1708 8.32917 26.2199C8.41261 26.3131 8.41756 26.4016 8.41756 26.4277H7.41756ZM33.7389 28.1878V29.1878C34.3917 29.1878 34.8444 28.8005 35.1095 28.4309L34.2969 27.8481L33.4843 27.2653C33.4621 27.2962 33.4675 27.2782 33.5127 27.25C33.566 27.2168 33.6467 27.1878 33.7389 27.1878V28.1878ZM34.2969 27.8481L35.1702 27.361C34.9508 26.9675 34.8319 26.4894 34.8319 25.9954H33.8319H32.8319C32.8319 26.7983 33.023 27.6171 33.4236 28.3352L34.2969 27.8481ZM33.8319 25.9954H34.8319C34.8319 24.622 35.7255 24.0619 36.2811 24.0619V23.0619V22.0619C34.4805 22.0619 32.8319 23.6634 32.8319 25.9954H33.8319ZM36.2811 23.0619V24.0619C36.8496 24.0619 37.1763 24.2426 37.3791 24.4814C37.6025 24.7443 37.7923 25.2169 37.7923 25.9954H38.7923H39.7923C39.7923 24.9212 39.5326 23.9271 38.9034 23.1865C38.2536 22.4217 37.3247 22.0619 36.2811 22.0619V23.0619ZM38.7923 25.9954H37.7923C37.7923 26.0393 37.7886 26.0902 37.7803 26.1899C37.7731 26.2755 37.7613 26.4098 37.7613 26.5512H38.7613H39.7613C39.7613 26.5073 39.765 26.4564 39.7733 26.3567C39.7805 26.2711 39.7923 26.1368 39.7923 25.9954H38.7923ZM38.7613 26.5512L39.1058 27.49C40.0334 27.1496 40.5002 26.4128 40.7529 26.0542C40.9036 25.8405 40.9696 25.7624 41.0172 25.7229C41.0308 25.7117 41.0278 25.7169 41.0109 25.7234C40.9924 25.7305 40.9826 25.7294 40.9935 25.7294V24.7294V23.7294C39.9038 23.7294 39.3665 24.5497 39.1181 24.9021C38.805 25.3464 38.6673 25.5205 38.4168 25.6124L38.7613 26.5512ZM40.9935 24.7294V25.7294C40.8004 25.7294 40.6758 25.6316 40.6246 25.5679C40.5733 25.504 40.5826 25.4684 40.5826 25.5013H41.5826H42.5826C42.5826 24.7016 42.0492 23.7294 40.9935 23.7294V24.7294ZM41.5826 25.5013H40.5826C40.5826 27.2528 39.5049 28.555 37.8747 28.7379L37.9862 29.7317L38.0978 30.7254C40.8699 30.4143 42.5826 28.1346 42.5826 25.5013H41.5826ZM37.9862 29.7317L37.0684 29.3347C36.2949 31.1233 34.906 32.5915 32.5298 32.5915V33.5915V34.5915C35.982 34.5915 37.9415 32.3543 38.9041 30.1286L37.9862 29.7317ZM32.5298 33.5915V32.5915C31.4446 32.5915 30.623 32.0644 30.0346 31.2021C29.4281 30.3135 29.0964 29.0914 29.0964 27.879H28.0964H27.0964C27.0964 29.4147 27.5087 31.0489 28.3826 32.3295C29.2745 33.6365 30.6697 34.5915 32.5298 34.5915V33.5915ZM28.0964 27.879H29.0964C29.0964 26.7979 29.3534 25.8314 29.7911 25.1685C30.207 24.5388 30.7734 24.1855 31.5377 24.1855V23.1855V22.1855C30.0078 22.1855 28.8535 22.9591 28.1223 24.0664C27.4129 25.1404 27.0964 26.5207 27.0964 27.879H28.0964ZM31.5377 23.1855V24.1855C32.0208 24.1855 32.3456 24.304 32.5173 24.4174C32.6906 24.5319 32.6459 24.5848 32.6459 24.5132H33.6459H34.6459C34.6459 23.7314 34.1826 23.1205 33.6196 22.7486C33.055 22.3757 32.3257 22.1855 31.5377 22.1855V23.1855ZM33.6459 24.5132H32.6459C32.6459 24.5015 32.6466 24.4902 32.6478 24.4808C32.6489 24.4719 32.6498 24.4682 32.6489 24.4727C32.6476 24.4787 32.645 24.4894 32.6387 24.5138C32.6352 24.5271 32.6326 24.5371 32.6279 24.555C32.6238 24.5709 32.619 24.5894 32.6139 24.6094L33.5839 24.8529L34.5538 25.0964C34.5652 25.0507 34.6459 24.7952 34.6459 24.5132H33.6459ZM33.5839 24.8529L32.6597 24.4708C32.3861 25.1326 32.1808 26.222 32.1808 27.0761H33.1808H34.1808C34.1808 26.4481 34.3475 25.6231 34.508 25.235L33.5839 24.8529ZM33.1808 27.0761H32.1808C32.1808 27.4195 32.2104 27.8631 32.3767 28.2545C32.4649 28.4623 32.6116 28.7031 32.8584 28.8932C33.1187 29.0937 33.4263 29.1878 33.7389 29.1878V28.1878V27.1878C33.8344 27.1878 33.9638 27.2201 34.0788 27.3087C34.1802 27.3868 34.2145 27.4655 34.2175 27.4726C34.2202 27.4791 34.2084 27.4519 34.1976 27.3734C34.1872 27.2983 34.1808 27.1996 34.1808 27.0761H33.1808ZM48.9801 25.7792H47.9801C47.9801 26.2043 48.0568 26.7067 48.3647 27.1248C48.712 27.5965 49.2298 27.7982 49.7552 27.7982V26.7982V25.7982C49.7404 25.7982 49.7735 25.7959 49.8302 25.822C49.8915 25.8503 49.9424 25.8944 49.9753 25.939C50.0042 25.9783 50.0042 25.9973 49.9972 25.9695C49.9901 25.9409 49.9801 25.8805 49.9801 25.7792H48.9801ZM49.7552 26.7982V27.7982C50.4187 27.7982 50.9599 27.507 51.3713 27.1751C51.7762 26.8484 52.1226 26.4283 52.4142 26.0411L51.6153 25.4396L50.8165 24.838C50.55 25.192 50.3229 25.4512 50.1154 25.6186C49.9145 25.7807 49.8047 25.7982 49.7552 25.7982V26.7982ZM51.6153 25.4396L52.4142 26.0411C52.5349 25.8808 52.6107 25.806 52.6592 25.7708C52.6785 25.7568 52.6847 25.7558 52.6794 25.7577C52.6724 25.7602 52.6669 25.7603 52.6694 25.7603V24.7603V23.7603C51.6869 23.7603 51.1138 24.4433 50.8165 24.838L51.6153 25.4396ZM52.6694 24.7603V25.7603C52.6752 25.7603 52.6422 25.7611 52.5878 25.7384C52.5302 25.7145 52.472 25.6737 52.4253 25.6191C52.335 25.5137 52.3515 25.4388 52.3515 25.5013H53.3515H54.3515C54.3515 25.1316 54.2595 24.6861 53.9444 24.3182C53.6083 23.9258 53.1379 23.7603 52.6694 23.7603V24.7603ZM53.3515 25.5013H52.3515C52.3515 25.618 52.2946 26.1454 52.1186 26.9202C51.9483 27.6697 51.6828 28.5777 51.3033 29.4477C50.4987 31.2924 49.4046 32.4989 48.019 32.4989V33.4989V34.4989C50.7258 34.4989 52.2979 32.1697 53.1365 30.2473C53.5786 29.2337 53.8788 28.2002 54.0689 27.3633C54.2533 26.5517 54.3515 25.8478 54.3515 25.5013H53.3515ZM48.019 33.4989V32.4989C47.5701 32.4989 47.2541 32.4145 47.0259 32.2911C46.8047 32.1715 46.6102 31.9856 46.4446 31.6865L45.5698 32.1711L44.695 32.6556C45.0254 33.252 45.482 33.73 46.0746 34.0504C46.6602 34.367 47.3209 34.4989 48.019 34.4989V33.4989ZM45.5698 32.1711L44.7622 31.5814C44.2515 32.2808 43.5064 32.5915 42.5315 32.5915V33.5915V34.5915C43.9749 34.5915 45.4 34.0994 46.3774 32.7608L45.5698 32.1711ZM42.5315 33.5915V32.5915C40.7794 32.5915 39.6562 31.1026 39.6562 29.2994H38.6562H37.6562C37.6562 31.8192 39.3232 34.5915 42.5315 34.5915V33.5915ZM38.6562 29.2994H39.6562C39.6562 26.0714 42.1048 24.0619 44.3607 24.0619V23.0619V22.0619C40.9741 22.0619 37.6562 24.9931 37.6562 29.2994H38.6562ZM44.3607 23.0619V24.0619C45.1038 24.0619 45.7686 24.2868 46.207 24.5925L46.7789 23.7722L47.3508 22.9518C46.5491 22.3929 45.4777 22.0619 44.3607 22.0619V23.0619ZM46.7789 23.7722L47.3321 24.6052C47.5539 24.4579 47.8597 24.3707 48.05 24.3707V23.3707V22.3707C47.4343 22.3707 46.7479 22.5923 46.2257 22.9391L46.7789 23.7722ZM48.05 23.3707V24.3707C48.1925 24.3707 48.2333 24.4112 48.218 24.3987C48.2093 24.3915 48.1932 24.3747 48.1804 24.3479C48.1674 24.3205 48.1661 24.3002 48.1661 24.2971H49.1661H50.1661C50.1661 23.7159 49.9127 23.2019 49.4864 22.8523C49.0759 22.5156 48.5585 22.3707 48.05 22.3707V23.3707ZM49.1661 24.2971H48.1661C48.1661 24.3827 48.1445 24.5032 48.0899 24.798C48.0434 25.0484 47.9801 25.3998 47.9801 25.7792H48.9801H49.9801C49.9801 25.6029 50.0098 25.4139 50.0564 25.1625C50.0947 24.9556 50.1661 24.6129 50.1661 24.2971H49.1661ZM44.7017 28.0951V29.0951C45.4376 29.0951 46.0434 28.7681 46.4405 28.2575C46.8171 27.7733 46.9728 27.1731 46.9728 26.613H45.9728H44.9728C44.9728 26.8248 44.9115 26.9657 44.8618 27.0296C44.84 27.0577 44.822 27.0698 44.8088 27.0764C44.7967 27.0824 44.766 27.0951 44.7017 27.0951V28.0951ZM45.9728 26.613H46.9728C46.9728 26.3692 46.9253 25.9026 46.655 25.4614C46.3421 24.9506 45.7784 24.5631 44.9807 24.5631V25.5631V26.5631C45.0149 26.5631 45.0296 26.5668 45.0297 26.5669C45.0299 26.5669 45.0273 26.5663 45.0224 26.5643C45.0176 26.5624 45.0114 26.5595 45.0043 26.5554C44.9895 26.5469 44.9762 26.5364 44.9657 26.5258C44.9557 26.5157 44.9508 26.5082 44.9496 26.5062C44.9486 26.5045 44.9506 26.5075 44.954 26.5164C44.9574 26.5253 44.9611 26.5373 44.9645 26.5521C44.9678 26.5669 44.9701 26.5814 44.9714 26.5941C44.9728 26.6071 44.9728 26.6142 44.9728 26.613H45.9728ZM44.9807 25.5631V24.5631C44.2242 24.5631 43.6383 24.951 43.2725 25.4346C42.9188 25.9022 42.7406 26.4881 42.7406 27.0453H43.7406H44.7406C44.7406 26.8922 44.795 26.7371 44.8676 26.6411C44.9003 26.5978 44.927 26.5792 44.9399 26.5721C44.9491 26.5671 44.9589 26.5631 44.9807 26.5631V25.5631ZM43.7406 27.0453H42.7406C42.7406 27.474 42.8464 27.9824 43.1858 28.4048C43.552 28.8608 44.0935 29.0951 44.7017 29.0951V28.0951V27.0951C44.653 27.0951 44.6506 27.0867 44.6746 27.0975C44.6858 27.1026 44.6992 27.1103 44.7128 27.1209C44.7264 27.1315 44.7371 27.1426 44.745 27.1524C44.7607 27.1719 44.7594 27.1792 44.7538 27.1602C44.748 27.1405 44.7406 27.1025 44.7406 27.0453H43.7406ZM56.8533 25.7792H55.8533C55.8533 26.2247 55.9459 26.7658 56.2923 27.2176C56.6726 27.7136 57.2431 27.9526 57.8764 27.9526V26.9526V25.9526C57.8083 25.9526 57.7961 25.9409 57.8158 25.9498C57.8392 25.9604 57.8638 25.9802 57.8794 26.0007C57.8918 26.0168 57.8846 26.015 57.8742 25.9763C57.8636 25.9368 57.8533 25.8721 57.8533 25.7792H56.8533ZM57.8764 26.9526V27.9526C58.7364 27.9526 59.4164 27.5373 59.8807 27.1463C60.3436 26.7566 60.7014 26.295 60.8835 26.0717L60.1086 25.4396L59.3337 24.8075C59.1128 25.0783 58.8815 25.3731 58.5926 25.6164C58.3051 25.8585 58.0705 25.9526 57.8764 25.9526V26.9526ZM60.1086 25.4396L60.8756 26.0813C60.952 25.99 61.0101 25.9223 61.0636 25.866C61.1161 25.8107 61.151 25.7807 61.173 25.7644C61.1929 25.7496 61.1957 25.751 61.1844 25.7551C61.171 25.7599 61.1609 25.7603 61.1627 25.7603V24.7603V23.7603C60.1713 23.7603 59.6127 24.4739 59.3417 24.7979L60.1086 25.4396ZM61.1627 24.7603V25.7603C61.1685 25.7603 61.1355 25.7611 61.0811 25.7384C61.0235 25.7145 60.9653 25.6737 60.9186 25.6191C60.8283 25.5137 60.8448 25.4388 60.8448 25.5013H61.8448H62.8448C62.8448 25.1316 62.7527 24.6862 62.4377 24.3182C62.1016 23.9258 61.6312 23.7603 61.1627 23.7603V24.7603ZM61.8448 25.5013H60.8448C60.8448 25.8171 60.6061 27.6969 59.7858 29.4749C58.9602 31.2643 57.7292 32.5915 55.8922 32.5915V33.5915V34.5915C58.9227 34.5915 60.668 32.3368 61.6018 30.3127C62.5409 28.2772 62.8448 26.112 62.8448 25.5013H61.8448ZM55.8922 33.5915V32.5915C54.975 32.5915 54.249 32.2054 53.7259 31.5212C53.1853 30.8142 52.8309 29.7399 52.8309 28.373H51.8309H50.8309C50.8309 30.0631 51.267 31.5981 52.1371 32.736C53.0246 33.8968 54.3293 34.5915 55.8922 34.5915V33.5915ZM51.8309 28.373H52.8309C52.8309 27.657 52.8609 26.752 52.9219 25.7801L51.9239 25.7175L50.9259 25.6549C50.8628 26.6592 50.8309 27.6069 50.8309 28.373H51.8309ZM51.9239 25.7175V24.7175C51.6788 24.7175 51.5385 24.6986 51.4662 24.6815C51.3971 24.6652 51.4384 24.662 51.5075 24.7235C51.5423 24.7544 51.5721 24.7914 51.5947 24.8301C51.6164 24.8672 51.6256 24.8958 51.6285 24.9066C51.6311 24.9161 51.6288 24.9112 51.6262 24.8844C51.6237 24.8575 51.6218 24.8181 51.6218 24.7603H50.6218H49.6218C49.6218 25.0901 49.6433 25.7417 50.1778 26.2174C50.6589 26.6456 51.3254 26.7175 51.9239 26.7175V25.7175ZM50.6218 24.7603H51.6218C51.6218 24.8849 51.5637 24.8688 51.6971 24.734C51.827 24.6026 52.0975 24.4062 52.5998 24.2088L52.2339 23.2781L51.868 22.3474C51.1922 22.6131 50.6567 22.9417 50.2751 23.3276C49.8969 23.7099 49.6218 24.2033 49.6218 24.7603H50.6218ZM52.2339 23.2781L53.2163 23.465C53.4864 22.0453 53.8906 20.7646 54.4703 19.8624C55.0309 18.9901 55.6828 18.5656 56.5123 18.5656V17.5656V16.5656C54.7995 16.5656 53.5914 17.5306 52.7878 18.7812C52.0034 20.0019 51.5395 21.5774 51.2515 23.0912L52.2339 23.2781ZM56.5123 17.5656V18.5656C56.9331 18.5656 57.2167 18.6838 57.3696 18.795C57.5366 18.9165 57.4965 18.9773 57.4965 18.8934H58.4965H59.4965C59.4965 18.1609 59.0688 17.5579 58.546 17.1776C58.0091 16.7871 57.3006 16.5656 56.5123 16.5656V17.5656ZM58.4965 18.8934H57.4965C57.4965 18.8433 57.5027 18.8229 57.4971 18.8531C57.4926 18.8771 57.4837 18.917 57.4676 18.9776C57.4351 19.1008 57.3872 19.2584 57.324 19.4628L58.2795 19.758L59.2349 20.0531C59.2958 19.8561 59.3563 19.6586 59.4013 19.4885C59.4388 19.3467 59.4965 19.1157 59.4965 18.8934H58.4965ZM58.2795 19.758L57.3199 19.4765L56.5138 22.2247L57.4734 22.5061L58.433 22.7876L59.239 20.0394L58.2795 19.758ZM57.4734 22.5061V23.5061H57.9384V22.5061V21.5061H57.4734V22.5061ZM57.9384 22.5061V23.5061C58.5914 23.5061 58.8517 23.6153 58.9185 23.6568C58.9386 23.6693 58.9133 23.658 58.8874 23.6105C58.8623 23.5644 58.8606 23.5283 58.8606 23.5251H59.8606H60.8606C60.8606 22.9136 60.5758 22.3317 59.9734 21.9576C59.4434 21.6285 58.7426 21.5061 57.9384 21.5061V22.5061ZM59.8606 23.5251H58.8606C58.8606 24.0748 58.3905 24.5322 57.7834 24.5322V25.5322V26.5322C59.3465 26.5322 60.8606 25.3222 60.8606 23.5251H59.8606ZM57.7834 25.5322V24.5322C57.6741 24.5322 57.5546 24.5261 57.3914 24.518C57.237 24.5103 57.0516 24.5013 56.8533 24.5013V25.5013V26.5013C56.9961 26.5013 57.1362 26.5078 57.2919 26.5155C57.4387 26.5229 57.6137 26.5322 57.7834 26.5322V25.5322ZM56.8533 25.5013H55.8533V25.7792H56.8533H57.8533V25.5013H56.8533ZM69.1742 25.7792H68.1742C68.1742 26.2043 68.251 26.7067 68.5589 27.1248C68.9062 27.5965 69.424 27.7982 69.9493 27.7982V26.7982V25.7982C69.9346 25.7982 69.9677 25.7959 70.0244 25.822C70.0857 25.8503 70.1366 25.8944 70.1694 25.939C70.1983 25.9783 70.1983 25.9973 70.1914 25.9694C70.1842 25.9409 70.1742 25.8805 70.1742 25.7792H69.1742ZM69.9493 26.7982V27.7982C70.6129 27.7982 71.1541 27.507 71.5655 27.1751C71.9703 26.8484 72.3168 26.4283 72.6083 26.0411L71.8095 25.4396L71.0106 24.838C70.7441 25.192 70.517 25.4512 70.3096 25.6186C70.1087 25.7807 69.9988 25.7982 69.9493 25.7982V26.7982ZM71.8095 25.4396L72.6083 26.0411C72.7291 25.8808 72.8048 25.806 72.8534 25.7708C72.8727 25.7568 72.8789 25.7558 72.8735 25.7577C72.8666 25.7602 72.8611 25.7603 72.8636 25.7603V24.7603V23.7603C71.8811 23.7603 71.3079 24.4433 71.0106 24.838L71.8095 25.4396ZM72.8636 24.7603V25.7603C72.8693 25.7603 72.8363 25.7611 72.7819 25.7384C72.7244 25.7145 72.6662 25.6737 72.6194 25.6191C72.5291 25.5137 72.5456 25.4388 72.5456 25.5013H73.5456H74.5456C74.5456 25.1316 74.4536 24.6862 74.1385 24.3182C73.8025 23.9258 73.3321 23.7603 72.8636 23.7603V24.7603ZM73.5456 25.5013H72.5456C72.5456 25.618 72.4888 26.1454 72.3128 26.9202C72.1425 27.6697 71.8769 28.5777 71.4974 29.4477C70.6928 31.2924 69.5988 32.4989 68.2132 32.4989V33.4989V34.4989C70.9199 34.4989 72.4921 32.1697 73.3306 30.2473C73.7727 29.2337 74.0729 28.2002 74.2631 27.3633C74.4474 26.5517 74.5456 25.8478 74.5456 25.5013H73.5456ZM68.2132 33.4989V32.4989C67.7642 32.4989 67.4483 32.4145 67.22 32.2911C66.9988 32.1715 66.8044 31.9856 66.6387 31.6865L65.7639 32.1711L64.8892 32.6556C65.2196 33.252 65.6762 33.73 66.2688 34.0504C66.8544 34.367 67.515 34.4989 68.2132 34.4989V33.4989ZM65.7639 32.1711L64.9563 31.5814C64.4456 32.2808 63.7005 32.5915 62.7257 32.5915V33.5915V34.5915C64.169 34.5915 65.5941 34.0994 66.5716 32.7608L65.7639 32.1711ZM62.7257 33.5915V32.5915C60.9736 32.5915 59.8503 31.1026 59.8503 29.2994H58.8503H57.8503C57.8503 31.8192 59.5174 34.5915 62.7257 34.5915V33.5915ZM58.8503 29.2994H59.8503C59.8503 26.0714 62.2989 24.0619 64.5548 24.0619V23.0619V22.0619C61.1683 22.0619 57.8503 24.9931 57.8503 29.2994H58.8503ZM64.5548 23.0619V24.0619C65.298 24.0619 65.9627 24.2868 66.4011 24.5925L66.9731 23.7722L67.545 22.9518C66.7433 22.3929 65.6719 22.0619 64.5548 22.0619V23.0619ZM66.9731 23.7722L67.5262 24.6052C67.7481 24.4579 68.0538 24.3707 68.2442 24.3707V23.3707V22.3707C67.6284 22.3707 66.9421 22.5923 66.4199 22.9391L66.9731 23.7722ZM68.2442 23.3707V24.3707C68.3867 24.3707 68.4274 24.4112 68.4122 24.3987C68.4034 24.3915 68.3874 24.3747 68.3746 24.3478C68.3616 24.3205 68.3603 24.3002 68.3603 24.2971H69.3603H70.3603C70.3603 23.7159 70.1068 23.2019 69.6805 22.8523C69.27 22.5156 68.7527 22.3707 68.2442 22.3707V23.3707ZM69.3603 24.2971H68.3603C68.3603 24.3827 68.3387 24.5032 68.284 24.798C68.2376 25.0484 68.1742 25.3998 68.1742 25.7792H69.1742H70.1742C70.1742 25.6029 70.2039 25.4139 70.2505 25.1625C70.2889 24.9556 70.3603 24.6129 70.3603 24.2971H69.3603ZM64.8959 28.0951V29.0951C65.6318 29.0951 66.2375 28.7681 66.6347 28.2575C67.0112 27.7733 67.167 27.1731 67.167 26.613H66.167H65.167C65.167 26.8248 65.1057 26.9657 65.056 27.0296C65.0341 27.0577 65.0162 27.0698 65.0029 27.0764C64.9908 27.0824 64.9601 27.0951 64.8959 27.0951V28.0951ZM66.167 26.613H67.167C67.167 26.3692 67.1195 25.9026 66.8492 25.4614C66.5362 24.9506 65.9726 24.5631 65.1749 24.5631V25.5631V26.5631C65.209 26.5631 65.2238 26.5668 65.2239 26.5669C65.2241 26.5669 65.2214 26.5663 65.2166 26.5643C65.2117 26.5624 65.2055 26.5595 65.1985 26.5554C65.1836 26.5469 65.1704 26.5364 65.1599 26.5258C65.1499 26.5157 65.145 26.5082 65.1438 26.5062C65.1427 26.5045 65.1447 26.5075 65.1481 26.5164C65.1515 26.5253 65.1553 26.5373 65.1586 26.5521C65.162 26.5669 65.1642 26.5814 65.1656 26.5941C65.167 26.6071 65.167 26.6142 65.167 26.613H66.167ZM65.1749 25.5631V24.5631C64.4183 24.5631 63.8325 24.951 63.4667 25.4346C63.113 25.9021 62.9348 26.4881 62.9348 27.0453H63.9348H64.9348C64.9348 26.8922 64.9891 26.7371 65.0617 26.6411C65.0945 26.5978 65.1212 26.5792 65.134 26.5721C65.1432 26.5671 65.153 26.5631 65.1749 26.5631V25.5631ZM63.9348 27.0453H62.9348C62.9348 27.474 63.0406 27.9824 63.3799 28.4048C63.7462 28.8608 64.2877 29.0951 64.8959 29.0951V28.0951V27.0951C64.8472 27.0951 64.8448 27.0867 64.8688 27.0975C64.8799 27.1026 64.8933 27.1103 64.907 27.1209C64.9205 27.1315 64.9313 27.1426 64.9392 27.1524C64.9549 27.1719 64.9536 27.1792 64.948 27.1602C64.9422 27.1405 64.9348 27.1025 64.9348 27.0453H63.9348ZM73.5132 29.7008H74.5132C74.5132 29.1351 74.5959 28.4758 74.7311 27.9372L73.7612 27.6937L72.7913 27.4503C72.6164 28.1468 72.5132 28.9696 72.5132 29.7008H73.5132ZM73.7612 27.6937L73.6203 26.7037C73.4849 26.7229 73.3386 26.7246 73.1101 26.7246V27.7246V28.7246C73.3157 28.7246 73.6034 28.7262 73.9021 28.6837L73.7612 27.6937ZM73.1101 27.7246V26.7246C72.5978 26.7246 71.9399 26.2741 71.9399 25.1617H70.9399H69.9399C69.9399 27.1371 71.2663 28.7246 73.1101 28.7246V27.7246ZM70.9399 25.1617H71.9399C71.9399 24.6956 72.0601 24.263 72.224 23.9796C72.4013 23.6732 72.5036 23.7223 72.4281 23.7223V22.7223V21.7223C71.4845 21.7223 70.8427 22.3735 70.4929 22.978C70.1299 23.6055 69.9399 24.3927 69.9399 25.1617H70.9399ZM72.4281 22.7223V23.7223C72.3144 23.7223 72.2279 23.7 72.1807 23.6849C72.1326 23.6695 72.102 23.6541 72.0939 23.6499C72.0826 23.644 72.0946 23.6494 72.1527 23.6894C72.238 23.7483 72.4522 23.9055 72.669 24.0439C73.1469 24.3489 73.834 24.7013 74.7819 24.8523L74.9393 23.8648L75.0967 22.8772C74.4944 22.7813 74.0654 22.5624 73.745 22.3579C73.5627 22.2416 73.4572 22.1595 73.2877 22.0427C73.2184 21.9949 73.1192 21.9284 73.0111 21.8726C72.9205 21.8258 72.7059 21.7223 72.4281 21.7223V22.7223ZM74.9393 23.8648L75.7542 24.4444C76.2042 23.8116 76.5937 23.5061 77.2335 23.5061V22.5061V21.5061C75.6411 21.5061 74.7284 22.4358 74.1244 23.2852L74.9393 23.8648ZM77.2335 22.5061V23.5061C77.7354 23.5061 77.8596 23.6549 77.881 23.6805C77.9322 23.7417 77.9697 23.8527 77.9697 23.9883H78.9697H79.9697C79.9697 23.568 79.8676 22.938 79.415 22.3971C78.9326 21.8206 78.1887 21.5061 77.2335 21.5061V22.5061ZM78.9697 23.9883H77.9697C77.9697 24.1923 77.923 24.413 77.842 24.7516C77.7719 25.0452 77.6596 25.4838 77.6596 25.9336H78.6596H79.6596C79.6596 25.7659 79.7024 25.5715 79.7872 25.2166C79.8613 24.9068 79.9697 24.4636 79.9697 23.9883H78.9697ZM78.6596 25.9336H77.6596C77.6596 26.3063 77.7386 26.7718 78.0448 27.1653C78.3829 27.5998 78.8813 27.7982 79.4037 27.7982V26.7982V25.7982C79.3894 25.7982 79.4205 25.796 79.475 25.8205C79.5331 25.8466 79.5856 25.8887 79.6232 25.9371C79.6404 25.9592 79.6513 25.9784 79.6578 25.9919C79.661 25.9986 79.6631 26.0038 79.6644 26.0073C79.6656 26.0108 79.6662 26.0127 79.6662 26.0127C79.6662 26.0127 79.6657 26.011 79.665 26.0076C79.6644 26.0041 79.6635 25.999 79.6627 25.9922C79.661 25.9785 79.6596 25.9591 79.6596 25.9336H78.6596ZM79.4037 26.7982V27.7982C80.1797 27.7982 80.7749 27.3976 81.164 27.0488C81.5489 26.7038 81.8714 26.2767 82.0387 26.0717L81.2638 25.4396L80.489 24.8075C80.2532 25.0965 80.0642 25.3488 79.8291 25.5596C79.5982 25.7665 79.4647 25.7982 79.4037 25.7982V26.7982ZM81.2638 25.4396L82.0308 26.0813C82.1072 25.99 82.1654 25.9223 82.2189 25.866C82.2714 25.8107 82.3062 25.7807 82.3282 25.7644C82.3481 25.7496 82.351 25.751 82.3397 25.7551C82.3263 25.7599 82.3161 25.7603 82.3179 25.7603V24.7603V23.7603C81.3266 23.7603 80.7679 24.4739 80.4969 24.7979L81.2638 25.4396ZM82.3179 24.7603V25.7603C82.3237 25.7603 82.2907 25.7611 82.2363 25.7384C82.1787 25.7145 82.1205 25.6737 82.0738 25.6191C81.9835 25.5137 82 25.4388 82 25.5013H83H84C84 25.1316 83.908 24.6862 83.5929 24.3182C83.2569 23.9258 82.7865 23.7603 82.3179 23.7603V24.7603ZM83 25.5013H82C82 25.6236 81.9468 26.1611 81.7721 26.9364C81.6021 27.6906 81.3317 28.6036 80.9319 29.4779C80.1049 31.2863 78.9004 32.5915 77.1715 32.5915V33.5915V34.5915C80.124 34.5915 81.8337 32.3148 82.7507 30.3097C83.2228 29.2773 83.5317 28.2256 83.7232 27.3761C83.9098 26.5476 84 25.8423 84 25.5013H83ZM77.1715 33.5915V32.5915C76.358 32.5915 75.7126 32.3101 75.2698 31.8533C74.8264 31.3959 74.5132 30.6865 74.5132 29.7008H73.5132H72.5132C72.5132 31.1237 72.975 32.3595 73.8338 33.2454C74.693 34.1318 75.8768 34.5915 77.1715 34.5915V33.5915ZM50.9594 12.8626L50.9623 13.8626C51.4135 13.8613 51.6571 14.0186 51.8136 14.2179C51.9962 14.4506 52.1362 14.8456 52.1379 15.3995L53.1379 15.3962L54.1379 15.393C54.1352 14.5407 53.9234 13.6667 53.3868 12.983C52.8239 12.2659 51.9804 11.8596 50.9564 11.8626L50.9594 12.8626ZM53.1379 15.3962L52.138 15.4026C52.1432 16.2321 51.8506 17.0474 51.3735 17.6429C50.9004 18.2334 50.2912 18.5605 49.6449 18.5648L49.6516 19.5648L49.6583 20.5648C51.0229 20.5556 52.1636 19.8553 52.9343 18.8934C53.7011 17.9364 54.1461 16.6741 54.1379 15.3899L53.1379 15.3962ZM49.6516 19.5648L49.6516 18.5648C49.3302 18.5648 49.0844 18.4826 48.9568 18.4037L48.4307 19.2541L47.9046 20.1045C48.4033 20.413 49.0289 20.5648 49.6515 20.5648L49.6516 19.5648ZM48.4307 19.2541L47.4307 19.2586C47.4355 20.3292 47.5503 21.0999 47.6709 21.6449C47.7308 21.9155 47.7906 22.1231 47.8309 22.263C47.8527 22.3385 47.8628 22.3738 47.8686 22.3973C47.8785 22.4375 47.8572 22.3704 47.8572 22.265H48.8572H49.8572C49.8572 22.1065 49.8227 21.9681 49.8098 21.916C49.7928 21.8473 49.7701 21.7696 49.7526 21.7089C49.7144 21.5763 49.6693 21.4188 49.6237 21.2128C49.5333 20.8045 49.4349 20.1756 49.4306 19.2495L48.4307 19.2541ZM48.8572 22.265L47.8572 22.2706C47.8568 22.2095 47.8945 22.2986 47.6523 22.4532C47.422 22.6003 47.0398 22.7255 46.5601 22.7255V23.7255V24.7255C47.3606 24.7255 48.1293 24.5216 48.7286 24.1389C49.316 23.7639 49.862 23.1227 49.8571 22.2593L48.8572 22.265ZM46.5601 23.7255L46.556 22.7255C46.2101 22.7269 46.052 22.6318 45.9558 22.5195C45.8339 22.3773 45.6573 22.0259 45.6534 21.2275L44.6534 21.2325L43.6534 21.2374C43.6585 22.278 43.8837 23.1753 44.4372 23.8211C45.0163 24.4967 45.807 24.7286 46.5642 24.7255L46.5601 23.7255ZM44.6534 21.2325L45.6534 21.2273C45.649 20.3867 45.6978 19.1071 45.8086 17.8887L44.8127 17.7981L43.8168 17.7076C43.7006 18.9859 43.6487 20.3295 43.6534 21.2377L44.6534 21.2325ZM44.8127 17.7981L44.1518 17.0477C43.995 17.1858 43.8182 17.2723 43.6369 17.3049L43.8136 18.2891L43.9903 19.2734C44.5623 19.1707 45.0676 18.9061 45.4736 18.5486L44.8127 17.7981ZM43.8136 18.2891L42.9078 17.8654C42.5525 18.6248 41.881 19.0803 41.0771 19.0833L41.0808 20.0833L41.0846 21.0833C42.7318 21.0771 44.0669 20.1077 44.7194 18.7128L43.8136 18.2891ZM41.0808 20.0833L41.075 19.0833C40.5461 19.0864 40.2223 18.9115 40.0271 18.7069C39.822 18.4919 39.6852 18.1655 39.6837 17.7539L38.6837 17.7575L37.6837 17.7611C37.6868 18.6115 37.9745 19.4526 38.5798 20.0872C39.1951 20.7323 40.0674 21.0892 41.0866 21.0833L41.0808 20.0833ZM38.6837 17.7575L39.6837 17.7517C39.6776 16.692 40.5238 15.8112 41.5268 15.8056L41.5211 14.8056L41.5155 13.8056C39.3226 13.818 37.6718 15.686 37.6838 17.7632L38.6837 17.7575ZM41.5211 14.8056L41.521 15.8056C41.6723 15.8056 41.7605 15.8338 41.806 15.8546C41.8509 15.8752 41.8735 15.8974 41.8859 15.9131L42.6697 15.292L43.4534 14.6709C43.0277 14.1338 42.3543 13.8057 41.5212 13.8056L41.5211 14.8056ZM42.6697 15.292L42.9545 16.2506C42.9335 16.2568 42.9096 16.2628 42.8833 16.2676C42.857 16.2725 42.8333 16.2754 42.8133 16.277C42.7944 16.2786 42.781 16.2788 42.7779 16.2789C42.7769 16.2789 42.7767 16.2789 42.7921 16.2789V15.2789V14.2789C42.7513 14.2789 42.5854 14.2738 42.3848 14.3334L42.6697 15.292ZM42.7921 15.2789L42.7971 16.2789C42.9198 16.2783 42.9917 16.2967 43.0278 16.3102C43.0612 16.3227 43.0744 16.3346 43.0809 16.3413C43.0934 16.3541 43.1514 16.4249 43.1653 16.6305L44.163 16.5631L45.1608 16.4957C45.1247 15.9622 44.9466 15.3886 44.5108 14.943C44.061 14.483 43.4506 14.2756 42.7871 14.2789L42.7921 15.2789ZM44.163 16.5631L44.5442 17.4876C44.9819 17.3071 45.3198 17.0416 45.5885 16.6564C45.8232 16.32 45.9879 15.9125 46.1418 15.5074L45.2069 15.1524L44.2721 14.7974C44.1127 15.217 44.0233 15.4044 43.9482 15.512C43.9073 15.5707 43.8798 15.5982 43.7819 15.6386L44.163 16.5631ZM45.2069 15.1524L45.9115 15.862C46.229 15.5468 46.2115 15.1596 46.2115 15.1386H45.2115H44.2115C44.2115 15.1385 44.2115 15.1365 44.2115 15.1339C44.2116 15.1311 44.2116 15.1269 44.2117 15.1217C44.2119 15.1114 44.2123 15.0952 44.2137 15.0752C44.2163 15.0354 44.2229 14.974 44.2413 14.901C44.2827 14.7367 44.3687 14.5754 44.5024 14.4427L45.2069 15.1524ZM45.2115 15.1386L46.1048 15.5882L46.1061 15.5855L45.2128 15.136L44.3196 14.6864L44.3183 14.6891L45.2115 15.1386ZM45.2128 15.136L46.177 15.4013C46.1999 15.3182 46.2216 15.2469 46.2418 15.1868L45.2938 14.8685L44.3458 14.5503C44.3121 14.6507 44.2797 14.7579 44.2487 14.8707L45.2128 15.136ZM45.2938 14.8685L46.2409 15.1895C46.349 14.8705 46.5506 14.5776 46.7867 14.3722C47.0292 14.161 47.2395 14.0979 47.3599 14.0973L47.3545 13.0973L47.3492 12.0973C46.6207 12.1012 45.9663 12.4347 45.4736 12.8636C44.9744 13.2981 44.57 13.8886 44.3467 14.5476L45.2938 14.8685ZM47.3545 13.0973L47.3611 14.0973C47.4296 14.0968 47.4657 14.1072 47.4776 14.1115C47.4885 14.1154 47.4822 14.115 47.4696 14.1031C47.457 14.0912 47.4485 14.0775 47.4443 14.0674C47.4405 14.0582 47.4437 14.0604 47.4439 14.079L48.4438 14.0707L49.4438 14.0625C49.4395 13.5447 49.2467 13.0306 48.8429 12.6491C48.4391 12.2678 47.9046 12.0937 47.348 12.0973L47.3545 13.0973ZM48.4438 14.0707H47.4438C47.4438 14.1473 47.4423 14.1603 47.4397 14.1736L48.4214 14.3638L49.4032 14.5539C49.446 14.3329 49.4438 14.1474 49.4438 14.0707H48.4438ZM48.4214 14.3638L49.2494 14.9245C49.681 14.2872 50.22 13.8682 50.9669 13.8626L50.9594 12.8626L50.9519 11.8626C49.2927 11.8751 48.2242 12.8718 47.5935 13.803L48.4214 14.3638ZM37.6214 1L37.6214 2C40.5835 2.00002 43.0829 2.75322 44.8108 3.91503C46.536 5.07498 47.4346 6.58954 47.4346 8.17551H48.4346H49.4346C49.4346 5.75456 48.0477 3.68138 45.9268 2.25532C43.8086 0.831116 40.9015 1.86286e-05 37.6214 0L37.6214 1ZM48.4346 8.17551L47.4346 8.17547C47.4345 9.88389 46.7561 11.1944 45.6591 12.0965C44.5424 13.0146 42.9288 13.5572 41.0216 13.5572V14.5572V15.5572C43.2908 15.5572 45.3836 14.9122 46.9293 13.6413C48.4947 12.3542 49.4345 10.4739 49.4346 8.17555L48.4346 8.17551ZM41.0216 14.5572L41.0216 13.5572C40.4317 13.5572 39.8132 13.5156 39.1982 13.4097L39.0286 14.3952L38.859 15.3808C39.606 15.5093 40.3403 15.5572 41.0216 15.5572L41.0216 14.5572ZM39.0286 14.3952L38.0571 14.1585C37.694 15.6483 37.1987 16.951 36.4402 17.8707C35.7221 18.7414 34.7347 19.3134 33.209 19.3134L33.209 20.3134L33.2091 21.3134C35.3467 21.3133 36.8946 20.4631 37.9831 19.1432C39.0313 17.8723 39.6142 16.216 40.0002 14.632L39.0286 14.3952ZM33.209 20.3134V19.3134C32.2071 19.3134 31.3362 19.022 30.7343 18.5164C30.1553 18.03 29.7505 17.2857 29.7505 16.1888H28.7505H27.7505C27.7505 17.8413 28.3902 19.1593 29.4479 20.0478C30.4829 20.9172 31.8412 21.3134 33.209 21.3134V20.3134ZM28.7505 16.1888H29.7505V16.1849H28.7505H27.7505V16.1888H28.7505ZM28.7505 16.1849H29.7505C29.7505 15.601 29.9511 14.9883 30.2503 14.5374C30.5768 14.0452 30.8524 13.9708 30.9074 13.9708V12.9708V11.9708C29.8637 11.9708 29.061 12.7123 28.5837 13.4317C28.0791 14.1923 27.7505 15.1866 27.7505 16.1849H28.7505ZM30.9074 12.9708L30.9066 13.9708C30.7257 13.9706 30.6138 13.8965 30.62 13.9004C30.6245 13.9033 30.638 13.9124 30.6791 13.9429C30.7119 13.9673 30.7728 14.0134 30.8349 14.057C31.1332 14.2668 31.5774 14.5069 32.246 14.507L32.2461 13.507L32.2462 12.507C32.1162 12.507 32.068 12.4792 31.9851 12.4209C31.9518 12.3975 31.9244 12.3766 31.8728 12.3382C31.8293 12.3059 31.7623 12.2563 31.6871 12.2089C31.5339 12.1122 31.2661 11.9711 30.9082 11.9708L30.9074 12.9708ZM32.2461 13.507V14.507C32.9025 14.507 33.4799 14.3207 33.9576 13.9537C34.4181 13.6 34.7203 13.1288 34.9329 12.6629C35.3349 11.7816 35.5358 10.6107 35.7388 9.69393C35.963 8.68135 36.2045 7.86474 36.6184 7.29621C36.9739 6.80793 37.4945 6.44847 38.5113 6.44847V5.44847V4.44847C36.8769 4.44847 35.7461 5.09633 35.0015 6.11902C34.3154 7.06147 34.008 8.25948 33.7861 9.26153C33.543 10.3594 33.4005 11.2032 33.1132 11.8328C32.9811 12.1224 32.8523 12.2808 32.7391 12.3677C32.6433 12.4414 32.5045 12.507 32.2461 12.507V13.507ZM38.5113 5.44847L38.5113 6.44847C39.0224 6.44849 39.4947 6.55444 39.8076 6.69001C39.9665 6.75888 40.0395 6.81604 40.0563 6.83199C40.081 6.85555 39.9492 6.7443 39.9492 6.49864H40.9492H41.9492C41.9492 5.98482 41.671 5.60821 41.4365 5.38459C41.194 5.15337 40.895 4.98151 40.6028 4.85489C40.0133 4.59947 39.2667 4.4485 38.5113 4.44847L38.5113 5.44847ZM40.9492 6.49864L39.9492 6.49845C39.9492 6.42131 39.9725 6.31543 40.0223 6.22475C40.0355 6.20069 40.0437 6.19116 40.0253 6.21686C40.0201 6.22418 39.9691 6.29412 39.9393 6.33664C39.7585 6.59468 39.5461 6.96322 39.3182 7.65474L40.268 7.9677L41.2177 8.28066C41.3893 7.76004 41.5174 7.56975 41.5774 7.48415C41.5808 7.4792 41.7083 7.30953 41.7755 7.1872C41.8906 6.97752 41.9491 6.75167 41.9492 6.49884L40.9492 6.49864ZM40.268 7.9677L39.3195 7.65084C38.9823 8.66029 38.7775 10.0717 38.554 11.4645L39.5413 11.623L40.5287 11.7815C40.7682 10.2898 40.9454 9.09594 41.2164 8.28456L40.268 7.9677ZM39.5413 11.623L39.6769 12.6137C42.0766 12.2855 44.0822 10.5746 44.0823 8.0582L43.0823 8.05816L42.0823 8.05812C42.0823 9.31869 41.0917 10.4016 39.4058 10.6322L39.5413 11.623ZM43.0823 8.05816H44.0823C44.0823 6.66814 43.4574 5.54532 42.4374 4.80154C41.4489 4.08067 40.1441 3.74967 38.7654 3.74967L38.7654 4.74967L38.7653 5.74967C39.8517 5.74967 40.7053 6.01372 41.259 6.4175C41.7813 6.79836 42.0823 7.32979 42.0823 8.05816H43.0823ZM38.7654 4.74967V3.74967C36.763 3.74967 35.1593 4.39527 34.0499 5.46385C32.9465 6.52667 32.3947 7.94981 32.3946 9.38297L33.3946 9.383L34.3946 9.38304C34.3947 8.46347 34.7464 7.56994 35.4374 6.90428C36.1225 6.24438 37.2041 5.74967 38.7654 5.74967V4.74967ZM33.3946 9.383H32.3946C32.3946 9.64018 32.4174 9.86414 32.4638 10.0669C32.5117 10.2769 32.5784 10.4354 32.6389 10.5577C32.7652 10.8136 32.6763 10.6443 32.6763 10.546L33.6763 10.5459L34.6763 10.5458C34.6763 10.0555 34.4465 9.70135 34.4321 9.67207C34.4221 9.65187 34.4184 9.64271 34.4135 9.62149C34.4071 9.59314 34.3946 9.52243 34.3946 9.383H33.3946ZM33.6763 10.5459H32.6763C32.6763 10.419 32.7386 10.5718 32.2888 10.8229C31.902 11.0388 31.3276 11.2005 30.6981 11.2005V12.2005V13.2005C31.6393 13.2005 32.554 12.9653 33.2637 12.5692C33.9103 12.2082 34.6763 11.5337 34.6763 10.5459H33.6763ZM30.6981 12.2005L30.6981 11.2005C29.1193 11.2004 27.8531 10.0239 27.853 8.42782L26.853 8.42789L25.853 8.42795C25.8532 11.2125 28.1007 13.2004 30.698 13.2005L30.6981 12.2005ZM26.853 8.42789H27.853C27.853 6.0788 29.148 4.51334 31.0663 3.48194C33.0212 2.43083 35.5365 2 37.6214 2V1V0C35.321 0 32.4521 0.466085 30.1192 1.72041C27.7496 2.99444 25.853 5.14292 25.853 8.42789H26.853ZM41.6659 16.0806L41.6522 15.0807C40.6078 15.095 40.0486 16.0486 40.0486 16.8247H41.0486H42.0486C42.0486 16.8504 42.0407 16.8923 42.0005 16.941C41.9595 16.9905 41.8526 17.0782 41.6796 17.0805L41.6659 16.0806ZM41.0486 16.8247L40.0487 16.8396C40.0532 17.1427 40.1328 17.5314 40.4166 17.8572C40.723 18.2091 41.1455 18.3485 41.5478 18.3431L41.5343 17.3432L41.5208 16.3433C41.5506 16.3429 41.6148 16.3471 41.6962 16.3801C41.7808 16.4143 41.8609 16.4704 41.9247 16.5437C41.9864 16.6145 42.0178 16.6837 42.033 16.7312C42.0477 16.7772 42.0484 16.806 42.0485 16.8098L41.0486 16.8247ZM41.5343 17.3432V18.3432C41.679 18.3432 42.0351 18.3333 42.3657 18.1209L41.8252 17.2796L41.2847 16.4383C41.3862 16.3731 41.4709 16.3538 41.4996 16.3483C41.5317 16.3421 41.5459 16.3432 41.5343 16.3432V17.3432ZM41.8252 17.2796L42.7648 16.9374C42.7232 16.8231 42.6982 16.6911 42.6982 16.5768L41.6982 16.5769L40.6982 16.577C40.6982 16.9492 40.773 17.3126 40.8856 17.6218L41.8252 17.2796ZM41.6982 16.5769H42.6982C42.6982 16.5476 42.7053 16.5023 42.7222 16.4584L41.789 16.099L40.8558 15.7396C40.7547 16.0022 40.6982 16.2906 40.6982 16.5769H41.6982ZM41.789 16.099L42.1581 15.1696C41.9237 15.0765 41.7266 15.0806 41.6659 15.0806V16.0806V17.0806C41.6968 17.0806 41.6574 17.0818 41.6081 17.0759C41.5426 17.068 41.4781 17.0515 41.4199 17.0284L41.789 16.099ZM49.9056 14.8056L49.8944 13.8057C49.3268 13.812 48.8838 14.1078 48.5891 14.4201C48.2916 14.7352 48.0739 15.1353 47.9253 15.5492L48.8664 15.8872L49.8075 16.2253C49.8903 15.9947 49.9835 15.8564 50.0434 15.793C50.106 15.7267 50.0669 15.8039 49.9169 15.8055L49.9056 14.8056ZM48.8664 15.8872L48.0931 16.5213C48.4345 16.9377 48.9686 17.198 49.4976 17.198V16.198V15.198C49.5314 15.198 49.5549 15.2023 49.5678 15.2055C49.5812 15.2088 49.5896 15.2123 49.5947 15.2148C49.6016 15.2181 49.6181 15.2269 49.6397 15.2532L48.8664 15.8872ZM49.4976 16.198L49.4979 17.198C50.0439 17.1978 50.5014 16.9241 50.7985 16.6123C51.1023 16.2936 51.342 15.8297 51.342 15.292H50.342H49.342C49.342 15.2579 49.3497 15.2376 49.3521 15.2321C49.3542 15.2272 49.3542 15.2289 49.3508 15.2324C49.3471 15.2363 49.3497 15.2317 49.366 15.2238C49.3819 15.216 49.4264 15.198 49.4972 15.198L49.4976 16.198ZM50.342 15.292L51.3418 15.2737C51.3366 14.9876 51.2569 14.6354 51.0153 14.3317C50.7493 13.9973 50.3503 13.8056 49.9056 13.8056V14.8056V15.8056C49.8444 15.8056 49.7596 15.7927 49.6677 15.749C49.5759 15.7053 49.5027 15.6428 49.4501 15.5767C49.3518 15.4531 49.3428 15.3442 49.3422 15.3103L50.342 15.292Z" fill="#16070E" mask="url(#path-1-outside-1_214870_198)"/>
</g>
<defs>
<filter id="filter0_dd_214870_198" x="0" y="0" width="90" height="43" filterUnits="userSpaceOnUse" color-interpolation-filters="sRGB">
<feFlood flood-opacity="0" result="BackgroundImageFix"/>
<feColorMatrix in="SourceAlpha" type="matrix" values="0 0 0 0 0 0 0 0 0 0 0 0 0 0 0 0 0 0 127 0" result="hardAlpha"/>
<feOffset dx="3" dy="3"/>
<feComposite in2="hardAlpha" operator="out"/>
<feColorMatrix type="matrix" values="0 0 0 0 0.0862745 0 0 0 0 0.027451 0 0 0 0 0.054902 0 0 0 1 0"/>
<feBlend mode="normal" in2="BackgroundImageFix" result="effect1_dropShadow_214870_198"/>
<feColorMatrix in="SourceAlpha" type="matrix" values="0 0 0 0 0 0 0 0 0 0 0 0 0 0 0 0 0 0 127 0" result="hardAlpha"/>
<feOffset dx="6" dy="6"/>
<feComposite in2="hardAlpha" operator="out"/>
<feColorMatrix type="matrix" values="0 0 0 0 0 0 0 0 0 0 0 0 0 0 0 0 0 0 0.15 0"/>
<feBlend mode="normal" in2="effect1_dropShadow_214870_198" result="effect2_dropShadow_214870_198"/>
<feBlend mode="normal" in="SourceGraphic" in2="effect2_dropShadow_214870_198" result="shape"/>
</filter>
</defs>
</svg>
