<?xml version="1.0" encoding="UTF-8"?>
<svg id="Layer_1" data-name="Layer 1" xmlns="http://www.w3.org/2000/svg" viewBox="0 0 170 221">
  <defs>
    <style>
      .cls-1 {
        fill: #694118;
      }
    </style>
  </defs>
  <path class="cls-1" d="M136.29,91.1c2.37,1.08,3.24,4.08,1.71,6.19-6.73,9.34-19.19,13-29.89,8.11-10.7-4.89-16.09-16.7-13.44-27.9.6-2.54,3.43-3.84,5.81-2.76l35.81,16.36Z"/>
  <path class="cls-1" d="M33.51,66.52c-4.79.11-8.63-4.09-7.8-8.75,3.65-20.58,21.31-36.42,42.92-36.92,21.62-.5,40,14.51,44.59,34.9,1.04,4.62-2.6,8.99-7.39,9.1l-72.33,1.67Z"/>
  <path class="cls-1" d="M70.45,73.44c2.75-1.47,6.21-.02,6.99,3,2.77,10.74-1.9,22.3-11.96,27.67-10.06,5.38-22.27,2.84-29.66-5.44-2.08-2.33-1.37-6.01,1.39-7.48l33.24-17.76Z"/>
  <circle class="cls-1" cx="68.83" cy="67.12" r="39.62"/>
  <circle class="cls-1" cx="100.25" cy="73.59" r="39.62"/>
  <path class="cls-1" d="M131.12,40.52c0,51.81-19.89,93.82-44.43,93.82s-44.44-42.01-44.44-93.82h88.88Z"/>
</svg>