<?xml version="1.0" encoding="UTF-8"?>
<svg id="Layer_1" data-name="Layer 1" xmlns="http://www.w3.org/2000/svg" viewBox="0 0 238 238">
  <defs>
    <style>
      .cls-1 {
        fill: #694118;
      }
    </style>
  </defs>
  <path class="cls-1" d="M103.96,194.38l-23.24.72c-2,.06-3.69-3.15-3.71-7.03-.16-32.37,5.51-57.74,13.34-57.98,7.83-.24,15.05,24.73,16.88,57.05.22,3.87-1.27,7.18-3.27,7.24Z"/>
  <ellipse class="cls-1" cx="82.06" cy="72.1" rx="29.67" ry="12.21" transform="translate(-3.92 139.49) rotate(-79.39)"/>
  <ellipse class="cls-1" cx="85.18" cy="115.79" rx="14.11" ry="57.51" transform="translate(-16.09 13.77) rotate(-8.45)"/>
  <path class="cls-1" d="M163.92,58c0,42.65-19.89,77.22-44.43,77.22s-44.44-34.58-44.44-77.22h88.88Z"/>
  <path class="cls-1" d="M90.07,30.9l17.05-1.84c1.47-.16,2.75.76,2.81,2,.5,10.39-3.36,18.94-9.1,19.56s-11.34-6.9-13.07-17.16c-.21-1.23.85-2.4,2.32-2.55Z"/>
  <ellipse class="cls-1" cx="119.48" cy="59.3" rx="44.44" ry="16.12"/>
</svg>