<?xml version="1.0" encoding="UTF-8"?>
<svg id="Layer_1" data-name="Layer 1" xmlns="http://www.w3.org/2000/svg" viewBox="0 0 238 238">
  <defs>
    <style>
      .cls-1 {
        fill: #694118;
      }
    </style>
  </defs>
  <ellipse class="cls-1" cx="159.09" cy="46.25" rx="17.96" ry="17.58" transform="translate(-4.26 73.93) rotate(-25.83)"/>
  <ellipse class="cls-1" cx="78.91" cy="48.89" rx="17.96" ry="17.58" transform="translate(-13.42 39.26) rotate(-25.83)"/>
  <path class="cls-1" d="M132.9,79.72h-29.99c-2.59,0-4.64-2-4.51-4.38,1.08-19.87,9.4-35.34,19.5-35.34s18.43,15.47,19.5,35.34c.13,2.38-1.92,4.38-4.51,4.38Z"/>
  <path class="cls-1" d="M169,70.25l-14.7,15.54c-1.27,1.34-3.73,1.03-5.39-.68-13.91-14.21-21.07-29.15-16.12-34.39,4.95-5.24,20.27,1.08,35.23,14.17,1.79,1.57,2.24,4.01.98,5.35Z"/>
  <path class="cls-1" d="M66.38,70.25l14.7,15.54c1.27,1.34,3.73,1.03,5.39-.68,13.91-14.21,21.07-29.15,16.12-34.39-4.95-5.24-20.27,1.08-35.23,14.17-1.79,1.57-2.24,4.01-.98,5.35Z"/>
</svg>