<?xml version="1.0" encoding="UTF-8"?>
<svg id="Layer_1" data-name="Layer 1" xmlns="http://www.w3.org/2000/svg" viewBox="0 0 170 221">
  <defs>
    <style>
      .cls-1 {
        fill: #6d421a;
      }
    </style>
  </defs>
  <path class="cls-1" d="M133.68,41.21c.43,1.09.59,2.32.4,3.61-.35,2.34-1.93,4.39-4.13,5.28-1.79.72-3.65.66-5.2.04-7.53,5.11-23.07,8.62-41.01,8.62-25.32,0-45.85-6.99-45.85-15.61s20.53-15.61,45.85-15.61c8.34,0,16.16.76,22.89,2.08,6.27,1.23,12.66.67,18.81-1.03.96-.26,2-.33,3.08-.14,2.82.49,5.09,2.79,5.54,5.62.22,1.35.05,2.63-.42,3.76s-.39,2.29.03,3.37Z"/>
  <path class="cls-1" d="M129.21,52.95s.03-6.19,2.95-9.4c2.92-3.22-9.15-1.27-9.15-1.27l6.2,10.68Z"/>
  <path class="cls-1" d="M38.23,44.98c1.19,2.8,2.67,7.58,3.15,12.27s2.09-11.74,2.09-11.74l-5.24-.53Z"/>
  <ellipse class="cls-1" cx="78.12" cy="44.29" rx="11.75" ry="39" transform="translate(25.42 117) rotate(-83.62)"/>
  <path class="cls-1" d="M93.47,26.68c.17-1.48,2.5-2.4,5-1.95,9.73,1.76,16.76,5.27,16.4,8.49s-8,5.09-17.87,4.65c-2.54-.11-4.61-1.53-4.45-3.01l.92-8.19Z"/>
  <path class="cls-1" d="M128.81,34.17c.36,1.45-1.79,3.19-4.6,3.7-10.94,2.01-19.66,1.37-20.44-1.77-.77-3.14,6.65-7.76,17.27-11.07,2.73-.85,5.44-.31,5.79,1.14l1.97,8Z"/>
  <path class="cls-1" d="M117.57,55.02c.14,1.48-4.09,3.06-9.06,3.35-19.33,1.13-34.01-.22-34.31-3.45-.3-3.22,13.87-7.26,33.08-9.72,4.94-.63,9.38.13,9.52,1.62l.76,8.2Z"/>
  <path class="cls-1" d="M92.06,59.7c-.17,1.48-4.62,2.16-9.55,1.44-19.16-2.82-33.25-7.12-32.89-10.33.36-3.22,15.05-4.3,34.36-2.81,4.96.38,9.16,2.03,8.99,3.52l-.92,8.19Z"/>
  <path class="cls-1" d="M136.19,38.63c1.53.67,1.97,2.94.92,4.86-4.08,7.47-9.39,12.07-12.72,10.62-3.32-1.45-3.56-8.48-.86-16.55.7-2.07,2.66-3.3,4.19-2.63l8.45,3.69Z"/>
  <path class="cls-1" d="M122.44,35.3c-1.2-1.3-.91-3.47.64-4.63,6.04-4.49,12.34-5.93,14.95-3.1,2.61,2.83.68,8.99-4.28,14.65-1.28,1.46-3.46,1.57-4.66.27l-6.64-7.2Z"/>
  <path class="cls-1" d="M50.23,31.64c-.21-1.35,4.17-3.13,9.39-3.78,20.3-2.53,35.8-2.42,36.26.53.46,2.94-14.28,7.75-34.39,11.49-5.17.96-9.88.6-10.09-.75l-1.16-7.49Z"/>
  <path class="cls-1" d="M38.4,45.49c1.19,2.8,2.56,7.51,3.04,12.2l2.09-11.74"/>
</svg>