<?xml version="1.0" encoding="UTF-8"?>
<svg id="Layer_1" data-name="Layer 1" xmlns="http://www.w3.org/2000/svg" viewBox="0 0 170 221">
  <defs>
    <style>
      .cls-1 {
        fill: #694118;
      }
    </style>
  </defs>
  <ellipse class="cls-1" cx="71.95" cy="44.93" rx="37.34" ry="15.48" transform="translate(-12.35 35.52) rotate(-25.62)"/>
  <path class="cls-1" d="M92.25,43.01l23.31-20.3c15.75,18.09,23.3,37.3,16.87,42.91s-24.43-4.52-40.18-22.6Z"/>
  <path class="cls-1" d="M78.4,61.15l-9.35-15.7c-.81-1.35-.25-3.14,1.21-3.91,12.17-6.49,23.98-7.62,27.13-2.33,3.15,5.29-3.47,15.13-14.97,22.75-1.38.91-3.21.55-4.02-.8Z"/>
  <path class="cls-1" d="M113.84,40.95l-5.84,17.31c-.5,1.49-2.22,2.23-3.76,1.63-12.85-5.03-21.38-13.26-19.42-19.09s13.75-7.21,27.02-3.42c1.59.45,2.51,2.08,2,3.57Z"/>
</svg>