<?xml version="1.0" encoding="UTF-8"?>
<svg id="Layer_1" data-name="Layer 1" xmlns="http://www.w3.org/2000/svg" viewBox="0 0 170 221">
  <defs>
    <style>
      .cls-1 {
        fill: #6d421a;
      }
    </style>
  </defs>
  <path class="cls-1" d="M99.23,27.46c-5.18-8.87-23.58-7.78-41.09,2.45-17.51,10.22-14.45,19.71-13.76,38.81,11.47,8.4,26.37-1.63,31.44-7.63,13.1-15.48,28.59-24.75,23.41-33.63Z"/>
  <path class="cls-1" d="M55.55,41.97c27.71-12.2,53.35-14.89,57.26-6.01,3.75,8.51-13.8,24.54-39.63,36.6-1.89.88-4.15.04-4.99-1.87l-12.64-28.72Z"/>
  <path class="cls-1" d="M120.1,60.79c-2.04,3.39-5.88,4.77-8.32,2.97-9.12-6.75-14.17-14.73-11.56-19.05,2.45-4.05,10.86-3.66,20.32.46,3.8,1.65,4.7,7.1,1.91,11.72l-2.36,3.91Z"/>
  <path class="cls-1" d="M119.19,58.8c-3.94-.43-6.8-3.32-6.19-6.29,2.28-11.12,7.38-19.06,12.41-18.51,4.71.51,7.89,8.31,8.15,18.62.1,4.15-4.46,7.25-9.82,6.67l-4.54-.49Z"/>
  <path class="cls-1" d="M45.95,19.35c27.75-13.93,57.08-9.92,66.77,9.69,0,0-28.02,7.17-56.79,23.36l-11.7-26.75c-1.08-2.46-.31-5.28,1.73-6.3Z"/>
  <path class="cls-1" d="M132.5,24.56c-20.24-8.55-42.05-1.65-49.65,16.2,0,0,20.59,2.77,41.54,13.11l9.25-24.16c.85-2.22.35-4.53-1.14-5.16Z"/>
  <path class="cls-1" d="M129.16,69.72c-20.27-15.72-34.34-29.65-30.6-34.46,3.74-4.81,9.28,4.21,29.55,19.93l1.06,14.53Z"/>
  <path class="cls-1" d="M94.01,29.5c10.11-10.87,26.98-11.63,37.67-1.68,10.69,9.95,11.15,26.82,1.04,37.69l-38.71-36.01Z"/>
</svg>