<?xml version="1.0" encoding="UTF-8"?>
<svg id="Layer_1" data-name="Layer 1" xmlns="http://www.w3.org/2000/svg" viewBox="0 0 170 221">
  <defs>
    <style>
      .cls-1 {
        fill: #694118;
      }
    </style>
  </defs>
  <ellipse class="cls-1" cx="68.51" cy="45.33" rx="30.95" ry="11.62" transform="translate(-13.51 40.73) rotate(-30.28)"/>
  <path class="cls-1" d="M59.64,34.17c24.77-4.07,46.05-.09,47.53,8.89,1.41,8.6-15.85,18.67-39.07,23.08-1.7.32-3.37-1-3.69-2.93l-4.77-29.04Z"/>
  <path class="cls-1" d="M54.85,24.55c30.2-6.8,57.74,1.58,62.55,19.53,0,0-28.88,1.14-60.6,9.63l-5.1-24.23c-.47-2.23.93-4.44,3.15-4.94Z"/>
  <path class="cls-1" d="M41.07,46.58c-2.48-.77-3.7-3.58-2.56-5.91,4.91-10.09,14.42-15.88,22.86-13.27,9.65,2.99,14.24,15.82,10.27,28.65l-30.57-9.47Z"/>
  <path class="cls-1" d="M127.94,76.3c-20.27-15.72-33.67-32.37-29.94-37.19,3.74-4.81,9.28,4.21,29.55,19.93l.39,17.26Z"/>
  <path class="cls-1" d="M97.38,42.11c7.19-8.65,19.5-10.28,27.51-3.63s8.66,19.06,1.47,27.71l-28.98-24.08Z"/>
  <path class="cls-1" d="M115.54,57.28c-3.81-10.31-3.07-20.09,1.66-21.83,4.37-1.61,10.61,4.21,14.54,13.26.53,1.22-.09,2.63-1.34,3.09l-14.86,5.48Z"/>
  <path class="cls-1" d="M115.44,50.87c-6.83-4.82-10.02-12.06-7.12-16.17,2.66-3.77,9.51-3.61,15.89.15.96.57,1.22,1.85.58,2.76l-9.35,13.26Z"/>
</svg>