<svg width="94" height="94" viewBox="0 0 94 94" fill="none" xmlns="http://www.w3.org/2000/svg">
<g filter="url(#filter0_dd_214864_120)">
<mask id="path-1-outside-1_214864_120" maskUnits="userSpaceOnUse" x="9" y="24" width="77" height="48" fill="black">
<rect fill="white" x="9" y="24" width="77" height="48"/>
<path d="M22.4962 64.094C17.8502 64.094 13.7562 61.38 13.7562 55.952C13.7562 52.824 15.8262 49.604 17.9882 49.604C18.6782 49.604 19.0462 50.662 20.6102 50.662C27.7862 50.662 22.4962 34.746 32.8922 34.746C35.3762 34.746 37.6762 35.758 37.6762 36.816C37.6762 37.506 37.1242 37.322 36.3422 39.714C35.7442 41.508 35.3762 44.084 34.9162 46.936C38.9182 46.384 41.8622 43.624 41.8622 39.898C41.8622 35.712 38.2282 33.366 33.3982 33.366C26.4062 33.366 22.8642 37.874 22.8642 42.52C22.8642 44.084 23.4162 44.038 23.4162 44.82C23.4162 46.522 20.6562 48.086 17.5742 48.086C13.4802 48.086 10.0302 44.958 10.0302 40.634C10.0302 29.502 22.5422 25.96 31.1442 25.96C43.3802 25.96 52.3502 32.216 52.3502 40.128C52.3502 48.04 46.0022 52.732 37.8142 52.732C36.5722 52.732 35.2382 52.64 33.9042 52.41C32.4322 58.482 29.6722 64.094 22.4962 64.094ZM68.9232 48.5C68.9232 51.674 66.8992 54.664 63.7252 55.216C62.2072 58.436 59.2172 60.552 55.5832 60.552C50.9832 60.552 48.4992 57.332 48.4992 53.56C48.4992 48.868 52.2252 44.774 56.9632 44.774C58.6192 44.774 59.7232 45.418 60.3672 46.246C60.5052 46.2 60.5972 46.2 60.7352 46.2C63.4032 46.2 64.6452 47.856 64.7832 50.064C66.4852 49.374 66.5312 47.35 68.0492 47.35C68.5092 47.35 68.9232 47.81 68.9232 48.5ZM56.9632 52.364C57.2852 52.364 57.6072 52.318 57.8372 52.18C57.6072 51.536 57.4692 50.8 57.4692 50.064C57.4692 49.604 57.5612 49.098 57.7452 48.638C57.6072 48.592 57.5152 48.592 57.3772 48.592C56.3652 48.592 55.5372 49.604 55.5372 50.8C55.5372 51.72 55.9972 52.364 56.9632 52.364ZM76.2192 60.276C75.1152 60.276 74.1032 60 73.3672 59.54C73.3672 64.232 74.3332 66.118 74.3332 66.624C74.3332 68.51 71.9412 70.028 68.9512 70.028C66.3752 70.028 64.5352 68.464 64.5352 64.14C64.5352 60.184 65.0412 52.364 66.0992 49.19C66.8812 46.89 68.9512 45.05 70.9292 45.05C72.5392 45.05 73.4592 46.062 73.4592 47.35C73.4592 47.534 73.4592 47.764 73.4132 48.04C74.6552 46.2 76.5412 44.544 79.3472 44.544C82.7972 44.544 84.4072 47.212 84.4072 50.524C84.4072 55.492 80.9112 60.276 76.2192 60.276ZM76.8632 49.098C75.8972 49.098 74.9772 50.11 74.4252 51.628C74.7932 52.088 75.3912 52.364 75.8972 52.364C76.8632 52.364 77.8752 51.352 77.8752 50.248C77.8752 49.65 77.5532 49.098 76.8632 49.098Z"/>
</mask>
<path d="M22.4962 64.094C17.8502 64.094 13.7562 61.38 13.7562 55.952C13.7562 52.824 15.8262 49.604 17.9882 49.604C18.6782 49.604 19.0462 50.662 20.6102 50.662C27.7862 50.662 22.4962 34.746 32.8922 34.746C35.3762 34.746 37.6762 35.758 37.6762 36.816C37.6762 37.506 37.1242 37.322 36.3422 39.714C35.7442 41.508 35.3762 44.084 34.9162 46.936C38.9182 46.384 41.8622 43.624 41.8622 39.898C41.8622 35.712 38.2282 33.366 33.3982 33.366C26.4062 33.366 22.8642 37.874 22.8642 42.52C22.8642 44.084 23.4162 44.038 23.4162 44.82C23.4162 46.522 20.6562 48.086 17.5742 48.086C13.4802 48.086 10.0302 44.958 10.0302 40.634C10.0302 29.502 22.5422 25.96 31.1442 25.96C43.3802 25.96 52.3502 32.216 52.3502 40.128C52.3502 48.04 46.0022 52.732 37.8142 52.732C36.5722 52.732 35.2382 52.64 33.9042 52.41C32.4322 58.482 29.6722 64.094 22.4962 64.094ZM68.9232 48.5C68.9232 51.674 66.8992 54.664 63.7252 55.216C62.2072 58.436 59.2172 60.552 55.5832 60.552C50.9832 60.552 48.4992 57.332 48.4992 53.56C48.4992 48.868 52.2252 44.774 56.9632 44.774C58.6192 44.774 59.7232 45.418 60.3672 46.246C60.5052 46.2 60.5972 46.2 60.7352 46.2C63.4032 46.2 64.6452 47.856 64.7832 50.064C66.4852 49.374 66.5312 47.35 68.0492 47.35C68.5092 47.35 68.9232 47.81 68.9232 48.5ZM56.9632 52.364C57.2852 52.364 57.6072 52.318 57.8372 52.18C57.6072 51.536 57.4692 50.8 57.4692 50.064C57.4692 49.604 57.5612 49.098 57.7452 48.638C57.6072 48.592 57.5152 48.592 57.3772 48.592C56.3652 48.592 55.5372 49.604 55.5372 50.8C55.5372 51.72 55.9972 52.364 56.9632 52.364ZM76.2192 60.276C75.1152 60.276 74.1032 60 73.3672 59.54C73.3672 64.232 74.3332 66.118 74.3332 66.624C74.3332 68.51 71.9412 70.028 68.9512 70.028C66.3752 70.028 64.5352 68.464 64.5352 64.14C64.5352 60.184 65.0412 52.364 66.0992 49.19C66.8812 46.89 68.9512 45.05 70.9292 45.05C72.5392 45.05 73.4592 46.062 73.4592 47.35C73.4592 47.534 73.4592 47.764 73.4132 48.04C74.6552 46.2 76.5412 44.544 79.3472 44.544C82.7972 44.544 84.4072 47.212 84.4072 50.524C84.4072 55.492 80.9112 60.276 76.2192 60.276ZM76.8632 49.098C75.8972 49.098 74.9772 50.11 74.4252 51.628C74.7932 52.088 75.3912 52.364 75.8972 52.364C76.8632 52.364 77.8752 51.352 77.8752 50.248C77.8752 49.65 77.5532 49.098 76.8632 49.098Z" fill="#FAEFF4"/>
<path d="M36.3422 39.714L37.2909 40.0302L37.2927 40.0247L36.3422 39.714ZM34.9162 46.936L33.929 46.7768L33.7137 48.1113L35.0529 47.9266L34.9162 46.936ZM33.9042 52.41L34.0741 51.4245L33.1527 51.2657L32.9324 52.1744L33.9042 52.41ZM22.4962 64.094V63.094C20.3578 63.094 18.4175 62.4688 17.0298 61.295C15.6643 60.14 14.7562 58.3908 14.7562 55.952H13.7562H12.7562C12.7562 58.9412 13.8951 61.263 15.7382 62.822C17.559 64.3622 19.9887 65.094 22.4962 65.094V64.094ZM13.7562 55.952H14.7562C14.7562 54.5929 15.2111 53.1958 15.8966 52.1551C16.6095 51.0726 17.4039 50.604 17.9882 50.604V49.604V48.604C16.4106 48.604 15.0889 49.7454 14.2264 51.0549C13.3363 52.4062 12.7562 54.1831 12.7562 55.952H13.7562ZM17.9882 49.604V50.604C17.8882 50.604 17.8491 50.5601 17.9324 50.6131C17.9752 50.6403 18.0274 50.6779 18.1091 50.7391C18.1826 50.7941 18.2859 50.8729 18.3938 50.9493C18.875 51.2898 19.5569 51.662 20.6102 51.662V50.662V49.662C20.0995 49.662 19.8155 49.5052 19.5491 49.3167C19.4702 49.2609 19.4003 49.2074 19.3083 49.1384C19.2245 49.0757 19.1189 48.9975 19.0057 48.9255C18.7771 48.7801 18.4333 48.604 17.9882 48.604V49.604ZM20.6102 50.662V51.662C21.7079 51.662 22.6304 51.352 23.3838 50.769C24.1196 50.1997 24.6282 49.4212 25.0057 48.5876C25.7381 46.9702 26.1032 44.818 26.5204 42.9185C26.9587 40.9234 27.4638 39.124 28.407 37.8185C29.2918 36.594 30.6051 35.746 32.8922 35.746V34.746V33.746C29.9814 33.746 28.0574 34.8875 26.7859 36.6472C25.5729 38.326 25.0028 40.5055 24.567 42.4895C24.1102 44.569 23.8026 46.3958 23.1838 47.7626C22.8856 48.4211 22.549 48.8861 22.1599 49.1872C21.7885 49.4747 21.3065 49.662 20.6102 49.662V50.662ZM32.8922 34.746V35.746C34.0116 35.746 35.0699 35.9763 35.8168 36.3012C36.1927 36.4648 36.4447 36.6328 36.5864 36.7685C36.7357 36.9115 36.6762 36.9295 36.6762 36.816H37.6762H38.6762C38.6762 36.1735 38.3292 35.6683 37.9697 35.324C37.6025 34.9723 37.1243 34.689 36.6147 34.4673C35.5905 34.0217 34.2569 33.746 32.8922 33.746V34.746ZM37.6762 36.816H36.6762C36.6762 36.8341 36.6746 36.8227 36.6815 36.7952C36.6848 36.7822 36.6889 36.77 36.6932 36.7596C36.6973 36.7494 36.7003 36.7439 36.7001 36.7443C36.6699 36.7995 36.6557 36.8051 36.4813 37.0561C36.1856 37.4816 35.8105 38.1225 35.3917 39.4033L36.3422 39.714L37.2927 40.0247C37.656 38.9135 37.9479 38.4504 38.1237 38.1974C38.2717 37.9844 38.6762 37.5518 38.6762 36.816H37.6762ZM36.3422 39.714L35.3935 39.3978C34.7625 41.2908 34.3802 43.9794 33.929 46.7768L34.9162 46.936L35.9035 47.0952C36.3723 44.1886 36.7259 41.7252 37.2909 40.0302L36.3422 39.714ZM34.9162 46.936L35.0529 47.9266C39.4161 47.3248 42.8622 44.2474 42.8622 39.898H41.8622H40.8622C40.8622 43.0006 38.4203 45.4432 34.7796 45.9454L34.9162 46.936ZM41.8622 39.898H42.8622C42.8622 37.477 41.7943 35.5484 40.0331 34.256C38.3031 32.9865 35.9606 32.366 33.3982 32.366V33.366V34.366C35.6659 34.366 37.5553 34.9185 38.8498 35.8685C40.1132 36.7956 40.8622 38.133 40.8622 39.898H41.8622ZM33.3982 33.366V32.366C29.6795 32.366 26.784 33.5699 24.8128 35.4832C22.848 37.3901 21.8642 39.9426 21.8642 42.52H22.8642H23.8642C23.8642 40.4514 24.6514 38.4269 26.2057 36.9183C27.7534 35.4161 30.125 34.366 33.3982 34.366V33.366ZM22.8642 42.52H21.8642C21.8642 43.4484 22.0345 43.9791 22.2422 44.4031C22.4331 44.7929 22.4162 44.7201 22.4162 44.82H23.4162H24.4162C24.4162 44.1379 24.1234 43.6971 24.0383 43.5234C23.97 43.3839 23.8642 43.1556 23.8642 42.52H22.8642ZM23.4162 44.82H22.4162C22.4162 45.1171 22.1355 45.6723 21.1614 46.2193C20.2481 46.7321 18.9586 47.086 17.5742 47.086V48.086V49.086C19.2718 49.086 20.9033 48.6579 22.1406 47.9632C23.3169 47.3027 24.4162 46.2249 24.4162 44.82H23.4162ZM17.5742 48.086V47.086C13.996 47.086 11.0302 44.3699 11.0302 40.634H10.0302H9.03023C9.03023 45.5461 12.9645 49.086 17.5742 49.086V48.086ZM10.0302 40.634H11.0302C11.0302 35.5319 13.862 32.1555 17.8378 30.0018C21.8513 27.8276 26.9519 26.96 31.1442 26.96V25.96V24.96C26.7346 24.96 21.2782 25.8634 16.8852 28.2432C12.4544 30.6434 9.03023 34.6041 9.03023 40.634H10.0302ZM31.1442 25.96V26.96C37.1018 26.96 42.1986 28.4844 45.7752 30.9051C49.3488 33.3238 51.3502 36.5866 51.3502 40.128H52.3502H53.3502C53.3502 35.7574 50.8667 31.9362 46.8962 29.2489C42.9289 26.5636 37.4226 24.96 31.1442 24.96V25.96ZM52.3502 40.128H51.3502C51.3502 43.7916 49.8918 46.6583 47.5149 48.6268C45.1189 50.6112 41.7254 51.732 37.8142 51.732V52.732V53.732C42.091 53.732 45.9656 52.5068 48.7906 50.1672C51.6346 47.8117 53.3502 44.3764 53.3502 40.128H52.3502ZM37.8142 52.732V51.732C36.62 51.732 35.3437 51.6434 34.0741 51.4245L33.9042 52.41L33.7343 53.3955C35.1328 53.6366 36.5244 53.732 37.8142 53.732V52.732ZM33.9042 52.41L32.9324 52.1744C32.2076 55.164 31.1929 57.9087 29.5656 59.8953C27.9788 61.8325 25.7755 63.094 22.4962 63.094V64.094V65.094C26.393 65.094 29.1577 63.5495 31.1128 61.1627C33.0275 58.8252 34.1288 55.728 34.8761 52.6456L33.9042 52.41ZM63.7252 55.216L63.5538 54.2308L63.0421 54.3198L62.8206 54.7896L63.7252 55.216ZM60.3672 46.246L59.5778 46.8599L60.0122 47.4184L60.6834 47.1947L60.3672 46.246ZM64.7832 50.064L63.7851 50.1264L63.8717 51.5125L65.1589 50.9907L64.7832 50.064ZM57.8372 52.18L58.3517 53.0375L59.0546 52.6157L58.7789 51.8437L57.8372 52.18ZM57.7452 48.638L58.6736 49.0094L59.0675 48.0247L58.0614 47.6893L57.7452 48.638ZM68.9232 48.5H67.9232C67.9232 51.2953 66.1502 53.7792 63.5538 54.2308L63.7252 55.216L63.8965 56.2012C67.6481 55.5488 69.9232 52.0527 69.9232 48.5H68.9232ZM63.7252 55.216L62.8206 54.7896C61.4507 57.6955 58.7917 59.552 55.5832 59.552V60.552V61.552C59.6426 61.552 62.9636 59.1765 64.6297 55.6424L63.7252 55.216ZM55.5832 60.552V59.552C53.5303 59.552 52.0337 58.841 51.0459 57.7868C50.0477 56.7214 49.4992 55.2297 49.4992 53.56H48.4992H47.4992C47.4992 55.6623 48.1927 57.6666 49.5864 59.1542C50.9907 60.653 53.036 61.552 55.5832 61.552V60.552ZM48.4992 53.56H49.4992C49.4992 49.3677 52.8286 45.774 56.9632 45.774V44.774V43.774C51.6217 43.774 47.4992 48.3683 47.4992 53.56H48.4992ZM56.9632 44.774V45.774C58.3347 45.774 59.1376 46.294 59.5778 46.8599L60.3672 46.246L61.1565 45.6321C60.3087 44.542 58.9036 43.774 56.9632 43.774V44.774ZM60.3672 46.246L60.6834 47.1947C60.6857 47.1939 60.6817 47.1953 60.673 47.1972C60.664 47.1991 60.6558 47.2003 60.6507 47.2008C60.6467 47.2012 60.6487 47.2008 60.6627 47.2004C60.6697 47.2003 60.6786 47.2001 60.691 47.2001C60.7037 47.2 60.7173 47.2 60.7352 47.2V46.2V45.2C60.5879 45.2 60.3545 45.1961 60.0509 45.2973L60.3672 46.246ZM60.7352 46.2V47.2C61.8517 47.2 62.5483 47.5392 62.9859 47.9959C63.4387 48.4683 63.7262 49.184 63.7851 50.1264L64.7832 50.064L65.7812 50.0016C65.7021 48.736 65.2997 47.5197 64.4299 46.6121C63.545 45.6888 62.2867 45.2 60.7352 45.2V46.2ZM64.7832 50.064L65.1589 50.9907C66.331 50.5156 66.9264 49.5625 67.3048 49.0212C67.7438 48.3931 67.8639 48.35 68.0492 48.35V47.35V46.35C66.7164 46.35 66.0545 47.3189 65.6656 47.8753C65.216 48.5185 64.9373 48.9224 64.4075 49.1373L64.7832 50.064ZM68.0492 47.35V48.35C67.9946 48.35 67.9491 48.3358 67.9179 48.3196C67.8879 48.304 67.8768 48.2897 67.8778 48.2909C67.8796 48.2932 67.9232 48.3526 67.9232 48.5H68.9232H69.9232C69.9232 47.4775 69.2581 46.35 68.0492 46.35V47.35ZM56.9632 52.364V53.364C57.3395 53.364 57.8849 53.3175 58.3517 53.0375L57.8372 52.18L57.3227 51.3225C57.3376 51.3135 57.3198 51.3275 57.2458 51.3417C57.1749 51.3554 57.0799 51.364 56.9632 51.364V52.364ZM57.8372 52.18L58.7789 51.8437C58.5856 51.3023 58.4692 50.6799 58.4692 50.064H57.4692H56.4692C56.4692 50.9201 56.6287 51.7697 56.8954 52.5163L57.8372 52.18ZM57.4692 50.064H58.4692C58.4692 49.7284 58.5379 49.3487 58.6736 49.0094L57.7452 48.638L56.8167 48.2666C56.5844 48.8473 56.4692 49.4796 56.4692 50.064H57.4692ZM57.7452 48.638L58.0614 47.6893C57.7578 47.5881 57.5244 47.592 57.3772 47.592V48.592V49.592C57.395 49.592 57.4086 49.592 57.4213 49.5921C57.4337 49.5921 57.4427 49.5923 57.4497 49.5924C57.4636 49.5928 57.4657 49.5932 57.4617 49.5928C57.4565 49.5923 57.4484 49.5911 57.4393 49.5892C57.4306 49.5873 57.4266 49.5859 57.4289 49.5867L57.7452 48.638ZM57.3772 48.592V47.592C55.6451 47.592 54.5372 49.236 54.5372 50.8H55.5372H56.5372C56.5372 49.972 57.0852 49.592 57.3772 49.592V48.592ZM55.5372 50.8H54.5372C54.5372 51.4129 54.6896 52.0638 55.1275 52.5765C55.5865 53.1138 56.243 53.364 56.9632 53.364V52.364V51.364C56.8327 51.364 56.7569 51.3424 56.7182 51.3263C56.6827 51.3114 56.6635 51.2953 56.6483 51.2775C56.6147 51.2382 56.5372 51.1071 56.5372 50.8H55.5372ZM73.3672 59.54L73.8972 58.692L72.3672 57.7358V59.54H73.3672ZM66.0992 49.19L65.1524 48.8681L65.1505 48.8738L66.0992 49.19ZM73.4132 48.04L72.4268 47.8756L74.242 48.5995L73.4132 48.04ZM74.4252 51.628L73.4854 51.2863L73.2935 51.8141L73.6443 52.2527L74.4252 51.628ZM76.2192 60.276V59.276C75.2692 59.276 74.4481 59.0363 73.8972 58.692L73.3672 59.54L72.8372 60.388C73.7583 60.9637 74.9612 61.276 76.2192 61.276V60.276ZM73.3672 59.54H72.3672C72.3672 61.9578 72.6164 63.6729 72.8726 64.8623C73.0003 65.4551 73.1282 65.9099 73.2198 66.2348C73.2671 66.4027 73.2987 66.5152 73.3197 66.602C73.3445 66.7044 73.3332 66.6892 73.3332 66.624H74.3332H75.3332C75.3332 66.4323 75.2917 66.2474 75.2636 66.1316C75.2318 66 75.188 65.8455 75.1448 65.6922C75.0552 65.3745 74.9416 64.9697 74.8278 64.4412C74.601 63.3881 74.3672 61.8142 74.3672 59.54H73.3672ZM74.3332 66.624H73.3332C73.3332 67.1069 73.0262 67.6833 72.2285 68.1884C71.4414 68.6867 70.2882 69.028 68.9512 69.028V70.028V71.028C70.6042 71.028 72.142 70.6103 73.2984 69.8781C74.4442 69.1527 75.3332 68.0271 75.3332 66.624H74.3332ZM68.9512 70.028V69.028C67.8727 69.028 67.086 68.7092 66.5431 68.0625C65.9732 67.3837 65.5352 66.1831 65.5352 64.14H64.5352H63.5352C63.5352 66.4209 64.0172 68.1643 65.0113 69.3485C66.0324 70.5648 67.4537 71.028 68.9512 71.028V70.028ZM64.5352 64.14H65.5352C65.5352 62.1954 65.66 59.2817 65.9163 56.4623C66.1754 53.6127 66.5598 50.9706 67.0479 49.5062L66.0992 49.19L65.1505 48.8738C64.5806 50.5834 64.183 53.4383 63.9246 56.2812C63.6634 59.1543 63.5352 62.1286 63.5352 64.14H64.5352ZM66.0992 49.19L67.046 49.5119C67.3791 48.5321 67.9903 47.6461 68.7206 47.0132C69.4578 46.3743 70.2463 46.05 70.9292 46.05V45.05V44.05C69.6341 44.05 68.3986 44.6457 67.4108 45.5018C66.4161 46.3639 65.6013 47.5479 65.1524 48.8681L66.0992 49.19ZM70.9292 45.05V46.05C71.5208 46.05 71.8904 46.2319 72.1054 46.4384C72.3206 46.6449 72.4592 46.9498 72.4592 47.35H73.4592H74.4592C74.4592 46.4622 74.1378 45.6171 73.4905 44.9956C72.843 44.3741 71.9476 44.05 70.9292 44.05V45.05ZM73.4592 47.35H72.4592C72.4592 47.5311 72.458 47.6885 72.4268 47.8756L73.4132 48.04L74.3996 48.2044C74.4604 47.8395 74.4592 47.5369 74.4592 47.35H73.4592ZM73.4132 48.04L74.242 48.5995C75.3845 46.907 77.0027 45.544 79.3472 45.544V44.544V43.544C76.0797 43.544 73.9259 45.493 72.5843 47.4805L73.4132 48.04ZM79.3472 44.544V45.544C80.783 45.544 81.747 46.0832 82.3791 46.9027C83.0382 47.7573 83.4072 49.0137 83.4072 50.524H84.4072H85.4072C85.4072 48.7222 84.9712 46.9887 83.9628 45.6813C82.9273 44.3388 81.3614 43.544 79.3472 43.544V44.544ZM84.4072 50.524H83.4072C83.4072 52.7832 82.6091 54.9995 81.2933 56.6365C79.9814 58.2687 78.202 59.276 76.2192 59.276V60.276V61.276C78.9284 61.276 81.243 59.8913 82.8521 57.8895C84.4573 55.8925 85.4072 53.2328 85.4072 50.524H84.4072ZM76.8632 49.098V48.098C76.014 48.098 75.2977 48.542 74.7632 49.1057C74.2248 49.6737 73.7944 50.4364 73.4854 51.2863L74.4252 51.628L75.365 51.9697C75.608 51.3016 75.9136 50.7993 76.2147 50.4818C76.5197 50.16 76.7464 50.098 76.8632 50.098V49.098ZM74.4252 51.628L73.6443 52.2527C74.1959 52.9421 75.0776 53.364 75.8972 53.364V52.364V51.364C75.7048 51.364 75.3905 51.2339 75.2061 51.0033L74.4252 51.628ZM75.8972 52.364V53.364C76.7194 53.364 77.4601 52.9458 77.9713 52.411C78.4891 51.8693 78.8752 51.1026 78.8752 50.248H77.8752H76.8752C76.8752 50.4974 76.7553 50.7887 76.5256 51.029C76.2893 51.2762 76.041 51.364 75.8972 51.364V52.364ZM77.8752 50.248H78.8752C78.8752 49.7842 78.7521 49.262 78.415 48.8319C78.0539 48.3711 77.5076 48.098 76.8632 48.098V49.098V50.098C76.8997 50.098 76.8993 50.1045 76.8795 50.095C76.8597 50.0855 76.846 50.0722 76.8409 50.0656C76.8376 50.0615 76.8467 50.0715 76.8567 50.1048C76.8668 50.1382 76.8752 50.1867 76.8752 50.248H77.8752Z" fill="#16070E" mask="url(#path-1-outside-1_214864_120)"/>
</g>
<defs>
<filter id="filter0_dd_214864_120" x="9.03027" y="24.96" width="82.377" height="52.068" filterUnits="userSpaceOnUse" color-interpolation-filters="sRGB">
<feFlood flood-opacity="0" result="BackgroundImageFix"/>
<feColorMatrix in="SourceAlpha" type="matrix" values="0 0 0 0 0 0 0 0 0 0 0 0 0 0 0 0 0 0 127 0" result="hardAlpha"/>
<feOffset dx="3" dy="3"/>
<feComposite in2="hardAlpha" operator="out"/>
<feColorMatrix type="matrix" values="0 0 0 0 0.0862745 0 0 0 0 0.027451 0 0 0 0 0.054902 0 0 0 1 0"/>
<feBlend mode="normal" in2="BackgroundImageFix" result="effect1_dropShadow_214864_120"/>
<feColorMatrix in="SourceAlpha" type="matrix" values="0 0 0 0 0 0 0 0 0 0 0 0 0 0 0 0 0 0 127 0" result="hardAlpha"/>
<feOffset dx="6" dy="6"/>
<feComposite in2="hardAlpha" operator="out"/>
<feColorMatrix type="matrix" values="0 0 0 0 0 0 0 0 0 0 0 0 0 0 0 0 0 0 0.15 0"/>
<feBlend mode="normal" in2="effect1_dropShadow_214864_120" result="effect2_dropShadow_214864_120"/>
<feBlend mode="normal" in="SourceGraphic" in2="effect2_dropShadow_214864_120" result="shape"/>
</filter>
</defs>
</svg>
