<svg width="305" height="78" viewBox="0 0 305 78" fill="none" xmlns="http://www.w3.org/2000/svg">
<g filter="url(#filter0_dd_214870_161)">
<mask id="path-1-outside-1_214870_161" maskUnits="userSpaceOnUse" x="30" y="28" width="251" height="42" fill="black">
<rect fill="white" x="30" y="28" width="251" height="42"/>
<path d="M71.9959 48.268C71.9959 49.372 70.1559 52.178 68.1779 52.546C68.5919 53.742 69.2819 54.432 70.4319 54.432C71.9499 54.432 72.7319 53.512 73.6059 52.408C74.1579 51.718 74.5719 51.396 75.2159 51.396C75.9059 51.396 76.1819 51.856 76.1819 53.006C76.1819 59.768 70.0179 68.14 62.0139 68.14C56.7699 68.14 53.7339 63.954 53.7339 59.032C53.7339 56.226 54.4239 53.098 55.4819 50.108C54.8839 50.108 54.3319 50.062 53.7799 50.062L52.5379 54.708C51.1579 59.676 48.3979 66.116 40.3479 66.116C35.7019 66.116 31.9299 62.712 31.9299 58.158C31.9299 50.292 39.6579 46.612 49.7319 45.508C52.9519 38.608 58.0119 29.96 65.6479 29.96C68.8679 29.96 70.9379 31.248 70.9379 33.364C70.9379 33.962 70.5699 34.284 70.2939 35.158C69.4659 37.826 68.4079 42.012 67.9479 45.784C70.7999 46.336 71.9959 47.348 71.9959 48.268ZM55.5279 45.14C56.0339 45.14 56.5399 45.094 57.0919 45.094H57.5979C58.8399 42.518 60.1739 40.218 61.2319 38.608C59.4379 38.608 57.8739 40.448 56.3559 43.346C56.0339 43.944 55.7579 44.542 55.5279 45.14ZM42.7399 54.938C44.7639 54.938 46.2819 52.73 47.4319 50.476C42.6479 51.304 41.4519 53.098 41.4519 53.88C41.4519 54.294 41.6819 54.938 42.7399 54.938ZM80.5059 56.502C80.8279 56.502 81.1039 56.318 81.3339 55.996C80.8739 55.168 80.6439 54.202 80.6439 53.236C80.6439 50.476 82.5299 48.866 84.2779 48.866C86.6699 48.866 88.0039 50.476 88.0039 53.236C88.0039 53.512 87.9579 53.788 87.9579 54.064C89.7059 53.42 89.7519 51.35 91.2699 51.35C91.7299 51.35 92.1439 51.81 92.1439 52.5C92.1439 55.766 90.0739 58.434 86.8079 58.802C85.5199 61.792 83.0359 64.552 78.7119 64.552C74.3419 64.552 72.1339 60.136 72.1339 56.042C72.1339 52.408 73.8359 49.05 77.2399 49.05C79.1259 49.05 80.3679 49.97 80.3679 51.028C80.3679 51.212 80.3219 51.35 80.2759 51.534C79.9539 52.316 79.6779 53.742 79.6779 54.846C79.6779 55.766 79.8619 56.502 80.5059 56.502ZM103.12 52.914C103.12 53.88 103.488 54.432 104.27 54.432C105.328 54.432 106.202 53.512 107.03 52.408C107.444 51.856 107.904 51.396 108.594 51.396C109.284 51.396 109.606 51.856 109.606 52.5C109.606 53.88 107.766 64.414 101.694 64.414C99.9919 64.414 98.7959 63.77 98.0599 62.436C96.9559 63.954 95.3459 64.552 93.5519 64.552C89.8719 64.552 87.8019 61.378 87.8019 58.158C87.8019 52.546 92.0799 48.866 96.2659 48.866C97.6459 48.866 98.9339 49.28 99.8539 49.924C100.406 49.556 101.142 49.326 101.74 49.326C102.706 49.326 103.396 49.878 103.396 50.706C103.396 51.304 103.12 52.086 103.12 52.914ZM96.7719 56.364C98.0139 56.364 98.6579 55.306 98.6579 54.156C98.6579 53.742 98.4739 52.592 97.1859 52.592C96.0359 52.592 95.3459 53.742 95.3459 54.8C95.3459 55.628 95.7599 56.364 96.7719 56.364ZM114.802 52.914C114.802 53.88 115.216 54.662 116.32 54.662C117.884 54.662 119.034 53.144 119.632 52.408C120.092 51.856 120.506 51.396 121.196 51.396C121.886 51.396 122.208 51.856 122.208 52.5C122.208 53.88 120.598 64.552 113.376 64.552C109.696 64.552 107.35 61.332 107.35 56.778C107.35 55.674 107.396 54.294 107.488 52.822C105.786 52.822 105.556 52.316 105.556 51.396C105.556 50.752 106.2 49.878 107.948 49.188C108.776 44.818 110.524 40.678 114.296 40.678C116.09 40.678 117.24 41.69 117.24 42.656C117.24 42.886 117.102 43.346 116.918 43.944L115.722 48.038H116.412C118.574 48.038 119.264 48.728 119.264 49.556C119.264 51.304 117.792 52.546 116.182 52.546C115.768 52.546 115.308 52.5 114.802 52.5V52.914ZM133.083 52.914C133.083 53.88 133.451 54.432 134.233 54.432C135.291 54.432 136.165 53.512 136.993 52.408C137.407 51.856 137.867 51.396 138.557 51.396C139.247 51.396 139.569 51.856 139.569 52.5C139.569 53.88 137.729 64.414 131.657 64.414C129.955 64.414 128.759 63.77 128.023 62.436C126.919 63.954 125.309 64.552 123.515 64.552C119.835 64.552 117.765 61.378 117.765 58.158C117.765 52.546 122.043 48.866 126.229 48.866C127.609 48.866 128.897 49.28 129.817 49.924C130.369 49.556 131.105 49.326 131.703 49.326C132.669 49.326 133.359 49.878 133.359 50.706C133.359 51.304 133.083 52.086 133.083 52.914ZM126.735 56.364C127.977 56.364 128.621 55.306 128.621 54.156C128.621 53.742 128.437 52.592 127.149 52.592C125.999 52.592 125.309 53.742 125.309 54.8C125.309 55.628 125.723 56.364 126.735 56.364ZM139.521 58.756C139.521 57.79 139.659 56.686 139.889 55.766C139.567 55.812 139.245 55.812 138.923 55.812C137.175 55.812 135.703 54.294 135.703 51.994C135.703 50.154 136.623 48.36 137.911 48.36C138.325 48.36 139.337 49.694 141.637 50.062C142.419 48.958 143.385 48.038 145.041 48.038C147.203 48.038 147.617 49.418 147.617 50.246C147.617 51.258 147.157 52.224 147.157 53.144C147.157 53.88 147.479 54.432 148.261 54.432C149.503 54.432 150.423 53.144 151.021 52.408C151.481 51.856 151.895 51.396 152.585 51.396C153.275 51.396 153.597 51.856 153.597 52.5C153.597 53.88 151.895 64.552 144.949 64.552C141.821 64.552 139.521 62.344 139.521 58.756ZM180.185 58.02C184.647 58.02 187.913 55.858 189.937 53.144C190.903 51.856 191.271 51.12 192.145 51.12C192.789 51.12 193.157 51.948 193.157 53.006C193.157 58.71 185.245 68.14 174.435 68.14C163.855 68.14 158.243 60.596 158.243 51.534C158.243 40.724 166.569 29.96 178.529 29.96C185.981 29.96 190.765 33.87 190.765 39.666C190.765 44.542 187.453 48.498 182.623 48.498C178.943 48.498 177.701 46.244 177.701 44.956C177.701 43.852 179.909 43.024 179.909 40.034C179.909 38.7 179.311 37.642 178.023 37.642C174.987 37.642 171.767 43.162 171.767 48.268C171.767 53.512 174.205 58.02 180.185 58.02ZM193.068 58.756C193.068 57.79 193.206 56.686 193.436 55.766C193.114 55.812 192.792 55.812 192.47 55.812C190.722 55.812 189.25 54.294 189.25 51.994C189.25 50.154 190.17 48.36 191.458 48.36C191.872 48.36 192.884 49.694 195.184 50.062C195.966 48.958 196.932 48.038 198.588 48.038C200.75 48.038 201.164 49.418 201.164 50.246C201.164 51.258 200.704 52.224 200.704 53.144C200.704 53.88 201.026 54.432 201.808 54.432C203.05 54.432 203.97 53.144 204.568 52.408C205.028 51.856 205.442 51.396 206.132 51.396C206.822 51.396 207.144 51.856 207.144 52.5C207.144 53.88 205.442 64.552 198.496 64.552C195.368 64.552 193.068 62.344 193.068 58.756ZM212.005 57.1C215.593 57.1 216.973 54.156 218.123 52.408C218.583 51.718 219.135 51.35 219.733 51.35C220.193 51.35 220.607 51.81 220.607 52.5C220.607 57.284 216.835 64.552 209.613 64.552C205.013 64.552 202.667 61.332 202.667 57.56C202.667 52.868 206.255 48.314 211.361 48.314C214.489 48.314 216.513 49.97 216.513 52.408C216.513 55.122 213.937 56.502 211.591 56.502C210.993 56.502 210.395 56.41 209.889 56.226C210.303 56.824 211.131 57.1 212.005 57.1ZM211.499 52.592C211.039 52.592 210.027 53.144 209.751 54.156C209.935 54.202 210.119 54.202 210.303 54.202C211.407 54.202 212.005 53.466 212.005 53.006C212.005 52.776 211.821 52.592 211.499 52.592ZM231.507 52.914C231.507 53.88 231.875 54.432 232.657 54.432C233.715 54.432 234.589 53.512 235.417 52.408C235.831 51.856 236.291 51.396 236.981 51.396C237.671 51.396 237.993 51.856 237.993 52.5C237.993 53.88 236.153 64.414 230.081 64.414C228.379 64.414 227.183 63.77 226.447 62.436C225.343 63.954 223.733 64.552 221.939 64.552C218.259 64.552 216.189 61.378 216.189 58.158C216.189 52.546 220.467 48.866 224.653 48.866C226.033 48.866 227.321 49.28 228.241 49.924C228.793 49.556 229.529 49.326 230.127 49.326C231.093 49.326 231.783 49.878 231.783 50.706C231.783 51.304 231.507 52.086 231.507 52.914ZM225.159 56.364C226.401 56.364 227.045 55.306 227.045 54.156C227.045 53.742 226.861 52.592 225.573 52.592C224.423 52.592 223.733 53.742 223.733 54.8C223.733 55.628 224.147 56.364 225.159 56.364ZM243.188 52.914C243.188 53.88 243.602 54.662 244.706 54.662C246.27 54.662 247.42 53.144 248.018 52.408C248.478 51.856 248.892 51.396 249.582 51.396C250.272 51.396 250.594 51.856 250.594 52.5C250.594 53.88 248.984 64.552 241.762 64.552C238.082 64.552 235.736 61.332 235.736 56.778C235.736 55.674 235.782 54.294 235.874 52.822C234.172 52.822 233.942 52.316 233.942 51.396C233.942 50.752 234.586 49.878 236.334 49.188C237.162 44.818 238.91 40.678 242.682 40.678C244.476 40.678 245.626 41.69 245.626 42.656C245.626 42.886 245.488 43.346 245.304 43.944L244.108 48.038H244.798C246.96 48.038 247.65 48.728 247.65 49.556C247.65 51.304 246.178 52.546 244.568 52.546C244.154 52.546 243.694 52.5 243.188 52.5V52.914ZM254.616 48.774C256.088 48.774 257.146 49.28 257.836 49.97C257.974 49.924 258.112 49.924 258.296 49.924C261.102 49.924 262.436 52.73 262.436 55.076C262.436 60.872 258.48 64.552 253.236 64.552C248.636 64.552 246.152 61.332 246.152 57.56C246.152 52.868 249.878 48.774 254.616 48.774ZM254.616 56.364C255.858 56.364 256.502 55.306 256.502 54.156C256.502 53.742 256.318 52.592 255.03 52.592C253.88 52.592 253.19 53.742 253.19 54.8C253.19 55.628 253.604 56.364 254.616 56.364ZM264.943 58.756C264.943 57.79 265.081 56.686 265.311 55.766C264.989 55.812 264.667 55.812 264.345 55.812C262.597 55.812 261.125 54.294 261.125 51.994C261.125 50.154 262.045 48.36 263.333 48.36C263.747 48.36 264.759 49.694 267.059 50.062C267.841 48.958 268.807 48.038 270.463 48.038C272.625 48.038 273.039 49.418 273.039 50.246C273.039 51.258 272.579 52.224 272.579 53.144C272.579 53.88 272.901 54.432 273.683 54.432C274.925 54.432 275.845 53.144 276.443 52.408C276.903 51.856 277.317 51.396 278.007 51.396C278.697 51.396 279.019 51.856 279.019 52.5C279.019 53.88 277.317 64.552 270.371 64.552C267.243 64.552 264.943 62.344 264.943 58.756Z"/>
</mask>
<path d="M71.9959 48.268C71.9959 49.372 70.1559 52.178 68.1779 52.546C68.5919 53.742 69.2819 54.432 70.4319 54.432C71.9499 54.432 72.7319 53.512 73.6059 52.408C74.1579 51.718 74.5719 51.396 75.2159 51.396C75.9059 51.396 76.1819 51.856 76.1819 53.006C76.1819 59.768 70.0179 68.14 62.0139 68.14C56.7699 68.14 53.7339 63.954 53.7339 59.032C53.7339 56.226 54.4239 53.098 55.4819 50.108C54.8839 50.108 54.3319 50.062 53.7799 50.062L52.5379 54.708C51.1579 59.676 48.3979 66.116 40.3479 66.116C35.7019 66.116 31.9299 62.712 31.9299 58.158C31.9299 50.292 39.6579 46.612 49.7319 45.508C52.9519 38.608 58.0119 29.96 65.6479 29.96C68.8679 29.96 70.9379 31.248 70.9379 33.364C70.9379 33.962 70.5699 34.284 70.2939 35.158C69.4659 37.826 68.4079 42.012 67.9479 45.784C70.7999 46.336 71.9959 47.348 71.9959 48.268ZM55.5279 45.14C56.0339 45.14 56.5399 45.094 57.0919 45.094H57.5979C58.8399 42.518 60.1739 40.218 61.2319 38.608C59.4379 38.608 57.8739 40.448 56.3559 43.346C56.0339 43.944 55.7579 44.542 55.5279 45.14ZM42.7399 54.938C44.7639 54.938 46.2819 52.73 47.4319 50.476C42.6479 51.304 41.4519 53.098 41.4519 53.88C41.4519 54.294 41.6819 54.938 42.7399 54.938ZM80.5059 56.502C80.8279 56.502 81.1039 56.318 81.3339 55.996C80.8739 55.168 80.6439 54.202 80.6439 53.236C80.6439 50.476 82.5299 48.866 84.2779 48.866C86.6699 48.866 88.0039 50.476 88.0039 53.236C88.0039 53.512 87.9579 53.788 87.9579 54.064C89.7059 53.42 89.7519 51.35 91.2699 51.35C91.7299 51.35 92.1439 51.81 92.1439 52.5C92.1439 55.766 90.0739 58.434 86.8079 58.802C85.5199 61.792 83.0359 64.552 78.7119 64.552C74.3419 64.552 72.1339 60.136 72.1339 56.042C72.1339 52.408 73.8359 49.05 77.2399 49.05C79.1259 49.05 80.3679 49.97 80.3679 51.028C80.3679 51.212 80.3219 51.35 80.2759 51.534C79.9539 52.316 79.6779 53.742 79.6779 54.846C79.6779 55.766 79.8619 56.502 80.5059 56.502ZM103.12 52.914C103.12 53.88 103.488 54.432 104.27 54.432C105.328 54.432 106.202 53.512 107.03 52.408C107.444 51.856 107.904 51.396 108.594 51.396C109.284 51.396 109.606 51.856 109.606 52.5C109.606 53.88 107.766 64.414 101.694 64.414C99.9919 64.414 98.7959 63.77 98.0599 62.436C96.9559 63.954 95.3459 64.552 93.5519 64.552C89.8719 64.552 87.8019 61.378 87.8019 58.158C87.8019 52.546 92.0799 48.866 96.2659 48.866C97.6459 48.866 98.9339 49.28 99.8539 49.924C100.406 49.556 101.142 49.326 101.74 49.326C102.706 49.326 103.396 49.878 103.396 50.706C103.396 51.304 103.12 52.086 103.12 52.914ZM96.7719 56.364C98.0139 56.364 98.6579 55.306 98.6579 54.156C98.6579 53.742 98.4739 52.592 97.1859 52.592C96.0359 52.592 95.3459 53.742 95.3459 54.8C95.3459 55.628 95.7599 56.364 96.7719 56.364ZM114.802 52.914C114.802 53.88 115.216 54.662 116.32 54.662C117.884 54.662 119.034 53.144 119.632 52.408C120.092 51.856 120.506 51.396 121.196 51.396C121.886 51.396 122.208 51.856 122.208 52.5C122.208 53.88 120.598 64.552 113.376 64.552C109.696 64.552 107.35 61.332 107.35 56.778C107.35 55.674 107.396 54.294 107.488 52.822C105.786 52.822 105.556 52.316 105.556 51.396C105.556 50.752 106.2 49.878 107.948 49.188C108.776 44.818 110.524 40.678 114.296 40.678C116.09 40.678 117.24 41.69 117.24 42.656C117.24 42.886 117.102 43.346 116.918 43.944L115.722 48.038H116.412C118.574 48.038 119.264 48.728 119.264 49.556C119.264 51.304 117.792 52.546 116.182 52.546C115.768 52.546 115.308 52.5 114.802 52.5V52.914ZM133.083 52.914C133.083 53.88 133.451 54.432 134.233 54.432C135.291 54.432 136.165 53.512 136.993 52.408C137.407 51.856 137.867 51.396 138.557 51.396C139.247 51.396 139.569 51.856 139.569 52.5C139.569 53.88 137.729 64.414 131.657 64.414C129.955 64.414 128.759 63.77 128.023 62.436C126.919 63.954 125.309 64.552 123.515 64.552C119.835 64.552 117.765 61.378 117.765 58.158C117.765 52.546 122.043 48.866 126.229 48.866C127.609 48.866 128.897 49.28 129.817 49.924C130.369 49.556 131.105 49.326 131.703 49.326C132.669 49.326 133.359 49.878 133.359 50.706C133.359 51.304 133.083 52.086 133.083 52.914ZM126.735 56.364C127.977 56.364 128.621 55.306 128.621 54.156C128.621 53.742 128.437 52.592 127.149 52.592C125.999 52.592 125.309 53.742 125.309 54.8C125.309 55.628 125.723 56.364 126.735 56.364ZM139.521 58.756C139.521 57.79 139.659 56.686 139.889 55.766C139.567 55.812 139.245 55.812 138.923 55.812C137.175 55.812 135.703 54.294 135.703 51.994C135.703 50.154 136.623 48.36 137.911 48.36C138.325 48.36 139.337 49.694 141.637 50.062C142.419 48.958 143.385 48.038 145.041 48.038C147.203 48.038 147.617 49.418 147.617 50.246C147.617 51.258 147.157 52.224 147.157 53.144C147.157 53.88 147.479 54.432 148.261 54.432C149.503 54.432 150.423 53.144 151.021 52.408C151.481 51.856 151.895 51.396 152.585 51.396C153.275 51.396 153.597 51.856 153.597 52.5C153.597 53.88 151.895 64.552 144.949 64.552C141.821 64.552 139.521 62.344 139.521 58.756ZM180.185 58.02C184.647 58.02 187.913 55.858 189.937 53.144C190.903 51.856 191.271 51.12 192.145 51.12C192.789 51.12 193.157 51.948 193.157 53.006C193.157 58.71 185.245 68.14 174.435 68.14C163.855 68.14 158.243 60.596 158.243 51.534C158.243 40.724 166.569 29.96 178.529 29.96C185.981 29.96 190.765 33.87 190.765 39.666C190.765 44.542 187.453 48.498 182.623 48.498C178.943 48.498 177.701 46.244 177.701 44.956C177.701 43.852 179.909 43.024 179.909 40.034C179.909 38.7 179.311 37.642 178.023 37.642C174.987 37.642 171.767 43.162 171.767 48.268C171.767 53.512 174.205 58.02 180.185 58.02ZM193.068 58.756C193.068 57.79 193.206 56.686 193.436 55.766C193.114 55.812 192.792 55.812 192.47 55.812C190.722 55.812 189.25 54.294 189.25 51.994C189.25 50.154 190.17 48.36 191.458 48.36C191.872 48.36 192.884 49.694 195.184 50.062C195.966 48.958 196.932 48.038 198.588 48.038C200.75 48.038 201.164 49.418 201.164 50.246C201.164 51.258 200.704 52.224 200.704 53.144C200.704 53.88 201.026 54.432 201.808 54.432C203.05 54.432 203.97 53.144 204.568 52.408C205.028 51.856 205.442 51.396 206.132 51.396C206.822 51.396 207.144 51.856 207.144 52.5C207.144 53.88 205.442 64.552 198.496 64.552C195.368 64.552 193.068 62.344 193.068 58.756ZM212.005 57.1C215.593 57.1 216.973 54.156 218.123 52.408C218.583 51.718 219.135 51.35 219.733 51.35C220.193 51.35 220.607 51.81 220.607 52.5C220.607 57.284 216.835 64.552 209.613 64.552C205.013 64.552 202.667 61.332 202.667 57.56C202.667 52.868 206.255 48.314 211.361 48.314C214.489 48.314 216.513 49.97 216.513 52.408C216.513 55.122 213.937 56.502 211.591 56.502C210.993 56.502 210.395 56.41 209.889 56.226C210.303 56.824 211.131 57.1 212.005 57.1ZM211.499 52.592C211.039 52.592 210.027 53.144 209.751 54.156C209.935 54.202 210.119 54.202 210.303 54.202C211.407 54.202 212.005 53.466 212.005 53.006C212.005 52.776 211.821 52.592 211.499 52.592ZM231.507 52.914C231.507 53.88 231.875 54.432 232.657 54.432C233.715 54.432 234.589 53.512 235.417 52.408C235.831 51.856 236.291 51.396 236.981 51.396C237.671 51.396 237.993 51.856 237.993 52.5C237.993 53.88 236.153 64.414 230.081 64.414C228.379 64.414 227.183 63.77 226.447 62.436C225.343 63.954 223.733 64.552 221.939 64.552C218.259 64.552 216.189 61.378 216.189 58.158C216.189 52.546 220.467 48.866 224.653 48.866C226.033 48.866 227.321 49.28 228.241 49.924C228.793 49.556 229.529 49.326 230.127 49.326C231.093 49.326 231.783 49.878 231.783 50.706C231.783 51.304 231.507 52.086 231.507 52.914ZM225.159 56.364C226.401 56.364 227.045 55.306 227.045 54.156C227.045 53.742 226.861 52.592 225.573 52.592C224.423 52.592 223.733 53.742 223.733 54.8C223.733 55.628 224.147 56.364 225.159 56.364ZM243.188 52.914C243.188 53.88 243.602 54.662 244.706 54.662C246.27 54.662 247.42 53.144 248.018 52.408C248.478 51.856 248.892 51.396 249.582 51.396C250.272 51.396 250.594 51.856 250.594 52.5C250.594 53.88 248.984 64.552 241.762 64.552C238.082 64.552 235.736 61.332 235.736 56.778C235.736 55.674 235.782 54.294 235.874 52.822C234.172 52.822 233.942 52.316 233.942 51.396C233.942 50.752 234.586 49.878 236.334 49.188C237.162 44.818 238.91 40.678 242.682 40.678C244.476 40.678 245.626 41.69 245.626 42.656C245.626 42.886 245.488 43.346 245.304 43.944L244.108 48.038H244.798C246.96 48.038 247.65 48.728 247.65 49.556C247.65 51.304 246.178 52.546 244.568 52.546C244.154 52.546 243.694 52.5 243.188 52.5V52.914ZM254.616 48.774C256.088 48.774 257.146 49.28 257.836 49.97C257.974 49.924 258.112 49.924 258.296 49.924C261.102 49.924 262.436 52.73 262.436 55.076C262.436 60.872 258.48 64.552 253.236 64.552C248.636 64.552 246.152 61.332 246.152 57.56C246.152 52.868 249.878 48.774 254.616 48.774ZM254.616 56.364C255.858 56.364 256.502 55.306 256.502 54.156C256.502 53.742 256.318 52.592 255.03 52.592C253.88 52.592 253.19 53.742 253.19 54.8C253.19 55.628 253.604 56.364 254.616 56.364ZM264.943 58.756C264.943 57.79 265.081 56.686 265.311 55.766C264.989 55.812 264.667 55.812 264.345 55.812C262.597 55.812 261.125 54.294 261.125 51.994C261.125 50.154 262.045 48.36 263.333 48.36C263.747 48.36 264.759 49.694 267.059 50.062C267.841 48.958 268.807 48.038 270.463 48.038C272.625 48.038 273.039 49.418 273.039 50.246C273.039 51.258 272.579 52.224 272.579 53.144C272.579 53.88 272.901 54.432 273.683 54.432C274.925 54.432 275.845 53.144 276.443 52.408C276.903 51.856 277.317 51.396 278.007 51.396C278.697 51.396 279.019 51.856 279.019 52.5C279.019 53.88 277.317 64.552 270.371 64.552C267.243 64.552 264.943 62.344 264.943 58.756Z" fill="#FAEFF4"/>
<path d="M68.1779 52.546L67.995 51.5629L66.8529 51.7753L67.2329 52.8731L68.1779 52.546ZM73.6059 52.408L72.825 51.7833L72.8218 51.7873L73.6059 52.408ZM55.4819 50.108L56.4246 50.4416L56.8965 49.108H55.4819V50.108ZM53.7799 50.062V49.062H53.0121L52.8138 49.8037L53.7799 50.062ZM52.5379 54.708L53.5014 54.9757L53.5039 54.9663L52.5379 54.708ZM49.7319 45.508L49.8408 46.502L50.4001 46.4408L50.6381 45.9309L49.7319 45.508ZM70.2939 35.158L69.3403 34.8569L69.3388 34.8616L70.2939 35.158ZM67.9479 45.784L66.9552 45.6629L66.8423 46.5886L67.7578 46.7658L67.9479 45.784ZM55.5279 45.14L54.5945 44.781L54.0718 46.14H55.5279V45.14ZM57.5979 45.094V46.094H58.2259L58.4986 45.5283L57.5979 45.094ZM61.2319 38.608L62.0676 39.1572L63.0856 37.608H61.2319V38.608ZM56.3559 43.346L57.2364 43.8201L57.2417 43.81L56.3559 43.346ZM47.4319 50.476L48.3226 50.9305L49.2312 49.1497L47.2613 49.4906L47.4319 50.476ZM71.9959 48.268H70.9959C70.9959 48.2679 70.9959 48.2691 70.9957 48.2717C70.9956 48.2742 70.9954 48.2779 70.9949 48.2828C70.994 48.2928 70.9922 48.3066 70.9891 48.3247C70.9829 48.3613 70.9719 48.4097 70.954 48.47C70.918 48.5918 70.8596 48.7432 70.7758 48.918C70.6078 49.2683 70.3576 49.6703 70.0473 50.0589C69.3953 50.8752 68.6325 51.4443 67.995 51.5629L68.1779 52.546L68.3608 53.5291C69.7013 53.2797 70.8474 52.2618 71.61 51.3071C72.0068 50.8102 72.3403 50.2807 72.5791 49.7829C72.8041 49.3139 72.9959 48.7689 72.9959 48.268H71.9959ZM68.1779 52.546L67.2329 52.8731C67.4729 53.5664 67.8257 54.2135 68.3704 54.6901C68.937 55.1859 69.6373 55.432 70.4319 55.432V54.432V53.432C70.0764 53.432 69.8567 53.3331 69.6874 53.1849C69.496 53.0175 69.2969 52.7216 69.1229 52.2189L68.1779 52.546ZM70.4319 54.432V55.432C72.4794 55.432 73.5331 54.1111 74.3899 53.0287L73.6059 52.408L72.8218 51.7873C71.9307 52.9129 71.4204 53.432 70.4319 53.432V54.432ZM73.6059 52.408L74.3867 53.0327C74.6449 52.71 74.8076 52.5567 74.9267 52.4782C75.0131 52.4212 75.0856 52.396 75.2159 52.396V51.396V50.396C74.7021 50.396 74.2456 50.5318 73.8261 50.8083C73.4392 51.0633 73.1189 51.416 72.825 51.7833L73.6059 52.408ZM75.2159 51.396V52.396C75.2805 52.396 75.2646 52.4071 75.2128 52.3813C75.1503 52.3503 75.1122 52.3043 75.1001 52.2842C75.0957 52.2769 75.1204 52.316 75.1436 52.4454C75.1664 52.5728 75.1819 52.754 75.1819 53.006H76.1819H77.1819C77.1819 52.4001 77.1187 51.7612 76.8151 51.2553C76.6478 50.9764 76.4113 50.7436 76.103 50.5904C75.8054 50.4424 75.4963 50.396 75.2159 50.396V51.396ZM76.1819 53.006H75.1819C75.1819 56.1081 73.7546 59.6665 71.343 62.4546C68.9379 65.2352 65.6525 67.14 62.0139 67.14V68.14V69.14C66.3792 69.14 70.1779 66.8588 72.8557 63.7629C75.5271 60.6745 77.1819 56.6659 77.1819 53.006H76.1819ZM62.0139 68.14V67.14C59.6816 67.14 57.8912 66.2195 56.6689 64.7836C55.432 63.3305 54.7339 61.2947 54.7339 59.032H53.7339H52.7339C52.7339 61.6913 53.5537 64.2095 55.1459 66.0799C56.7526 67.9675 59.1021 69.14 62.0139 69.14V68.14ZM53.7339 59.032H54.7339C54.7339 56.3762 55.39 53.3654 56.4246 50.4416L55.4819 50.108L54.5391 49.7744C53.4577 52.8306 52.7339 56.0758 52.7339 59.032H53.7339ZM55.4819 50.108V49.108C55.2061 49.108 54.9381 49.0974 54.6544 49.0858C54.377 49.0745 54.08 49.062 53.7799 49.062V50.062V51.062C54.0318 51.062 54.2867 51.0725 54.5728 51.0842C54.8527 51.0956 55.1596 51.108 55.4819 51.108V50.108ZM53.7799 50.062L52.8138 49.8037L51.5718 54.4497L52.5379 54.708L53.5039 54.9663L54.7459 50.3203L53.7799 50.062ZM52.5379 54.708L51.5743 54.4404C50.8948 56.8869 49.9057 59.5697 48.1775 61.6329C46.4866 63.6516 44.0585 65.116 40.3479 65.116V66.116V67.116C44.6873 67.116 47.6642 65.3604 49.7107 62.9171C51.72 60.5183 52.801 57.4971 53.5014 54.9756L52.5379 54.708ZM40.3479 66.116V65.116C36.1867 65.116 32.9299 62.0946 32.9299 58.158H31.9299H30.9299C30.9299 63.3294 35.217 67.116 40.3479 67.116V66.116ZM31.9299 58.158H32.9299C32.9299 54.6246 34.635 52.0311 37.592 50.1397C40.5967 48.2177 44.8717 47.0466 49.8408 46.502L49.7319 45.508L49.6229 44.514C44.518 45.0734 39.892 46.2943 36.5143 48.4548C33.0888 50.6459 30.9299 53.8254 30.9299 58.158H31.9299ZM49.7319 45.508L50.6381 45.9309C52.238 42.5024 54.261 38.7182 56.7895 35.8015C59.3201 32.8824 62.2424 30.96 65.6479 30.96V29.96V28.96C61.4173 28.96 57.9916 31.3616 55.2783 34.4915C52.5628 37.6238 50.4457 41.6136 48.8257 45.0851L49.7319 45.508ZM65.6479 29.96V30.96C67.1433 30.96 68.2572 31.2619 68.9628 31.7117C69.6303 32.1373 69.9379 32.6878 69.9379 33.364H70.9379H71.9379C71.9379 31.9242 71.2104 30.7727 70.0379 30.0253C68.9035 29.3021 67.3724 28.96 65.6479 28.96V29.96ZM70.9379 33.364H69.9379C69.9379 33.4314 69.9281 33.4943 69.8172 33.726C69.7077 33.9552 69.5051 34.335 69.3403 34.8569L70.2939 35.158L71.2475 35.4591C71.3587 35.107 71.4781 34.8888 71.6215 34.589C71.7636 34.2917 71.9379 33.8946 71.9379 33.364H70.9379ZM70.2939 35.158L69.3388 34.8616C68.4994 37.5664 67.4247 41.8135 66.9552 45.6629L67.9479 45.784L68.9405 45.9051C69.3911 42.2105 70.4324 38.0856 71.2489 35.4544L70.2939 35.158ZM67.9479 45.784L67.7578 46.7658C69.1129 47.028 69.9827 47.3841 70.4867 47.72C70.7355 47.8859 70.8686 48.0292 70.9348 48.1276C70.9969 48.22 70.9959 48.2645 70.9959 48.268H71.9959H72.9959C72.9959 47.3357 72.3911 46.586 71.5961 46.0559C70.7891 45.5179 69.6349 45.092 68.1379 44.8022L67.9479 45.784ZM55.5279 45.14V46.14C55.8072 46.14 56.0831 46.1273 56.337 46.116C56.5977 46.1044 56.8412 46.094 57.0919 46.094V45.094V44.094C56.7906 44.094 56.505 44.1066 56.2482 44.118C55.9846 44.1297 55.7546 44.14 55.5279 44.14V45.14ZM57.0919 45.094V46.094H57.5979V45.094V44.094H57.0919V45.094ZM57.5979 45.094L58.4986 45.5283C59.7219 42.9911 61.0343 40.7296 62.0676 39.1572L61.2319 38.608L60.3962 38.0588C59.3135 39.7064 57.9578 42.0449 56.6971 44.6597L57.5979 45.094ZM61.2319 38.608V37.608C59.9639 37.608 58.883 38.2641 57.9758 39.1907C57.0707 40.1152 56.2468 41.3992 55.47 42.882L56.3559 43.346L57.2417 43.81C57.983 42.3948 58.7001 41.3098 59.4049 40.5898C60.1078 39.8719 60.7058 39.608 61.2319 39.608V38.608ZM56.3559 43.346L55.4754 42.8719C55.1345 43.5049 54.8406 44.1413 54.5945 44.781L55.5279 45.14L56.4612 45.499C56.6752 44.9427 56.9332 44.3831 57.2363 43.8201L56.3559 43.346ZM42.7399 54.938V55.938C44.1444 55.938 45.276 55.1676 46.1455 54.2337C47.0171 53.2975 47.7342 52.0838 48.3226 50.9305L47.4319 50.476L46.5411 50.0215C45.9795 51.1222 45.3627 52.1395 44.6817 52.8708C43.9987 53.6044 43.3594 53.938 42.7399 53.938V54.938ZM47.4319 50.476L47.2613 49.4906C44.7738 49.9212 43.12 50.6185 42.0612 51.3854C41.0357 52.1283 40.4519 53.0351 40.4519 53.88H41.4519H42.4519C42.4519 53.9429 42.466 53.5617 43.2345 53.0051C43.9697 52.4725 45.3059 51.8588 47.6024 51.4614L47.4319 50.476ZM41.4519 53.88H40.4519C40.4519 54.2511 40.5526 54.7811 40.9528 55.2299C41.3759 55.7042 41.9985 55.938 42.7399 55.938V54.938V53.938C42.5757 53.938 42.4906 53.913 42.4576 53.9C42.4287 53.8887 42.4327 53.8843 42.4454 53.8986C42.4662 53.9219 42.4519 53.9229 42.4519 53.88H41.4519ZM81.3339 55.996L82.1476 56.5772L82.515 56.0629L82.208 55.5104L81.3339 55.996ZM87.9579 54.064H86.9579V55.4981L88.3036 55.0023L87.9579 54.064ZM86.8079 58.802L86.6959 57.8083L86.1191 57.8733L85.8895 58.4064L86.8079 58.802ZM80.2759 51.534L81.2005 51.9147L81.2283 51.8473L81.246 51.7765L80.2759 51.534ZM80.5059 56.502V57.502C81.2655 57.502 81.8083 57.0522 82.1476 56.5772L81.3339 55.996L80.5201 55.4148C80.4602 55.4986 80.4241 55.5219 80.4244 55.5218C80.4258 55.5209 80.4356 55.5151 80.4531 55.5099C80.4711 55.5045 80.4897 55.502 80.5059 55.502V56.502ZM81.3339 55.996L82.208 55.5104C81.8381 54.8444 81.6439 54.0482 81.6439 53.236H80.6439H79.6439C79.6439 54.3558 79.9097 55.4916 80.4597 56.4816L81.3339 55.996ZM80.6439 53.236H81.6439C81.6439 50.9514 83.156 49.866 84.2779 49.866V48.866V47.866C81.9037 47.866 79.6439 50.0006 79.6439 53.236H80.6439ZM84.2779 48.866V49.866C85.2349 49.866 85.865 50.178 86.2745 50.6619C86.7049 51.1706 87.0039 52.003 87.0039 53.236H88.0039H89.0039C89.0039 51.709 88.6358 50.3564 87.8013 49.3701C86.9458 48.359 85.7128 47.866 84.2779 47.866V48.866ZM88.0039 53.236H87.0039C87.0039 53.3254 86.9964 53.4219 86.9843 53.567C86.9734 53.6979 86.9579 53.8774 86.9579 54.064H87.9579H88.9579C88.9579 53.9746 88.9653 53.8781 88.9774 53.733C88.9883 53.6021 89.0039 53.4226 89.0039 53.236H88.0039ZM87.9579 54.064L88.3036 55.0023C89.5165 54.5555 90.1293 53.5946 90.5186 53.04C90.9736 52.3917 91.0908 52.35 91.2699 52.35V51.35V50.35C89.9309 50.35 89.2661 51.3433 88.8816 51.891C88.4314 52.5324 88.1472 52.9285 87.6122 53.1257L87.9579 54.064ZM91.2699 51.35V52.35C91.2153 52.35 91.1698 52.3358 91.1386 52.3196C91.1086 52.304 91.0975 52.2897 91.0985 52.2909C91.1003 52.2932 91.1439 52.3526 91.1439 52.5H92.1439H93.1439C93.1439 51.4775 92.4789 50.35 91.2699 50.35V51.35ZM92.1439 52.5H91.1439C91.1439 55.3285 89.3882 57.5049 86.6959 57.8083L86.8079 58.802L86.9198 59.7957C90.7596 59.3631 93.1439 56.2035 93.1439 52.5H92.1439ZM86.8079 58.802L85.8895 58.4064C84.695 61.1793 82.4956 63.552 78.7119 63.552V64.552V65.552C83.5762 65.552 86.3448 62.4047 87.7263 59.1976L86.8079 58.802ZM78.7119 64.552V63.552C76.9161 63.552 75.5585 62.6638 74.6112 61.2701C73.646 59.8502 73.1339 57.9281 73.1339 56.042H72.1339H71.1339C71.1339 58.2499 71.7257 60.5828 72.9571 62.3944C74.2063 64.2322 76.1376 65.552 78.7119 65.552V64.552ZM72.1339 56.042H73.1339C73.1339 54.3629 73.5299 52.8212 74.2458 51.7328C74.94 50.6775 75.9225 50.05 77.2399 50.05V49.05V48.05C75.1532 48.05 73.5828 49.1015 72.5749 50.6337C71.5888 52.1328 71.1339 54.0871 71.1339 56.042H72.1339ZM77.2399 49.05V50.05C78.0297 50.05 78.6088 50.2438 78.9584 50.4756C79.3093 50.7083 79.3679 50.9238 79.3679 51.028H80.3679H81.3679C81.3679 50.0742 80.8054 49.3007 80.0638 48.8089C79.3209 48.3162 78.336 48.05 77.2399 48.05V49.05ZM80.3679 51.028H79.3679C79.3679 51.0314 79.3682 51.0394 79.3613 51.0715C79.3572 51.0907 79.3513 51.1147 79.3415 51.1528C79.3332 51.1847 79.3184 51.2406 79.3057 51.2915L80.2759 51.534L81.246 51.7765C81.2726 51.6701 81.3679 51.3698 81.3679 51.028H80.3679ZM80.2759 51.534L79.3512 51.1532C78.973 52.0717 78.6779 53.6295 78.6779 54.846H79.6779H80.6779C80.6779 53.8545 80.9347 52.5603 81.2005 51.9147L80.2759 51.534ZM79.6779 54.846H78.6779C78.6779 55.3404 78.7224 55.9195 78.9294 56.4086C79.0379 56.6652 79.2114 56.9459 79.4931 57.1637C79.7886 57.3922 80.1398 57.502 80.5059 57.502V56.502V55.502C80.5499 55.502 80.6367 55.5198 80.7166 55.5816C80.7826 55.6326 80.7893 55.6718 80.7713 55.6294C80.7532 55.5864 80.7272 55.5004 80.7073 55.3565C80.688 55.216 80.6779 55.0452 80.6779 54.846H79.6779ZM98.0599 62.436L98.9355 61.9529L98.1759 60.5763L97.2512 61.8478L98.0599 62.436ZM99.8539 49.924L99.2804 50.7432L99.8401 51.135L100.409 50.7561L99.8539 49.924ZM103.12 52.914H102.12C102.12 53.4972 102.226 54.1237 102.595 54.6266C103.004 55.1837 103.616 55.432 104.27 55.432V54.432V53.432C104.192 53.432 104.17 53.4185 104.18 53.4231C104.185 53.4252 104.192 53.4293 104.199 53.4352C104.206 53.4411 104.209 53.4451 104.208 53.4439C104.197 53.4293 104.12 53.2968 104.12 52.914H103.12ZM104.27 54.432V55.432C105.107 55.432 105.806 55.0641 106.366 54.611C106.918 54.1632 107.403 53.5766 107.83 53.008L107.03 52.408L106.23 51.808C105.828 52.3434 105.462 52.7688 105.107 53.057C104.757 53.3399 104.491 53.432 104.27 53.432V54.432ZM107.03 52.408L107.83 53.008C108.226 52.4793 108.423 52.396 108.594 52.396V51.396V50.396C107.385 50.396 106.661 51.2327 106.23 51.808L107.03 52.408ZM108.594 51.396V52.396C108.655 52.396 108.671 52.4061 108.657 52.4006C108.651 52.3979 108.641 52.3926 108.629 52.3839C108.617 52.3751 108.606 52.3652 108.598 52.3554C108.581 52.3353 108.582 52.3273 108.589 52.3488C108.596 52.3719 108.606 52.4204 108.606 52.5H109.606H110.606C110.606 52.0253 110.488 51.4897 110.119 51.0576C109.73 50.6003 109.176 50.396 108.594 50.396V51.396ZM109.606 52.5H108.606C108.606 52.7305 108.511 53.5598 108.248 54.7231C107.991 55.8611 107.588 57.2447 107.01 58.576C105.807 61.3451 104.067 63.414 101.694 63.414V64.414V65.414C105.393 65.414 107.609 62.2159 108.844 59.373C109.485 57.8983 109.922 56.3896 110.199 55.1644C110.47 53.9645 110.606 52.9594 110.606 52.5H109.606ZM101.694 64.414V63.414C100.968 63.414 100.416 63.277 99.9917 63.0464C99.5739 62.8196 99.2216 62.4715 98.9355 61.9529L98.0599 62.436L97.1843 62.9191C97.6342 63.7345 98.2479 64.3754 99.0376 64.8041C99.8203 65.229 100.718 65.414 101.694 65.414V64.414ZM98.0599 62.436L97.2512 61.8478C96.3799 63.0458 95.1101 63.552 93.5519 63.552V64.552V65.552C95.5817 65.552 97.5319 64.8622 98.8686 63.0242L98.0599 62.436ZM93.5519 64.552V63.552C90.6033 63.552 88.8019 61.0238 88.8019 58.158H87.8019H86.8019C86.8019 61.7322 89.1405 65.552 93.5519 65.552V64.552ZM87.8019 58.158H88.8019C88.8019 53.0813 92.649 49.866 96.2659 49.866V48.866V47.866C91.5108 47.866 86.8019 52.0107 86.8019 58.158H87.8019ZM96.2659 48.866V49.866C97.4581 49.866 98.5422 50.2265 99.2804 50.7432L99.8539 49.924L100.427 49.1048C99.3256 48.3335 97.8337 47.866 96.2659 47.866V48.866ZM99.8539 49.924L100.409 50.7561C100.81 50.4882 101.356 50.326 101.74 50.326V49.326V48.326C100.928 48.326 100.001 48.6238 99.2992 49.0919L99.8539 49.924ZM101.74 49.326V50.326C102.039 50.326 102.214 50.4112 102.294 50.4774C102.359 50.5308 102.396 50.5937 102.396 50.706H103.396H104.396C104.396 49.9903 104.088 49.3632 103.566 48.9336C103.06 48.5168 102.407 48.326 101.74 48.326V49.326ZM103.396 50.706H102.396C102.396 50.8904 102.352 51.1247 102.275 51.5422C102.206 51.9155 102.12 52.3988 102.12 52.914H103.12H104.12C104.12 52.6012 104.172 52.2795 104.241 51.9053C104.302 51.5753 104.396 51.1196 104.396 50.706H103.396ZM96.7719 56.364V57.364C97.7119 57.364 98.4716 56.9486 98.9712 56.3036C99.4502 55.6854 99.6579 54.9043 99.6579 54.156H98.6579H97.6579C97.6579 54.5577 97.5436 54.8806 97.3901 55.0789C97.2572 55.2504 97.0739 55.364 96.7719 55.364V56.364ZM98.6579 54.156H99.6579C99.6579 53.8447 99.5956 53.2503 99.2585 52.6979C98.879 52.0758 98.1954 51.592 97.1859 51.592V52.592V53.592C97.354 53.592 97.431 53.6279 97.4601 53.6447C97.4911 53.6625 97.5207 53.6896 97.5513 53.7396C97.5846 53.7943 97.6137 53.8688 97.6334 53.9566C97.6532 54.0442 97.6579 54.1196 97.6579 54.156H98.6579ZM97.1859 52.592V51.592C96.2402 51.592 95.5042 52.0761 95.036 52.6975C94.5797 53.303 94.3459 54.0699 94.3459 54.8H95.3459H96.3459C96.3459 54.4721 96.4571 54.135 96.6333 53.901C96.7976 53.6829 96.9816 53.592 97.1859 53.592V52.592ZM95.3459 54.8H94.3459C94.3459 55.364 94.485 56.0003 94.8985 56.5172C95.3392 57.0681 95.9973 57.364 96.7719 57.364V56.364V55.364C96.6412 55.364 96.569 55.3407 96.5343 55.325C96.5017 55.3102 96.48 55.2924 96.4603 55.2678C96.4138 55.2097 96.3459 55.064 96.3459 54.8H95.3459ZM119.632 52.408L118.863 51.7678L118.856 51.7774L119.632 52.408ZM107.488 52.822L108.486 52.8844L108.552 51.822H107.488V52.822ZM107.948 49.188L108.315 50.1182L108.828 49.9158L108.93 49.3742L107.948 49.188ZM116.918 43.944L115.962 43.6499L115.96 43.6567L115.958 43.6636L116.918 43.944ZM115.722 48.038L114.762 47.7576L114.388 49.038H115.722V48.038ZM114.802 52.5V51.5H113.802V52.5H114.802ZM114.802 52.914H113.802C113.802 53.5175 113.928 54.2016 114.352 54.7572C114.81 55.3576 115.505 55.662 116.32 55.662V54.662V53.662C116.162 53.662 116.075 53.6344 116.031 53.6147C115.992 53.5967 115.966 53.5749 115.942 53.5433C115.883 53.4664 115.802 53.2765 115.802 52.914H114.802ZM116.32 54.662V55.662C117.436 55.662 118.338 55.1207 118.984 54.5747C119.628 54.0298 120.128 53.3827 120.408 53.0386L119.632 52.408L118.856 51.7774C118.537 52.1693 118.163 52.6492 117.692 53.0473C117.223 53.4443 116.767 53.662 116.32 53.662V54.662ZM119.632 52.408L120.4 53.0482C120.638 52.7629 120.786 52.6003 120.925 52.4972C121.031 52.4178 121.103 52.396 121.196 52.396V51.396V50.396C119.978 50.396 119.284 51.2634 118.864 51.7678L119.632 52.408ZM121.196 51.396V52.396C121.257 52.396 121.273 52.4061 121.259 52.4006C121.253 52.3979 121.243 52.3926 121.231 52.3839C121.218 52.3751 121.208 52.3652 121.2 52.3554C121.182 52.3353 121.184 52.3273 121.191 52.3488C121.198 52.3719 121.208 52.4204 121.208 52.5H122.208H123.208C123.208 52.0253 123.09 51.4897 122.721 51.0576C122.331 50.6003 121.778 50.396 121.196 50.396V51.396ZM122.208 52.5H121.208C121.208 53.0432 120.838 55.914 119.591 58.626C118.339 61.3508 116.388 63.552 113.376 63.552V64.552V65.552C117.586 65.552 120.05 62.4172 121.409 59.461C122.773 56.492 123.208 53.3368 123.208 52.5H122.208ZM113.376 64.552V63.552C111.86 63.552 110.643 62.9027 109.778 61.7669C108.896 60.608 108.35 58.8943 108.35 56.778H107.35H106.35C106.35 59.2157 106.977 61.389 108.187 62.9786C109.415 64.5913 111.211 65.552 113.376 65.552V64.552ZM107.35 56.778H108.35C108.35 55.6989 108.395 54.3402 108.486 52.8844L107.488 52.822L106.49 52.7596C106.397 54.2478 106.35 55.6491 106.35 56.778H107.35ZM107.488 52.822V51.822C107.104 51.822 106.855 51.7927 106.698 51.7555C106.545 51.7191 106.525 51.686 106.55 51.7083C106.631 51.7807 106.556 51.8356 106.556 51.396H105.556H104.556C104.556 51.8764 104.596 52.6443 105.217 53.1997C105.787 53.7085 106.611 53.822 107.488 53.822V52.822ZM105.556 51.396H106.556C106.556 51.4134 106.551 51.2721 106.809 51.011C107.063 50.7533 107.528 50.4288 108.315 50.1182L107.948 49.188L107.581 48.2578C106.619 48.6372 105.889 49.0947 105.384 49.6075C104.882 50.1169 104.556 50.7346 104.556 51.396H105.556ZM107.948 49.188L108.93 49.3742C109.335 47.236 109.95 45.2555 110.86 43.8333C111.751 42.4406 112.853 41.678 114.296 41.678V40.678V39.678C111.966 39.678 110.308 40.9854 109.175 42.7552C108.062 44.4955 107.388 46.77 106.965 49.0018L107.948 49.188ZM114.296 40.678V41.678C115.008 41.678 115.531 41.8789 115.851 42.1123C116.184 42.3559 116.24 42.5794 116.24 42.656H117.24H118.24C118.24 41.7666 117.72 41.0011 117.03 40.4972C116.326 39.9831 115.377 39.678 114.296 39.678V40.678ZM117.24 42.656H116.24C116.24 42.6251 116.243 42.6287 116.232 42.6869C116.223 42.7389 116.206 42.811 116.181 42.9075C116.129 43.1026 116.055 43.3472 115.962 43.6499L116.918 43.944L117.874 44.2381C117.964 43.9428 118.051 43.6584 118.115 43.4165C118.171 43.2028 118.24 42.9156 118.24 42.656H117.24ZM116.918 43.944L115.958 43.6636L114.762 47.7576L115.722 48.038L116.682 48.3184L117.878 44.2244L116.918 43.944ZM115.722 48.038V49.038H116.412V48.038V47.038H115.722V48.038ZM116.412 48.038V49.038C117.417 49.038 117.909 49.2038 118.119 49.3351C118.258 49.4215 118.264 49.4738 118.264 49.556H119.264H120.264C120.264 48.8102 119.924 48.1035 119.178 47.6379C118.503 47.2172 117.569 47.038 116.412 47.038V48.038ZM119.264 49.556H118.264C118.264 50.6839 117.31 51.546 116.182 51.546V52.546V53.546C118.274 53.546 120.264 51.9241 120.264 49.556H119.264ZM116.182 52.546V51.546C116.005 51.546 115.814 51.5362 115.576 51.5242C115.347 51.5128 115.083 51.5 114.802 51.5V52.5V53.5C115.027 53.5 115.246 53.5102 115.476 53.5218C115.698 53.5328 115.944 53.546 116.182 53.546V52.546ZM114.802 52.5H113.802V52.914H114.802H115.802V52.5H114.802ZM128.023 62.436L128.898 61.9529L128.139 60.5763L127.214 61.8478L128.023 62.436ZM129.817 49.924L129.243 50.7432L129.803 51.135L130.371 50.7561L129.817 49.924ZM133.083 52.914H132.083C132.083 53.4972 132.189 54.1237 132.558 54.6266C132.967 55.1837 133.578 55.432 134.233 55.432V54.432V53.432C134.155 53.432 134.133 53.4185 134.143 53.4231C134.148 53.4252 134.155 53.4293 134.162 53.4352C134.169 53.4411 134.172 53.4451 134.171 53.4439C134.16 53.4293 134.083 53.2968 134.083 52.914H133.083ZM134.233 54.432V55.432C135.07 55.432 135.769 55.0641 136.329 54.611C136.881 54.1632 137.366 53.5766 137.793 53.008L136.993 52.408L136.193 51.808C135.791 52.3434 135.425 52.7688 135.07 53.057C134.72 53.3399 134.454 53.432 134.233 53.432V54.432ZM136.993 52.408L137.793 53.008C138.189 52.4793 138.386 52.396 138.557 52.396V51.396V50.396C137.348 50.396 136.624 51.2327 136.193 51.808L136.993 52.408ZM138.557 51.396V52.396C138.618 52.396 138.634 52.4061 138.62 52.4006C138.614 52.3979 138.604 52.3926 138.592 52.3839C138.58 52.3751 138.569 52.3652 138.561 52.3554C138.544 52.3353 138.545 52.3273 138.552 52.3488C138.559 52.3719 138.569 52.4204 138.569 52.5H139.569H140.569C140.569 52.0253 140.451 51.4897 140.082 51.0576C139.692 50.6003 139.139 50.396 138.557 50.396V51.396ZM139.569 52.5H138.569C138.569 52.7305 138.474 53.5598 138.211 54.7231C137.954 55.8611 137.551 57.2447 136.973 58.576C135.77 61.3451 134.03 63.414 131.657 63.414V64.414V65.414C135.355 65.414 137.572 62.2159 138.807 59.373C139.448 57.8983 139.885 56.3896 140.162 55.1644C140.433 53.9645 140.569 52.9594 140.569 52.5H139.569ZM131.657 64.414V63.414C130.931 63.414 130.379 63.277 129.955 63.0464C129.537 62.8196 129.184 62.4715 128.898 61.9529L128.023 62.436L127.147 62.9191C127.597 63.7345 128.211 64.3754 129 64.8041C129.783 65.229 130.681 65.414 131.657 65.414V64.414ZM128.023 62.436L127.214 61.8478C126.343 63.0458 125.073 63.552 123.515 63.552V64.552V65.552C125.545 65.552 127.495 64.8622 128.832 63.0242L128.023 62.436ZM123.515 64.552V63.552C120.566 63.552 118.765 61.0238 118.765 58.158H117.765H116.765C116.765 61.7322 119.103 65.552 123.515 65.552V64.552ZM117.765 58.158H118.765C118.765 53.0813 122.612 49.866 126.229 49.866V48.866V47.866C121.474 47.866 116.765 52.0107 116.765 58.158H117.765ZM126.229 48.866V49.866C127.421 49.866 128.505 50.2265 129.243 50.7432L129.817 49.924L130.39 49.1048C129.288 48.3335 127.797 47.866 126.229 47.866V48.866ZM129.817 49.924L130.371 50.7561C130.773 50.4882 131.318 50.326 131.703 50.326V49.326V48.326C130.891 48.326 129.964 48.6238 129.262 49.0919L129.817 49.924ZM131.703 49.326V50.326C132.002 50.326 132.177 50.4112 132.257 50.4774C132.322 50.5308 132.359 50.5937 132.359 50.706H133.359H134.359C134.359 49.9903 134.05 49.3632 133.529 48.9336C133.023 48.5168 132.37 48.326 131.703 48.326V49.326ZM133.359 50.706H132.359C132.359 50.8904 132.314 51.1247 132.237 51.5422C132.168 51.9155 132.083 52.3988 132.083 52.914H133.083H134.083C134.083 52.6012 134.135 52.2795 134.204 51.9053C134.265 51.5753 134.359 51.1196 134.359 50.706H133.359ZM126.735 56.364V57.364C127.675 57.364 128.434 56.9486 128.934 56.3036C129.413 55.6854 129.621 54.9043 129.621 54.156H128.621H127.621C127.621 54.5577 127.507 54.8806 127.353 55.0789C127.22 55.2504 127.037 55.364 126.735 55.364V56.364ZM128.621 54.156H129.621C129.621 53.8447 129.558 53.2503 129.221 52.6979C128.842 52.0758 128.158 51.592 127.149 51.592V52.592V53.592C127.317 53.592 127.394 53.6279 127.423 53.6447C127.454 53.6625 127.484 53.6896 127.514 53.7396C127.548 53.7943 127.577 53.8688 127.596 53.9566C127.616 54.0442 127.621 54.1196 127.621 54.156H128.621ZM127.149 52.592V51.592C126.203 51.592 125.467 52.0761 124.999 52.6975C124.543 53.303 124.309 54.0699 124.309 54.8H125.309H126.309C126.309 54.4721 126.42 54.135 126.596 53.901C126.761 53.6829 126.945 53.592 127.149 53.592V52.592ZM125.309 54.8H124.309C124.309 55.364 124.448 56.0003 124.861 56.5172C125.302 57.0681 125.96 57.364 126.735 57.364V56.364V55.364C126.604 55.364 126.532 55.3407 126.497 55.325C126.465 55.3102 126.443 55.2924 126.423 55.2678C126.377 55.2097 126.309 55.064 126.309 54.8H125.309ZM139.889 55.766L140.859 56.0085L141.219 54.5657L139.747 54.7761L139.889 55.766ZM141.637 50.062L141.479 51.0494L142.093 51.1477L142.453 50.64L141.637 50.062ZM151.021 52.408L150.252 51.7678L150.245 51.7774L151.021 52.408ZM139.521 58.756H140.521C140.521 57.8724 140.648 56.8498 140.859 56.0085L139.889 55.766L138.918 55.5235C138.669 56.5222 138.521 57.7076 138.521 58.756H139.521ZM139.889 55.766L139.747 54.7761C139.507 54.8103 139.256 54.812 138.923 54.812V55.812V56.812C139.233 56.812 139.626 56.8137 140.03 56.7559L139.889 55.766ZM138.923 55.812V54.812C137.844 54.812 136.703 53.8664 136.703 51.994H135.703H134.703C134.703 54.7216 136.505 56.812 138.923 56.812V55.812ZM135.703 51.994H136.703C136.703 51.2247 136.898 50.493 137.19 49.9863C137.496 49.4558 137.778 49.36 137.911 49.36V48.36V47.36C136.755 47.36 135.934 48.1612 135.457 48.9877C134.967 49.838 134.703 50.9233 134.703 51.994H135.703ZM137.911 48.36V49.36C137.719 49.36 137.606 49.2906 137.635 49.3059C137.647 49.3121 137.686 49.335 137.775 49.3965C137.922 49.4982 138.213 49.7142 138.527 49.915C139.198 50.3449 140.155 50.8377 141.479 51.0494L141.637 50.062L141.795 49.0746C140.818 48.9183 140.119 48.5601 139.606 48.231C139.327 48.0523 139.144 47.9118 138.913 47.7519C138.813 47.6826 138.687 47.5983 138.555 47.5301C138.441 47.4711 138.206 47.36 137.911 47.36V48.36ZM141.637 50.062L142.453 50.64C143.158 49.6436 143.863 49.038 145.041 49.038V48.038V47.038C142.907 47.038 141.679 48.2724 140.821 49.484L141.637 50.062ZM145.041 48.038V49.038C145.894 49.038 146.227 49.2992 146.371 49.4717C146.545 49.6804 146.617 49.9735 146.617 50.246H147.617H148.617C148.617 49.6905 148.481 48.8796 147.908 48.1913C147.304 47.4668 146.35 47.038 145.041 47.038V48.038ZM147.617 50.246H146.617C146.617 50.6169 146.532 51.0006 146.414 51.4979C146.306 51.9504 146.157 52.5435 146.157 53.144H147.157H148.157C148.157 52.8245 148.237 52.4746 148.359 51.9611C148.471 51.4924 148.617 50.8871 148.617 50.246H147.617ZM147.157 53.144H146.157C146.157 53.6369 146.262 54.2076 146.625 54.6766C147.021 55.1871 147.609 55.432 148.261 55.432V54.432V53.432C148.183 53.432 148.16 53.4186 148.17 53.4228C148.182 53.4285 148.198 53.4408 148.206 53.4514C148.211 53.4581 148.198 53.4446 148.184 53.3923C148.169 53.339 148.157 53.2575 148.157 53.144H147.157ZM148.261 54.432V55.432C149.241 55.432 150.012 54.9241 150.551 54.4393C151.086 53.958 151.532 53.3645 151.797 53.0386L151.021 52.408L150.245 51.7774C149.911 52.1875 149.598 52.606 149.213 52.9527C148.832 53.2959 148.523 53.432 148.261 53.432V54.432ZM151.021 52.408L151.789 53.0482C152.027 52.7629 152.175 52.6003 152.313 52.4972C152.42 52.4178 152.491 52.396 152.585 52.396V51.396V50.396C151.367 50.396 150.673 51.2634 150.252 51.7678L151.021 52.408ZM152.585 51.396V52.396C152.646 52.396 152.661 52.4061 152.648 52.4006C152.642 52.3979 152.631 52.3926 152.619 52.3839C152.607 52.3751 152.597 52.3652 152.589 52.3554C152.571 52.3353 152.573 52.3273 152.579 52.3488C152.586 52.3719 152.597 52.4204 152.597 52.5H153.597H154.597C154.597 52.0253 154.479 51.4897 154.11 51.0576C153.72 50.6003 153.167 50.396 152.585 50.396V51.396ZM153.597 52.5H152.597C152.597 52.7361 152.509 53.5783 152.246 54.7463C151.989 55.8934 151.578 57.2876 150.967 58.629C149.718 61.3728 147.808 63.552 144.949 63.552V64.552V65.552C149.036 65.552 151.45 62.3952 152.787 59.458C153.47 57.9589 153.919 56.4263 154.198 55.1843C154.472 53.9632 154.597 52.9539 154.597 52.5H153.597ZM144.949 64.552V63.552C143.627 63.552 142.539 63.0901 141.781 62.3049C141.022 61.5188 140.521 60.3326 140.521 58.756H139.521H138.521C138.521 60.7674 139.169 62.4792 140.342 63.6941C141.516 64.9099 143.143 65.552 144.949 65.552V64.552ZM189.937 53.144L189.137 52.544L189.135 52.5462L189.937 53.144ZM180.185 58.02V59.02C185.007 59.02 188.554 56.6712 190.738 53.7418L189.937 53.144L189.135 52.5462C187.272 55.0448 184.287 57.02 180.185 57.02V58.02ZM189.937 53.144L190.737 53.744C191.278 53.0221 191.532 52.6247 191.806 52.3313C192.011 52.1124 192.075 52.12 192.145 52.12V51.12V50.12C191.341 50.12 190.784 50.4956 190.344 50.9667C189.974 51.3633 189.561 51.9779 189.137 52.544L189.937 53.144ZM192.145 51.12V52.12C192.076 52.12 192.011 52.0933 191.973 52.0648C191.946 52.0447 191.964 52.0475 192.001 52.1195C192.079 52.2727 192.157 52.5737 192.157 53.006H193.157H194.157C194.157 52.3803 194.051 51.7383 193.784 51.213C193.513 50.681 192.98 50.12 192.145 50.12V51.12ZM193.157 53.006H192.157C192.157 55.4704 190.392 59.007 187.171 61.9769C183.99 64.9113 179.542 67.14 174.435 67.14V68.14V69.14C180.137 69.14 185.051 66.6537 188.527 63.4471C191.966 60.276 194.157 56.2456 194.157 53.006H193.157ZM174.435 68.14V67.14C169.399 67.14 165.631 65.3534 163.113 62.5651C160.583 59.7621 159.243 55.8642 159.243 51.534H158.243H157.243C157.243 56.2658 158.709 60.6709 161.629 63.9054C164.562 67.1546 168.89 69.14 174.435 69.14V68.14ZM158.243 51.534H159.243C159.243 41.1577 167.232 30.96 178.529 30.96V29.96V28.96C165.905 28.96 157.243 40.2903 157.243 51.534H158.243ZM178.529 29.96V30.96C182.089 30.96 184.909 31.8942 186.816 33.4204C188.704 34.9307 189.765 37.0687 189.765 39.666H190.765H191.765C191.765 36.4673 190.433 33.7523 188.066 31.8586C185.719 29.9808 182.421 28.96 178.529 28.96V29.96ZM190.765 39.666H189.765C189.765 44.0962 186.8 47.498 182.623 47.498V48.498V49.498C188.106 49.498 191.765 44.9878 191.765 39.666H190.765ZM182.623 48.498V47.498C179.436 47.498 178.701 45.6346 178.701 44.956H177.701H176.701C176.701 46.8534 178.449 49.498 182.623 49.498V48.498ZM177.701 44.956H178.701C178.701 45.0173 178.669 44.9801 178.849 44.7367C178.932 44.6245 179.034 44.5022 179.167 44.3427C179.294 44.1903 179.445 44.0098 179.598 43.8113C180.233 42.9836 180.909 41.8198 180.909 40.034H179.909H178.909C178.909 41.2382 178.48 41.9834 178.012 42.5932C177.888 42.754 177.763 42.9035 177.632 43.061C177.506 43.2115 177.366 43.3792 177.242 43.5466C177.008 43.8624 176.701 44.3427 176.701 44.956H177.701ZM179.909 40.034H180.909C180.909 39.2365 180.733 38.4095 180.26 37.7534C179.757 37.0553 178.981 36.642 178.023 36.642V37.642V38.642C178.352 38.642 178.519 38.7577 178.637 38.9221C178.786 39.1285 178.909 39.4975 178.909 40.034H179.909ZM178.023 37.642V36.642C176.956 36.642 175.969 37.1239 175.13 37.8108C174.287 38.5018 173.529 39.4522 172.894 40.5341C171.626 42.6935 170.767 45.5233 170.767 48.268H171.767H172.767C172.767 45.9067 173.517 43.4235 174.619 41.5464C175.168 40.61 175.784 39.8613 176.398 39.3577C177.018 38.8501 177.571 38.642 178.023 38.642V37.642ZM171.767 48.268H170.767C170.767 51.0258 171.405 53.7035 172.937 55.7162C174.501 57.7695 176.912 59.02 180.185 59.02V58.02V57.02C177.478 57.02 175.68 56.0165 174.529 54.5048C173.347 52.9525 172.767 50.7542 172.767 48.268H171.767ZM193.436 55.766L194.406 56.0085L194.766 54.5657L193.294 54.7761L193.436 55.766ZM195.184 50.062L195.026 51.0494L195.64 51.1477L196 50.64L195.184 50.062ZM204.568 52.408L203.799 51.7678L203.791 51.7774L204.568 52.408ZM193.068 58.756H194.068C194.068 57.8724 194.195 56.8498 194.406 56.0085L193.436 55.766L192.465 55.5235C192.216 56.5222 192.068 57.7076 192.068 58.756H193.068ZM193.436 55.766L193.294 54.7761C193.054 54.8103 192.803 54.812 192.47 54.812V55.812V56.812C192.78 56.812 193.173 56.8137 193.577 56.7559L193.436 55.766ZM192.47 55.812V54.812C191.391 54.812 190.25 53.8664 190.25 51.994H189.25H188.25C188.25 54.7216 190.052 56.812 192.47 56.812V55.812ZM189.25 51.994H190.25C190.25 51.2247 190.445 50.493 190.737 49.9863C191.043 49.4558 191.325 49.36 191.458 49.36V48.36V47.36C190.302 47.36 189.48 48.1612 189.004 48.9877C188.514 49.838 188.25 50.9233 188.25 51.994H189.25ZM191.458 48.36V49.36C191.265 49.36 191.152 49.2906 191.182 49.3059C191.194 49.3121 191.233 49.335 191.322 49.3965C191.469 49.4982 191.76 49.7142 192.074 49.915C192.745 50.3449 193.702 50.8377 195.026 51.0494L195.184 50.062L195.341 49.0746C194.365 48.9183 193.666 48.5601 193.153 48.231C192.874 48.0523 192.691 47.9118 192.46 47.7519C192.36 47.6826 192.234 47.5983 192.102 47.5301C191.988 47.4711 191.753 47.36 191.458 47.36V48.36ZM195.184 50.062L196 50.64C196.705 49.6436 197.41 49.038 198.588 49.038V48.038V47.038C196.453 47.038 195.226 48.2724 194.367 49.484L195.184 50.062ZM198.588 48.038V49.038C199.44 49.038 199.774 49.2992 199.918 49.4717C200.092 49.6804 200.164 49.9735 200.164 50.246H201.164H202.164C202.164 49.6905 202.028 48.8796 201.454 48.1913C200.851 47.4668 199.897 47.038 198.588 47.038V48.038ZM201.164 50.246H200.164C200.164 50.6169 200.079 51.0006 199.961 51.4979C199.853 51.9504 199.704 52.5435 199.704 53.144H200.704H201.704C201.704 52.8245 201.784 52.4746 201.906 51.9611C202.018 51.4924 202.164 50.8871 202.164 50.246H201.164ZM200.704 53.144H199.704C199.704 53.6369 199.808 54.2076 200.172 54.6766C200.568 55.1871 201.156 55.432 201.808 55.432V54.432V53.432C201.73 53.432 201.707 53.4186 201.716 53.4228C201.729 53.4285 201.744 53.4408 201.753 53.4514C201.758 53.4581 201.745 53.4446 201.731 53.3923C201.716 53.339 201.704 53.2575 201.704 53.144H200.704ZM201.808 54.432V55.432C202.787 55.432 203.559 54.9241 204.098 54.4393C204.633 53.958 205.079 53.3645 205.344 53.0386L204.568 52.408L203.791 51.7774C203.458 52.1875 203.145 52.606 202.76 52.9527C202.379 53.2959 202.07 53.432 201.808 53.432V54.432ZM204.568 52.408L205.336 53.0482C205.573 52.7629 205.722 52.6003 205.86 52.4972C205.967 52.4178 206.038 52.396 206.132 52.396V51.396V50.396C204.913 50.396 204.22 51.2634 203.799 51.7678L204.568 52.408ZM206.132 51.396V52.396C206.193 52.396 206.208 52.4061 206.195 52.4006C206.189 52.3979 206.178 52.3926 206.166 52.3839C206.154 52.3751 206.144 52.3652 206.135 52.3554C206.118 52.3353 206.12 52.3273 206.126 52.3488C206.133 52.3719 206.144 52.4204 206.144 52.5H207.144H208.144C208.144 52.0253 208.026 51.4897 207.657 51.0576C207.267 50.6003 206.714 50.396 206.132 50.396V51.396ZM207.144 52.5H206.144C206.144 52.7361 206.055 53.5783 205.793 54.7463C205.536 55.8934 205.125 57.2876 204.514 58.629C203.264 61.3728 201.355 63.552 198.496 63.552V64.552V65.552C202.582 65.552 204.997 62.3952 206.334 59.458C207.017 57.9589 207.466 56.4263 207.745 55.1843C208.019 53.9632 208.144 52.9539 208.144 52.5H207.144ZM198.496 64.552V63.552C197.173 63.552 196.086 63.0901 195.328 62.3049C194.569 61.5188 194.068 60.3326 194.068 58.756H193.068H192.068C192.068 60.7674 192.716 62.4792 193.889 63.6941C195.063 64.9099 196.69 65.552 198.496 65.552V64.552ZM218.123 52.408L217.291 51.8533L217.288 51.8584L218.123 52.408ZM209.889 56.226L210.231 55.2862L207.279 54.2129L209.067 56.7952L209.889 56.226ZM209.751 54.156L208.786 53.8929L208.518 54.8784L209.509 55.1261L209.751 54.156ZM212.005 57.1V58.1C216.252 58.1 217.939 54.5078 218.959 52.9576L218.123 52.408L217.288 51.8584C216.008 53.8042 214.934 56.1 212.005 56.1V57.1ZM218.123 52.408L218.955 52.9627C219.313 52.4258 219.596 52.35 219.733 52.35V51.35V50.35C218.674 50.35 217.853 51.0102 217.291 51.8533L218.123 52.408ZM219.733 51.35V52.35C219.679 52.35 219.633 52.3358 219.602 52.3196C219.572 52.304 219.561 52.2897 219.562 52.2909C219.564 52.2932 219.607 52.3526 219.607 52.5H220.607H221.607C221.607 51.4775 220.942 50.35 219.733 50.35V51.35ZM220.607 52.5H219.607C219.607 54.6649 218.741 57.466 217.024 59.7128C215.324 61.9364 212.848 63.552 209.613 63.552V64.552V65.552C213.6 65.552 216.621 63.5336 218.613 60.9272C220.587 58.344 221.607 55.1191 221.607 52.5H220.607ZM209.613 64.552V63.552C207.562 63.552 206.106 62.8428 205.155 61.7975C204.19 60.7375 203.667 59.2446 203.667 57.56H202.667H201.667C201.667 59.6474 202.317 61.6505 203.675 63.1435C205.047 64.6512 207.064 65.552 209.613 65.552V64.552ZM202.667 57.56H203.667C203.667 53.3075 206.914 49.314 211.361 49.314V48.314V47.314C205.596 47.314 201.667 52.4285 201.667 57.56H202.667ZM211.361 48.314V49.314C212.757 49.314 213.807 49.6837 214.485 50.2271C215.144 50.7553 215.513 51.4912 215.513 52.408H216.513H217.513C217.513 50.8868 216.87 49.5757 215.735 48.6664C214.62 47.7723 213.093 47.314 211.361 47.314V48.314ZM216.513 52.408H215.513C215.513 53.4045 215.057 54.1434 214.342 54.6651C213.602 55.2058 212.586 55.502 211.591 55.502V56.502V57.502C212.942 57.502 214.388 57.1082 215.522 56.2804C216.681 55.4336 217.513 54.1255 217.513 52.408H216.513ZM211.591 56.502V55.502C211.087 55.502 210.608 55.4234 210.231 55.2862L209.889 56.226L209.547 57.1658C210.182 57.3966 210.899 57.502 211.591 57.502V56.502ZM209.889 56.226L209.067 56.7952C209.752 57.7848 210.986 58.1 212.005 58.1V57.1V56.1C211.276 56.1 210.854 55.8632 210.711 55.6568L209.889 56.226ZM211.499 52.592V51.592C210.968 51.592 210.389 51.8625 209.948 52.2009C209.472 52.5656 208.995 53.1291 208.786 53.8929L209.751 54.156L210.716 54.4191C210.784 54.1709 210.95 53.9524 211.165 53.7881C211.27 53.7075 211.372 53.6516 211.452 53.6186C211.545 53.5802 211.56 53.592 211.499 53.592V52.592ZM209.751 54.156L209.509 55.1261C209.831 55.2068 210.138 55.202 210.303 55.202V54.202V53.202C210.101 53.202 210.039 53.1972 209.994 53.1859L209.751 54.156ZM210.303 54.202V55.202C211.086 55.202 211.74 54.938 212.211 54.5422C212.646 54.177 213.005 53.621 213.005 53.006H212.005H211.005C211.005 52.9139 211.031 52.8814 211.018 52.9061C211.008 52.9242 210.98 52.9644 210.925 53.0108C210.821 53.098 210.625 53.202 210.303 53.202V54.202ZM212.005 53.006H213.005C213.005 52.61 212.84 52.2276 212.528 51.9571C212.224 51.6934 211.848 51.592 211.499 51.592V52.592V53.592C211.472 53.592 211.35 53.5826 211.218 53.4684C211.078 53.3474 211.005 53.172 211.005 53.006H212.005ZM226.447 62.436L227.322 61.9529L226.563 60.5763L225.638 61.8478L226.447 62.436ZM228.241 49.924L227.667 50.7432L228.227 51.135L228.795 50.7561L228.241 49.924ZM231.507 52.914H230.507C230.507 53.4972 230.613 54.1237 230.982 54.6266C231.391 55.1837 232.002 55.432 232.657 55.432V54.432V53.432C232.579 53.432 232.557 53.4185 232.567 53.4231C232.571 53.4252 232.579 53.4293 232.586 53.4352C232.593 53.4411 232.596 53.4451 232.595 53.4439C232.584 53.4293 232.507 53.2968 232.507 52.914H231.507ZM232.657 54.432V55.432C233.494 55.432 234.193 55.0641 234.752 54.611C235.305 54.1632 235.79 53.5766 236.217 53.008L235.417 52.408L234.617 51.808C234.215 52.3434 233.849 52.7688 233.493 53.057C233.144 53.3399 232.877 53.432 232.657 53.432V54.432ZM235.417 52.408L236.217 53.008C236.613 52.4793 236.81 52.396 236.981 52.396V51.396V50.396C235.771 50.396 235.048 51.2327 234.617 51.808L235.417 52.408ZM236.981 51.396V52.396C237.042 52.396 237.057 52.4061 237.044 52.4006C237.038 52.3979 237.027 52.3926 237.015 52.3839C237.003 52.3751 236.993 52.3652 236.985 52.3554C236.967 52.3353 236.969 52.3273 236.975 52.3488C236.982 52.3719 236.993 52.4204 236.993 52.5H237.993H238.993C238.993 52.0253 238.875 51.4897 238.506 51.0576C238.116 50.6003 237.563 50.396 236.981 50.396V51.396ZM237.993 52.5H236.993C236.993 52.7305 236.898 53.5598 236.635 54.7231C236.377 55.8611 235.975 57.2447 235.396 58.576C234.193 61.3451 232.454 63.414 230.081 63.414V64.414V65.414C233.779 65.414 235.996 62.2159 237.231 59.373C237.871 57.8983 238.308 56.3896 238.586 55.1644C238.857 53.9645 238.993 52.9594 238.993 52.5H237.993ZM230.081 64.414V63.414C229.355 63.414 228.803 63.277 228.378 63.0464C227.961 62.8196 227.608 62.4715 227.322 61.9529L226.447 62.436L225.571 62.9191C226.021 63.7345 226.635 64.3754 227.424 64.8041C228.207 65.229 229.104 65.414 230.081 65.414V64.414ZM226.447 62.436L225.638 61.8478C224.767 63.0458 223.497 63.552 221.939 63.552V64.552V65.552C223.968 65.552 225.919 64.8622 227.255 63.0242L226.447 62.436ZM221.939 64.552V63.552C218.99 63.552 217.189 61.0238 217.189 58.158H216.189H215.189C215.189 61.7322 217.527 65.552 221.939 65.552V64.552ZM216.189 58.158H217.189C217.189 53.0813 221.036 49.866 224.653 49.866V48.866V47.866C219.898 47.866 215.189 52.0107 215.189 58.158H216.189ZM224.653 48.866V49.866C225.845 49.866 226.929 50.2265 227.667 50.7432L228.241 49.924L228.814 49.1048C227.712 48.3335 226.22 47.866 224.653 47.866V48.866ZM228.241 49.924L228.795 50.7561C229.197 50.4882 229.742 50.326 230.127 50.326V49.326V48.326C229.315 48.326 228.388 48.6238 227.686 49.0919L228.241 49.924ZM230.127 49.326V50.326C230.426 50.326 230.601 50.4112 230.681 50.4774C230.746 50.5308 230.783 50.5937 230.783 50.706H231.783H232.783C232.783 49.9903 232.474 49.3632 231.953 48.9336C231.446 48.5168 230.794 48.326 230.127 48.326V49.326ZM231.783 50.706H230.783C230.783 50.8904 230.738 51.1247 230.661 51.5422C230.592 51.9155 230.507 52.3988 230.507 52.914H231.507H232.507C232.507 52.6012 232.559 52.2795 232.628 51.9053C232.689 51.5753 232.783 51.1196 232.783 50.706H231.783ZM225.159 56.364V57.364C226.099 57.364 226.858 56.9486 227.358 56.3036C227.837 55.6854 228.045 54.9043 228.045 54.156H227.045H226.045C226.045 54.5577 225.93 54.8806 225.777 55.0789C225.644 55.2504 225.461 55.364 225.159 55.364V56.364ZM227.045 54.156H228.045C228.045 53.8447 227.982 53.2503 227.645 52.6979C227.266 52.0758 226.582 51.592 225.573 51.592V52.592V53.592C225.741 53.592 225.818 53.6279 225.847 53.6447C225.878 53.6625 225.907 53.6896 225.938 53.7396C225.971 53.7943 226 53.8688 226.02 53.9566C226.04 54.0442 226.045 54.1196 226.045 54.156H227.045ZM225.573 52.592V51.592C224.627 51.592 223.891 52.0761 223.423 52.6975C222.966 53.303 222.733 54.0699 222.733 54.8H223.733H224.733C224.733 54.4721 224.844 54.135 225.02 53.901C225.184 53.6829 225.368 53.592 225.573 53.592V52.592ZM223.733 54.8H222.733C222.733 55.364 222.872 56.0003 223.285 56.5172C223.726 57.0681 224.384 57.364 225.159 57.364V56.364V55.364C225.028 55.364 224.956 55.3407 224.921 55.325C224.888 55.3102 224.867 55.2924 224.847 55.2678C224.8 55.2097 224.733 55.064 224.733 54.8H223.733ZM248.018 52.408L247.25 51.7678L247.242 51.7774L248.018 52.408ZM235.874 52.822L236.873 52.8844L236.939 51.822H235.874V52.822ZM236.334 49.188L236.702 50.1182L237.214 49.9158L237.317 49.3742L236.334 49.188ZM245.304 43.944L244.349 43.6499L244.347 43.6567L244.345 43.6636L245.304 43.944ZM244.108 48.038L243.149 47.7576L242.775 49.038H244.108V48.038ZM243.188 52.5V51.5H242.188V52.5H243.188ZM243.188 52.914H242.188C242.188 53.5175 242.314 54.2016 242.739 54.7572C243.197 55.3576 243.892 55.662 244.706 55.662V54.662V53.662C244.549 53.662 244.461 53.6344 244.418 53.6147C244.378 53.5967 244.352 53.5749 244.328 53.5433C244.269 53.4664 244.188 53.2765 244.188 52.914H243.188ZM244.706 54.662V55.662C245.823 55.662 246.724 55.1207 247.37 54.5747C248.015 54.0298 248.515 53.3827 248.795 53.0386L248.018 52.408L247.242 51.7774C246.924 52.1693 246.55 52.6492 246.079 53.0473C245.609 53.4443 245.154 53.662 244.706 53.662V54.662ZM248.018 52.408L248.787 53.0482C249.024 52.7629 249.173 52.6003 249.311 52.4972C249.418 52.4178 249.489 52.396 249.582 52.396V51.396V50.396C248.364 50.396 247.671 51.2634 247.25 51.7678L248.018 52.408ZM249.582 51.396V52.396C249.644 52.396 249.659 52.4061 249.646 52.4006C249.64 52.3979 249.629 52.3926 249.617 52.3839C249.605 52.3751 249.595 52.3652 249.586 52.3554C249.569 52.3353 249.571 52.3273 249.577 52.3488C249.584 52.3719 249.594 52.4204 249.594 52.5H250.594H251.594C251.594 52.0253 251.477 51.4897 251.108 51.0576C250.718 50.6003 250.165 50.396 249.582 50.396V51.396ZM250.594 52.5H249.594C249.594 53.0432 249.224 55.914 247.978 58.626C246.726 61.3508 244.775 63.552 241.762 63.552V64.552V65.552C245.972 65.552 248.437 62.4172 249.795 59.461C251.16 56.492 251.594 53.3368 251.594 52.5H250.594ZM241.762 64.552V63.552C240.247 63.552 239.03 62.9027 238.165 61.7669C237.283 60.608 236.736 58.8943 236.736 56.778H235.736H234.736C234.736 59.2157 235.363 61.389 236.574 62.9786C237.802 64.5913 239.598 65.552 241.762 65.552V64.552ZM235.736 56.778H236.736C236.736 55.6989 236.782 54.3402 236.873 52.8844L235.874 52.822L234.876 52.7596C234.783 54.2478 234.736 55.6491 234.736 56.778H235.736ZM235.874 52.822V51.822C235.491 51.822 235.242 51.7927 235.085 51.7555C234.931 51.7191 234.912 51.686 234.937 51.7083C235.017 51.7807 234.942 51.8356 234.942 51.396H233.942H232.942C232.942 51.8764 232.982 52.6443 233.604 53.1997C234.173 53.7085 234.998 53.822 235.874 53.822V52.822ZM233.942 51.396H234.942C234.942 51.4134 234.938 51.2721 235.195 51.011C235.449 50.7533 235.915 50.4288 236.702 50.1182L236.334 49.188L235.967 48.2578C235.006 48.6372 234.276 49.0947 233.771 49.6075C233.269 50.1169 232.942 50.7346 232.942 51.396H233.942ZM236.334 49.188L237.317 49.3742C237.722 47.236 238.337 45.2555 239.247 43.8333C240.138 42.4406 241.24 41.678 242.682 41.678V40.678V39.678C240.353 39.678 238.695 40.9854 237.562 42.7552C236.448 44.4955 235.775 46.77 235.352 49.0018L236.334 49.188ZM242.682 40.678V41.678C243.395 41.678 243.918 41.8789 244.237 42.1123C244.571 42.3559 244.626 42.5794 244.626 42.656H245.626H246.626C246.626 41.7666 246.107 41.0011 245.417 40.4972C244.713 39.9831 243.764 39.678 242.682 39.678V40.678ZM245.626 42.656H244.626C244.626 42.6251 244.63 42.6287 244.619 42.6869C244.609 42.7389 244.593 42.811 244.567 42.9075C244.516 43.1026 244.442 43.3472 244.349 43.6499L245.304 43.944L246.26 44.2381C246.351 43.9428 246.438 43.6584 246.502 43.4165C246.558 43.2028 246.626 42.9156 246.626 42.656H245.626ZM245.304 43.944L244.345 43.6636L243.149 47.7576L244.108 48.038L245.068 48.3184L246.264 44.2244L245.304 43.944ZM244.108 48.038V49.038H244.798V48.038V47.038H244.108V48.038ZM244.798 48.038V49.038C245.803 49.038 246.295 49.2038 246.506 49.3351C246.645 49.4215 246.65 49.4738 246.65 49.556H247.65H248.65C248.65 48.8102 248.311 48.1035 247.564 47.6379C246.889 47.2172 245.956 47.038 244.798 47.038V48.038ZM247.65 49.556H246.65C246.65 50.6839 245.697 51.546 244.568 51.546V52.546V53.546C246.66 53.546 248.65 51.9241 248.65 49.556H247.65ZM244.568 52.546V51.546C244.392 51.546 244.201 51.5362 243.963 51.5242C243.734 51.5128 243.469 51.5 243.188 51.5V52.5V53.5C243.414 53.5 243.632 53.5102 243.863 53.5218C244.085 53.5328 244.331 53.546 244.568 53.546V52.546ZM243.188 52.5H242.188V52.914H243.188H244.188V52.5H243.188ZM257.836 49.97L257.128 50.6771L257.565 51.1141L258.152 50.9187L257.836 49.97ZM254.616 48.774V49.774C255.843 49.774 256.64 50.1887 257.128 50.6771L257.836 49.97L258.543 49.2629C257.651 48.3713 256.332 47.774 254.616 47.774V48.774ZM257.836 49.97L258.152 50.9187C258.122 50.9285 258.106 50.9282 258.125 50.9268C258.136 50.926 258.153 50.9251 258.183 50.9246C258.214 50.924 258.248 50.924 258.296 50.924V49.924V48.924C258.147 48.924 257.839 48.9147 257.519 49.0213L257.836 49.97ZM258.296 49.924V50.924C259.313 50.924 260.062 51.4132 260.594 52.187C261.145 52.9887 261.436 54.0709 261.436 55.076H262.436H263.436C263.436 53.7351 263.059 52.2413 262.242 51.0535C261.405 49.8378 260.084 48.924 258.296 48.924V49.924ZM262.436 55.076H261.436C261.436 57.7392 260.531 59.8439 259.095 61.2804C257.656 62.7191 255.619 63.552 253.236 63.552V64.552V65.552C256.096 65.552 258.659 64.5449 260.509 62.6946C262.362 60.8421 263.436 58.2088 263.436 55.076H262.436ZM253.236 64.552V63.552C251.183 63.552 249.686 62.841 248.698 61.7868C247.7 60.7214 247.152 59.2297 247.152 57.56H246.152H245.152C245.152 59.6623 245.845 61.6666 247.239 63.1542C248.643 64.653 250.688 65.552 253.236 65.552V64.552ZM246.152 57.56H247.152C247.152 53.3677 250.481 49.774 254.616 49.774V48.774V47.774C249.274 47.774 245.152 52.3683 245.152 57.56H246.152ZM254.616 56.364V57.364C255.555 57.364 256.315 56.9486 256.815 56.3036C257.294 55.6854 257.502 54.9043 257.502 54.156H256.502H255.502C255.502 54.5577 255.387 54.8806 255.234 55.0789C255.101 55.2504 254.918 55.364 254.616 55.364V56.364ZM256.502 54.156H257.502C257.502 53.8447 257.439 53.2503 257.102 52.6979C256.723 52.0758 256.039 51.592 255.03 51.592V52.592V53.592C255.198 53.592 255.275 53.6279 255.304 53.6447C255.335 53.6625 255.364 53.6896 255.395 53.7396C255.428 53.7943 255.457 53.8688 255.477 53.9566C255.497 54.0442 255.502 54.1196 255.502 54.156H256.502ZM255.03 52.592V51.592C254.084 51.592 253.348 52.0761 252.88 52.6975C252.423 53.303 252.19 54.0699 252.19 54.8H253.19H254.19C254.19 54.4721 254.301 54.135 254.477 53.901C254.641 53.6829 254.825 53.592 255.03 53.592V52.592ZM253.19 54.8H252.19C252.19 55.364 252.329 56.0003 252.742 56.5172C253.183 57.0681 253.841 57.364 254.616 57.364V56.364V55.364C254.485 55.364 254.413 55.3407 254.378 55.325C254.345 55.3102 254.324 55.2924 254.304 55.2678C254.257 55.2097 254.19 55.064 254.19 54.8H253.19ZM265.311 55.766L266.281 56.0085L266.641 54.5657L265.169 54.7761L265.311 55.766ZM267.059 50.062L266.901 51.0494L267.515 51.1477L267.875 50.64L267.059 50.062ZM276.443 52.408L275.674 51.7678L275.666 51.7774L276.443 52.408ZM264.943 58.756H265.943C265.943 57.8724 266.07 56.8498 266.281 56.0085L265.311 55.766L264.34 55.5235C264.091 56.5222 263.943 57.7076 263.943 58.756H264.943ZM265.311 55.766L265.169 54.7761C264.929 54.8103 264.678 54.812 264.345 54.812V55.812V56.812C264.655 56.812 265.048 56.8137 265.452 56.7559L265.311 55.766ZM264.345 55.812V54.812C263.266 54.812 262.125 53.8664 262.125 51.994H261.125H260.125C260.125 54.7216 261.927 56.812 264.345 56.812V55.812ZM261.125 51.994H262.125C262.125 51.2247 262.32 50.493 262.612 49.9863C262.918 49.4558 263.2 49.36 263.333 49.36V48.36V47.36C262.177 47.36 261.355 48.1612 260.879 48.9877C260.389 49.838 260.125 50.9233 260.125 51.994H261.125ZM263.333 48.36V49.36C263.14 49.36 263.027 49.2906 263.057 49.3059C263.069 49.3121 263.108 49.335 263.197 49.3965C263.344 49.4982 263.635 49.7142 263.949 49.915C264.62 50.3449 265.577 50.8377 266.901 51.0494L267.059 50.062L267.216 49.0746C266.24 48.9183 265.541 48.5601 265.028 48.231C264.749 48.0523 264.566 47.9118 264.335 47.7519C264.235 47.6826 264.109 47.5983 263.977 47.5301C263.863 47.4711 263.628 47.36 263.333 47.36V48.36ZM267.059 50.062L267.875 50.64C268.58 49.6436 269.285 49.038 270.463 49.038V48.038V47.038C268.328 47.038 267.101 48.2724 266.242 49.484L267.059 50.062ZM270.463 48.038V49.038C271.315 49.038 271.649 49.2992 271.793 49.4717C271.967 49.6804 272.039 49.9735 272.039 50.246H273.039H274.039C274.039 49.6905 273.903 48.8796 273.329 48.1913C272.726 47.4668 271.772 47.038 270.463 47.038V48.038ZM273.039 50.246H272.039C272.039 50.6169 271.954 51.0006 271.836 51.4979C271.728 51.9504 271.579 52.5435 271.579 53.144H272.579H273.579C273.579 52.8245 273.659 52.4746 273.781 51.9611C273.893 51.4924 274.039 50.8871 274.039 50.246H273.039ZM272.579 53.144H271.579C271.579 53.6369 271.683 54.2076 272.047 54.6766C272.443 55.1871 273.031 55.432 273.683 55.432V54.432V53.432C273.605 53.432 273.582 53.4186 273.591 53.4228C273.604 53.4285 273.619 53.4408 273.628 53.4514C273.633 53.4581 273.62 53.4446 273.606 53.3923C273.591 53.339 273.579 53.2575 273.579 53.144H272.579ZM273.683 54.432V55.432C274.662 55.432 275.434 54.9241 275.973 54.4393C276.508 53.958 276.954 53.3645 277.219 53.0386L276.443 52.408L275.666 51.7774C275.333 52.1875 275.02 52.606 274.635 52.9527C274.254 53.2959 273.945 53.432 273.683 53.432V54.432ZM276.443 52.408L277.211 53.0482C277.448 52.7629 277.597 52.6003 277.735 52.4972C277.842 52.4178 277.913 52.396 278.007 52.396V51.396V50.396C276.788 50.396 276.095 51.2634 275.674 51.7678L276.443 52.408ZM278.007 51.396V52.396C278.068 52.396 278.083 52.4061 278.07 52.4006C278.064 52.3979 278.053 52.3926 278.041 52.3839C278.029 52.3751 278.019 52.3652 278.01 52.3554C277.993 52.3353 277.995 52.3273 278.001 52.3488C278.008 52.3719 278.019 52.4204 278.019 52.5H279.019H280.019C280.019 52.0253 279.901 51.4897 279.532 51.0576C279.142 50.6003 278.589 50.396 278.007 50.396V51.396ZM279.019 52.5H278.019C278.019 52.7361 277.93 53.5783 277.668 54.7463C277.411 55.8934 277 57.2876 276.389 58.629C275.139 61.3728 273.23 63.552 270.371 63.552V64.552V65.552C274.457 65.552 276.872 62.3952 278.209 59.458C278.892 57.9589 279.341 56.4263 279.62 55.1843C279.894 53.9632 280.019 52.9539 280.019 52.5H279.019ZM270.371 64.552V63.552C269.048 63.552 267.961 63.0901 267.203 62.3049C266.444 61.5188 265.943 60.3326 265.943 58.756H264.943H263.943C263.943 60.7674 264.591 62.4792 265.764 63.6941C266.938 64.9099 268.565 65.552 270.371 65.552V64.552Z" fill="#16070E" mask="url(#path-1-outside-1_214870_161)"/>
<path d="M132.165 1.98755C132.46 0.96683 133.519 0.37028 134.539 0.674072L134.725 0.739502C135.624 1.11186 136.107 2.11898 135.832 3.07251C135.362 4.70118 135.255 6.56641 135.354 8.26099C135.454 9.95856 135.756 11.4409 136.075 12.2991C136.884 14.4737 138.112 16.0825 139.735 17.1516C141.361 18.2226 143.422 18.7776 145.937 18.7776C149.488 18.7775 151.625 17.5759 152.78 16.6008C154.179 15.4201 154.95 13.8622 154.95 12.3459C154.95 10.9027 154.586 9.41205 153.999 8.36938V8.36841C153.367 7.24508 152.611 6.78254 151.676 6.78247C150.619 6.78247 149.897 6.99822 149.506 7.31274C149.197 7.56127 149.002 7.958 149.002 8.677C149.002 9.38477 149.254 9.88013 149.59 10.1194C149.878 10.3242 150.279 10.3819 150.762 10.2024H150.763C151.761 9.83185 152.857 10.3574 153.216 11.3577C153.573 12.3537 153.073 13.4654 152.079 13.8352C150.46 14.4372 148.746 14.247 147.395 13.2854C145.971 12.2731 145.182 10.579 145.182 8.677C145.182 6.36334 146.228 5.00878 147.13 4.28345C148.283 3.35559 149.83 2.91333 151.676 2.91333C152.94 2.91337 154.105 3.27106 155.127 3.97681C156.001 4.58077 156.736 5.41809 157.318 6.45239C158.248 8.10338 158.77 10.2487 158.771 12.3459L158.767 12.5999C158.688 15.2173 157.396 17.7422 155.227 19.5735C154.073 20.547 152.711 21.303 151.183 21.8235C149.572 22.3722 147.806 22.6477 145.937 22.6477C142.659 22.6477 139.807 21.8573 137.486 20.2717C135.229 18.7298 133.555 16.4978 132.501 13.6633C131.997 12.3083 131.651 10.4182 131.539 8.47583C131.445 6.84576 131.473 4.38468 132.165 1.98755Z" fill="#FAEFF4" stroke="#16070E"/>
<path d="M162.423 2.39844C163.803 0.870516 165.495 0.332665 167.11 0.543945C168.707 0.752941 170.189 1.68731 171.209 3.02344C171.995 4.05337 171.564 5.56602 170.355 6.02051C169.568 6.31642 168.682 6.05848 168.173 5.38477C167.722 4.78835 167.107 4.35743 166.428 4.38281H166.421L166.413 4.38379C165.884 4.38729 165.347 4.75551 164.807 5.58496C164.277 6.40055 163.821 7.54854 163.43 8.84375C162.896 10.6176 162.506 12.5917 162.202 14.2324C162.612 12.9806 163.288 11.7318 164.161 10.793C164.801 10.104 165.571 9.55739 166.448 9.32324C167.337 9.08579 168.296 9.1812 169.27 9.70801L169.285 9.71582L169.299 9.72461C170.059 10.201 170.597 10.8132 170.915 11.4961C171.145 10.248 171.516 8.63798 172.09 7.02539C172.745 5.18423 173.682 3.29594 175.017 1.94629C175.766 1.18927 176.98 1.1934 177.724 1.95508C178.464 2.71233 178.46 3.93316 177.716 4.68555C176.467 5.94783 175.361 8.56903 174.706 12.0176C174.786 11.9516 174.866 11.8856 174.948 11.8213C176.648 10.4899 178.5 9.83406 180.59 9.83398C181.575 9.83398 182.374 10.5856 182.485 11.54L182.5 11.5547L182.501 11.7578C182.507 12.8265 181.626 13.7012 180.574 13.7041C179.603 13.7069 178.785 13.9553 178.053 14.3711C178.167 14.652 178.274 14.9468 178.378 15.2373C178.666 16.049 178.925 16.7153 179.233 17.2041C179.535 17.6831 179.843 17.9271 180.209 18C181.25 18.2075 181.915 19.2287 181.715 20.2686C181.514 21.3111 180.515 22.0047 179.471 21.7969C178.164 21.5363 177.08 20.7947 176.248 19.6348L176.085 19.3975C176.008 19.2804 175.936 19.1614 175.866 19.042C175.799 19.4689 175.721 19.8809 175.613 20.2588C175.483 20.7116 175.315 21.1035 175.093 21.4355L174.994 21.5732C174.509 22.2145 173.808 22.5879 173.022 22.5879C172.787 22.5879 172.385 22.5457 171.963 22.3105C171.663 22.1435 171.372 21.8871 171.127 21.5127C169.631 22.6266 167.729 23.1072 166.019 22.835C164.24 22.5515 162.668 21.4494 162.031 19.4404C161.962 19.4498 161.892 19.4607 161.822 19.4697C161.638 19.4933 161.432 19.5433 161.206 19.6201C160.87 21.2272 160.488 23.3612 159.784 25.1182C159.047 26.9581 157.856 28.6265 155.767 28.6738H155.746C153.677 28.6313 151.913 27.1217 152.037 24.8857L152.038 24.8789C152.15 23.2444 153.037 21.6288 154.166 20.2559C155.244 18.9434 156.584 17.8051 157.807 17.0205C158.258 14.7043 158.669 11.9562 159.303 9.40137C159.959 6.76484 160.878 4.22211 162.413 2.41113L162.418 2.4043L162.423 2.39844ZM170.407 15.6035C169.911 16.3198 169.209 16.9713 168.323 17.4941C167.607 17.9279 166.775 18.2966 165.839 18.6035C165.88 18.6673 165.925 18.7221 165.979 18.7686C166.125 18.8933 166.402 19.0253 167.005 19.0381C168.222 19.0363 169.136 18.3541 170.353 16.9346C170.36 16.5057 170.378 16.0599 170.407 15.6035ZM167.407 13.0859C167.335 13.1073 167.235 13.1584 167.109 13.2646C166.951 13.3985 166.784 13.5921 166.62 13.8291C166.553 13.9254 166.489 14.0263 166.427 14.1299C166.514 14.0758 166.598 14.0211 166.677 13.9639C167.129 13.64 167.369 13.3355 167.424 13.1025C167.424 13.1003 167.423 13.0984 167.424 13.0967C167.419 13.0931 167.413 13.0895 167.407 13.0859Z" fill="#FAEFF4" stroke="#16070E"/>
<mask id="path-5-outside-2_214870_161" maskUnits="userSpaceOnUse" x="74" y="18" width="31" height="27" fill="black">
<rect fill="white" x="74" y="18" width="31" height="27"/>
<path d="M101.11 31.9004C102.708 31.8957 103.465 33.1261 103.47 34.6553C103.484 36.9541 101.872 39.1747 99.6934 39.1895C99.1821 39.1894 98.7103 39.0613 98.3711 38.8506C98.3809 41.0212 98.8327 41.8943 98.833 42.125C98.8379 42.9974 97.7321 43.7127 96.3457 43.7129C95.1509 43.7178 94.2901 43.0027 94.2803 41.0029C94.2754 40.052 94.3292 38.6253 94.4521 37.2676L94.335 37.3652C94.0546 37.5834 93.7272 37.7374 93.3701 37.8018C92.8243 38.9732 91.7378 39.748 90.4102 39.7529C88.7335 39.7627 87.8184 38.596 87.8135 37.2236C87.8036 35.518 89.1561 34.0227 90.8867 34.0127C91.4912 34.0127 91.8948 34.2432 92.1309 34.542C92.18 34.5273 92.2146 34.5273 92.2637 34.5273C93.2373 34.5224 93.6949 35.1209 93.749 35.9248C94.3292 35.6846 94.5406 35.2875 94.8799 34.3906L94.8848 34.376C94.9143 34.2682 94.9441 34.1702 94.9736 34.082C95.3326 33.0184 96.2866 32.1602 97.2061 32.1553C97.9531 32.1505 98.3807 32.6161 98.3857 33.2139C98.3857 33.2972 98.3859 33.4058 98.3613 33.5332C98.9366 32.6803 99.8073 31.9102 101.11 31.9004ZM86.6631 19C93.424 19 98.3758 22.4453 98.376 26.8027C98.376 31.1601 94.8702 33.743 90.3467 33.7432C89.6583 33.7432 88.9251 33.6948 88.1875 33.5674C87.3762 36.9101 85.8517 40.0029 81.8838 40.0029C79.3172 40.0028 77.0557 38.5074 77.0557 35.5176V35.5127C77.0558 33.7926 78.2009 32.019 79.3906 32.0186C79.7742 32.0186 79.9764 32.6016 80.8418 32.6016C84.8046 32.6013 81.8842 23.8381 87.627 23.8379C88.9988 23.8379 90.2675 24.3962 90.2676 24.9795C90.2676 25.3618 89.9629 25.259 89.5303 26.5771C89.2008 27.5673 88.9939 28.9842 88.7432 30.5527C90.9557 30.2489 92.5789 28.7294 92.5791 26.6758C92.5791 24.372 90.5723 23.0781 87.9023 23.0781C84.0427 23.0782 82.0861 25.5578 82.0859 28.1162C82.0859 28.9787 82.3905 28.9547 82.3906 29.3809C82.3906 30.317 80.8663 31.1796 79.165 31.1797C76.9032 31.1797 75 29.4593 75 27.0771C75.0002 20.9505 81.9133 19.0001 86.6631 19ZM91.0449 35.4004C90.6761 35.4053 90.376 35.7727 90.376 36.209C90.3809 36.5423 90.5483 36.7774 90.9023 36.7725C91.0153 36.7724 91.1333 36.7579 91.2168 36.7041C91.1332 36.4737 91.0791 36.2041 91.0791 35.9395C91.0791 35.768 91.1129 35.5865 91.1768 35.4199C91.1279 35.4005 91.0937 35.4004 91.0449 35.4004ZM99.9688 34.0127C99.5165 34.0179 99.0935 34.4887 98.8428 35.1895C99.0148 35.4002 99.2904 35.5273 99.5264 35.5273C99.9737 35.5273 100.441 35.0575 100.441 34.543C100.436 34.2685 100.288 34.0127 99.9688 34.0127Z"/>
</mask>
<path d="M101.11 31.9004C102.708 31.8957 103.465 33.1261 103.47 34.6553C103.484 36.9541 101.872 39.1747 99.6934 39.1895C99.1821 39.1894 98.7103 39.0613 98.3711 38.8506C98.3809 41.0212 98.8327 41.8943 98.833 42.125C98.8379 42.9974 97.7321 43.7127 96.3457 43.7129C95.1509 43.7178 94.2901 43.0027 94.2803 41.0029C94.2754 40.052 94.3292 38.6253 94.4521 37.2676L94.335 37.3652C94.0546 37.5834 93.7272 37.7374 93.3701 37.8018C92.8243 38.9732 91.7378 39.748 90.4102 39.7529C88.7335 39.7627 87.8184 38.596 87.8135 37.2236C87.8036 35.518 89.1561 34.0227 90.8867 34.0127C91.4912 34.0127 91.8948 34.2432 92.1309 34.542C92.18 34.5273 92.2146 34.5273 92.2637 34.5273C93.2373 34.5224 93.6949 35.1209 93.749 35.9248C94.3292 35.6846 94.5406 35.2875 94.8799 34.3906L94.8848 34.376C94.9143 34.2682 94.9441 34.1702 94.9736 34.082C95.3326 33.0184 96.2866 32.1602 97.2061 32.1553C97.9531 32.1505 98.3807 32.6161 98.3857 33.2139C98.3857 33.2972 98.3859 33.4058 98.3613 33.5332C98.9366 32.6803 99.8073 31.9102 101.11 31.9004ZM86.6631 19C93.424 19 98.3758 22.4453 98.376 26.8027C98.376 31.1601 94.8702 33.743 90.3467 33.7432C89.6583 33.7432 88.9251 33.6948 88.1875 33.5674C87.3762 36.9101 85.8517 40.0029 81.8838 40.0029C79.3172 40.0028 77.0557 38.5074 77.0557 35.5176V35.5127C77.0558 33.7926 78.2009 32.019 79.3906 32.0186C79.7742 32.0186 79.9764 32.6016 80.8418 32.6016C84.8046 32.6013 81.8842 23.8381 87.627 23.8379C88.9988 23.8379 90.2675 24.3962 90.2676 24.9795C90.2676 25.3618 89.9629 25.259 89.5303 26.5771C89.2008 27.5673 88.9939 28.9842 88.7432 30.5527C90.9557 30.2489 92.5789 28.7294 92.5791 26.6758C92.5791 24.372 90.5723 23.0781 87.9023 23.0781C84.0427 23.0782 82.0861 25.5578 82.0859 28.1162C82.0859 28.9787 82.3905 28.9547 82.3906 29.3809C82.3906 30.317 80.8663 31.1796 79.165 31.1797C76.9032 31.1797 75 29.4593 75 27.0771C75.0002 20.9505 81.9133 19.0001 86.6631 19ZM91.0449 35.4004C90.6761 35.4053 90.376 35.7727 90.376 36.209C90.3809 36.5423 90.5483 36.7774 90.9023 36.7725C91.0153 36.7724 91.1333 36.7579 91.2168 36.7041C91.1332 36.4737 91.0791 36.2041 91.0791 35.9395C91.0791 35.768 91.1129 35.5865 91.1768 35.4199C91.1279 35.4005 91.0937 35.4004 91.0449 35.4004ZM99.9688 34.0127C99.5165 34.0179 99.0935 34.4887 98.8428 35.1895C99.0148 35.4002 99.2904 35.5273 99.5264 35.5273C99.9737 35.5273 100.441 35.0575 100.441 34.543C100.436 34.2685 100.288 34.0127 99.9688 34.0127Z" fill="#FAEFF4"/>
<path d="M101.11 31.9004L101.107 30.9004L101.103 30.9004L101.11 31.9004ZM103.47 34.6553L102.47 34.6585L102.47 34.6617L103.47 34.6553ZM99.6934 39.1895L99.6932 40.1895L99.7001 40.1894L99.6934 39.1895ZM98.3711 38.8506L98.8988 38.0011C98.5897 37.8091 98.2008 37.8002 97.8832 37.9777C97.5656 38.1552 97.3695 38.4913 97.3711 38.8551L98.3711 38.8506ZM98.833 42.125L97.833 42.1264L97.833 42.1306L98.833 42.125ZM96.3457 43.7129L96.3456 42.7129L96.3416 42.7129L96.3457 43.7129ZM94.2803 41.0029L95.2803 40.998L95.2803 40.9978L94.2803 41.0029ZM94.4521 37.2676L95.4481 37.3577C95.4845 36.955 95.2748 36.5699 94.9167 36.3821C94.5586 36.1942 94.1226 36.2405 93.812 36.4994L94.4521 37.2676ZM94.335 37.3652L94.9491 38.1544C94.9579 38.1476 94.9666 38.1406 94.9751 38.1335L94.335 37.3652ZM93.3701 37.8018L93.1928 36.8176C92.8729 36.8752 92.601 37.0848 92.4637 37.3794L93.3701 37.8018ZM90.4102 39.7529L90.4065 38.7529L90.4043 38.7529L90.4102 39.7529ZM87.8135 37.2236L88.8135 37.22L88.8135 37.2179L87.8135 37.2236ZM90.8867 34.0127V33.0127L90.8809 33.0127L90.8867 34.0127ZM92.1309 34.542L91.3462 35.1619C91.6002 35.4835 92.0248 35.6175 92.4174 35.5001L92.1309 34.542ZM92.2637 34.5273L92.2637 35.5274L92.2687 35.5273L92.2637 34.5273ZM93.749 35.9248L92.7513 35.9919C92.7729 36.3133 92.948 36.6046 93.2216 36.7744C93.4953 36.9443 93.834 36.972 94.1315 36.8488L93.749 35.9248ZM94.8799 34.3906L95.8152 34.7444C95.8199 34.732 95.8244 34.7195 95.8286 34.7069L94.8799 34.3906ZM94.8848 34.376L95.8334 34.6922C95.8392 34.6749 95.8445 34.6575 95.8493 34.6399L94.8848 34.376ZM94.9736 34.082L94.0261 33.7623L94.0252 33.7649L94.9736 34.082ZM97.2061 32.1553L97.2114 33.1553L97.2124 33.1553L97.2061 32.1553ZM98.3857 33.2139L99.3858 33.2139L99.3857 33.2054L98.3857 33.2139ZM98.3613 33.5332L97.3794 33.3438C97.2894 33.8103 97.5402 34.2758 97.9793 34.4573C98.4184 34.6389 98.9246 34.4863 99.1904 34.0924L98.3613 33.5332ZM86.6631 19L86.6631 18L86.6631 18L86.6631 19ZM98.376 26.8027L99.376 26.8027L99.376 26.8027L98.376 26.8027ZM90.3467 33.7432L90.3467 34.7432L90.3467 34.7432L90.3467 33.7432ZM88.1875 33.5674L88.3578 32.582C87.8392 32.4924 87.3399 32.8201 87.2157 33.3315L88.1875 33.5674ZM81.8838 40.0029L81.8838 41.0029H81.8838V40.0029ZM77.0557 35.5127L76.0557 35.5126V35.5127H77.0557ZM79.3906 32.0186L79.3906 31.0186L79.3902 31.0186L79.3906 32.0186ZM80.8418 32.6016L80.8418 33.6016L80.8419 33.6016L80.8418 32.6016ZM87.627 23.8379L87.627 22.8379L87.6269 22.8379L87.627 23.8379ZM90.2676 24.9795L91.2676 24.9795L91.2676 24.9794L90.2676 24.9795ZM89.5303 26.5771L90.4791 26.8929L90.4804 26.889L89.5303 26.5771ZM88.7432 30.5527L87.7557 30.3949C87.7057 30.7076 87.8068 31.0256 88.0283 31.252C88.2498 31.4784 88.5654 31.5865 88.8792 31.5434L88.7432 30.5527ZM92.5791 26.6758L93.5791 26.6759V26.6758H92.5791ZM87.9023 23.0781L87.9023 22.0781L87.9023 22.0781L87.9023 23.0781ZM82.0859 28.1162L81.0859 28.1161V28.1162H82.0859ZM82.3906 29.3809L83.3906 29.3809L83.3906 29.3806L82.3906 29.3809ZM79.165 31.1797L79.165 32.1797L79.1651 32.1797L79.165 31.1797ZM75 27.0771L74 27.0771V27.0771H75ZM91.0449 35.4004L91.0449 34.4003L91.0316 34.4005L91.0449 35.4004ZM90.376 36.209H89.376C89.376 36.2139 89.376 36.2188 89.3761 36.2238L90.376 36.209ZM90.9023 36.7725L90.902 35.7724L90.8885 35.7726L90.9023 36.7725ZM91.2168 36.7041L91.7588 37.5445C92.1508 37.2916 92.3159 36.8015 92.1568 36.363L91.2168 36.7041ZM91.0791 35.9395L90.0791 35.9395L90.0791 35.9395L91.0791 35.9395ZM91.1768 35.4199L92.1105 35.7779C92.3065 35.2666 92.0549 34.6928 91.546 34.4906L91.1768 35.4199ZM99.9688 34.0127V33.0126L99.9573 33.0128L99.9688 34.0127ZM98.8428 35.1895L97.9012 34.8526C97.7831 35.1826 97.8465 35.5504 98.0682 35.8219L98.8428 35.1895ZM99.5264 35.5273L99.526 36.5273H99.5264V35.5273ZM100.441 34.543L101.441 34.5435C101.441 34.5373 101.441 34.5312 101.441 34.5251L100.441 34.543ZM101.11 31.9004L101.113 32.9004C101.624 32.8989 101.913 33.0796 102.1 33.3186C102.313 33.5914 102.468 34.0423 102.47 34.6585L103.47 34.6553L104.47 34.6521C104.467 33.7391 104.241 32.8103 103.675 32.0867C103.083 31.3294 102.194 30.8972 101.107 30.9004L101.11 31.9004ZM103.47 34.6553L102.47 34.6617C102.476 35.5847 102.152 36.4917 101.622 37.1552C101.097 37.814 100.415 38.1846 99.6866 38.1895L99.6934 39.1895L99.7001 40.1894C101.15 40.1796 102.364 39.4326 103.186 38.4026C104.004 37.3774 104.479 36.0246 104.47 34.6489L103.47 34.6553ZM99.6934 39.1895L99.6935 38.1895C99.335 38.1894 99.0532 38.0971 98.8988 38.0011L98.3711 38.8506L97.8434 39.7C98.3674 40.0255 99.0293 40.1894 99.6932 40.1895L99.6934 39.1895ZM98.3711 38.8506L97.3711 38.8551C97.3763 40.0123 97.4998 40.8438 97.629 41.4304C97.6932 41.7218 97.7573 41.9453 97.8009 42.0972C97.8243 42.1787 97.8358 42.2192 97.8427 42.247C97.8536 42.2912 97.8331 42.2283 97.833 42.1264L98.833 42.125L99.833 42.1236C99.8328 41.964 99.7981 41.8233 99.7843 41.7672C99.7663 41.6946 99.7424 41.612 99.7233 41.5453C99.6818 41.4008 99.6322 41.2272 99.5822 41.0001C99.483 40.5498 99.3757 39.8595 99.3711 38.8461L98.3711 38.8506ZM98.833 42.125L97.833 42.1306C97.833 42.1323 97.833 42.1357 97.8306 42.1431C97.8281 42.1512 97.8216 42.1677 97.8056 42.1921C97.7722 42.243 97.7017 42.3207 97.5714 42.4041C97.307 42.5736 96.8778 42.7128 96.3456 42.7129L96.3457 43.7129L96.3458 44.7129C97.2 44.7128 98.0169 44.4942 98.6508 44.0879C99.2733 43.6889 99.838 43.0158 99.833 42.1194L98.833 42.125ZM96.3457 43.7129L96.3416 42.7129C95.9507 42.7145 95.7535 42.6059 95.6289 42.4601C95.4783 42.2837 95.2846 41.8775 95.2803 40.998L94.2803 41.0029L93.2803 41.0079C93.2858 42.1281 93.5274 43.0793 94.1083 43.7592C94.7153 44.4697 95.5459 44.7162 96.3498 44.7129L96.3457 43.7129ZM94.2803 41.0029L95.2803 40.9978C95.2755 40.0802 95.3279 38.6853 95.4481 37.3577L94.4521 37.2676L93.4562 37.1774C93.3306 38.5653 93.2752 40.0239 93.2803 41.0081L94.2803 41.0029ZM94.4521 37.2676L93.812 36.4994L93.6948 36.597L94.335 37.3652L94.9751 38.1335L95.0923 38.0358L94.4521 37.2676ZM94.335 37.3652L93.7208 36.576C93.5583 36.7025 93.3789 36.7841 93.1928 36.8176L93.3701 37.8018L93.5474 38.7859C94.0756 38.6908 94.5508 38.4644 94.9491 38.1544L94.335 37.3652ZM93.3701 37.8018L92.4637 37.3794C92.0655 38.2341 91.3101 38.7496 90.4065 38.7529L90.4102 39.7529L90.4138 40.7529C92.1654 40.7465 93.5832 39.7123 94.2766 38.2241L93.3701 37.8018ZM90.4102 39.7529L90.4043 38.7529C89.8124 38.7564 89.4391 38.5591 89.2099 38.3178C88.9704 38.0658 88.8152 37.6879 88.8135 37.22L87.8135 37.2236L86.8135 37.2272C86.8167 38.1318 87.1215 39.0234 87.76 39.6954C88.4086 40.3781 89.3312 40.7592 90.416 40.7529L90.4102 39.7529ZM87.8135 37.2236L88.8135 37.2179C88.8065 36.0169 89.7606 35.0192 90.8925 35.0127L90.8867 34.0127L90.8809 33.0127C88.5516 33.0262 86.8008 35.0191 86.8135 37.2294L87.8135 37.2236ZM90.8867 34.0127V35.0127C91.0602 35.0127 91.1671 35.0452 91.2282 35.0734C91.2889 35.1014 91.3241 35.134 91.3462 35.1619L92.1309 34.542L92.9155 33.9221C92.4727 33.3616 91.7685 33.0127 90.8867 33.0127V34.0127ZM92.1309 34.542L92.4174 35.5001C92.398 35.5059 92.3757 35.5115 92.3509 35.5162C92.326 35.5209 92.3034 35.5237 92.2842 35.5254C92.266 35.527 92.2531 35.5273 92.2499 35.5274C92.2485 35.5274 92.249 35.5273 92.2637 35.5273L92.2637 34.5273L92.2637 33.5273C92.2117 33.5273 92.0466 33.5234 91.8443 33.5839L92.1309 34.542ZM92.2637 34.5273L92.2687 35.5273C92.5398 35.526 92.617 35.6022 92.6346 35.6203C92.6668 35.6534 92.7352 35.7531 92.7513 35.9919L93.749 35.9248L94.7468 35.8577C94.7087 35.2926 94.5213 34.6912 94.0677 34.2252C93.5996 33.7444 92.9611 33.5238 92.2586 33.5274L92.2637 34.5273ZM93.749 35.9248L94.1315 36.8488C94.5919 36.6582 94.9447 36.3793 95.2259 35.9747C95.4732 35.619 95.6483 35.1856 95.8152 34.7444L94.8799 34.3906L93.9446 34.0368C93.7722 34.4925 93.672 34.7062 93.5836 34.8333C93.5293 34.9114 93.4863 34.9513 93.3665 35.0009L93.749 35.9248ZM94.8799 34.3906L95.8286 34.7069L95.8334 34.6922L94.8848 34.376L93.9361 34.0597L93.9312 34.0744L94.8799 34.3906ZM94.8848 34.376L95.8493 34.6399C95.8741 34.5492 95.8987 34.4689 95.922 34.3991L94.9736 34.082L94.0252 33.7649C93.9896 33.8715 93.9544 33.9873 93.9202 34.1121L94.8848 34.376ZM94.9736 34.082L95.9211 34.4018C96.0434 34.0395 96.2708 33.7079 96.5377 33.4746C96.8113 33.2355 97.0571 33.1561 97.2114 33.1553L97.2061 32.1553L97.2007 31.1553C96.4355 31.1594 95.7446 31.5115 95.2216 31.9687C94.6919 32.4316 94.2628 33.0609 94.0261 33.7623L94.9736 34.082ZM97.2061 32.1553L97.2124 33.1553C97.2947 33.1547 97.3432 33.1672 97.3659 33.1754C97.3875 33.1832 97.3907 33.1887 97.386 33.1842C97.3814 33.1798 97.3792 33.1753 97.3794 33.1758C97.38 33.1772 97.3855 33.1913 97.3858 33.2224L98.3857 33.2139L99.3857 33.2054C99.3811 32.665 99.1808 32.13 98.7623 31.733C98.3434 31.3358 97.7861 31.1516 97.1997 31.1553L97.2061 32.1553ZM98.3857 33.2139H97.3857C97.3857 33.2959 97.3841 33.3193 97.3794 33.3438L98.3613 33.5332L99.3432 33.7226C99.3877 33.4922 99.3857 33.2985 99.3857 33.2139H98.3857ZM98.3613 33.5332L99.1904 34.0924C99.667 33.3858 100.273 32.9067 101.118 32.9004L101.11 31.9004L101.103 30.9004C99.3417 30.9137 98.2062 31.9749 97.5323 32.974L98.3613 33.5332ZM86.6631 19V20C89.8838 20 92.6076 20.822 94.4954 22.0962C96.3802 23.3684 97.3759 25.0398 97.376 26.8028L98.376 26.8027L99.376 26.8027C99.3759 24.2083 97.8956 21.9783 95.6143 20.4385C93.3359 18.9007 90.2033 18 86.6631 18V19ZM98.376 26.8027H97.376C97.376 28.6879 96.629 30.1384 95.421 31.1358C94.1936 32.1491 92.4264 32.7431 90.3466 32.7432L90.3467 33.7432L90.3467 34.7432C92.7904 34.7431 95.0379 34.0456 96.6943 32.6781C98.37 31.2946 99.376 29.2749 99.376 26.8027H98.376ZM90.3467 33.7432V32.7432C89.7038 32.7432 89.0288 32.6979 88.3578 32.582L88.1875 33.5674L88.0172 34.5528C88.8213 34.6917 89.6127 34.7432 90.3467 34.7432V33.7432ZM88.1875 33.5674L87.2157 33.3315C86.8214 34.9561 86.281 36.3884 85.4467 37.4039C84.6528 38.3702 83.5603 39.0029 81.8838 39.0029V40.0029V41.0029C84.1752 41.0029 85.8289 40.0893 86.992 38.6735C88.1148 37.3068 88.7423 35.5214 89.1593 33.8033L88.1875 33.5674ZM81.8838 40.0029L81.8838 39.0029C80.7844 39.0029 79.8217 38.682 79.152 38.1171C78.5048 37.5711 78.0557 36.7363 78.0557 35.5176H77.0557H76.0557C76.0557 37.2887 76.7372 38.6966 77.8624 39.6458C78.9652 40.5761 80.4166 41.0029 81.8838 41.0029L81.8838 40.0029ZM77.0557 35.5176H78.0557V35.5127H77.0557H76.0557V35.5176H77.0557ZM77.0557 35.5127L78.0557 35.5128C78.0557 34.8588 78.2787 34.1756 78.6114 33.672C78.9718 33.1265 79.2921 33.0186 79.391 33.0186L79.3906 32.0186L79.3902 31.0186C78.2995 31.019 77.4523 31.7981 76.9427 32.5695C76.4054 33.3828 76.0557 34.4464 76.0557 35.5126L77.0557 35.5127ZM79.3906 32.0186V33.0186C79.216 33.0186 79.11 32.9466 79.1229 32.9548C79.1307 32.9597 79.1476 32.9713 79.1922 33.0045C79.2285 33.0316 79.2932 33.0807 79.3592 33.1273C79.6733 33.3488 80.1387 33.6016 80.8418 33.6016V32.6016V31.6016C80.6794 31.6016 80.611 31.5628 80.5118 31.4928C80.4745 31.4665 80.4434 31.4427 80.3881 31.4015C80.3411 31.3664 80.2706 31.3142 80.192 31.2645C80.0321 31.1634 79.757 31.0186 79.3906 31.0186V32.0186ZM80.8418 32.6016L80.8419 33.6016C81.5372 33.6015 82.1449 33.4036 82.6464 33.0167C83.1304 32.6432 83.4502 32.1443 83.6767 31.6457C84.1069 30.6986 84.3218 29.4402 84.5434 28.435C84.7862 27.3342 85.0506 26.4291 85.5109 25.7943C85.9128 25.24 86.5018 24.8379 87.627 24.8379L87.627 23.8379L87.6269 22.8379C85.8807 22.838 84.6813 23.5313 83.8917 24.6203C83.1606 25.6286 82.8307 26.9144 82.5904 28.0044C82.3289 29.1901 82.172 30.1225 81.8558 30.8186C81.709 31.1416 81.5619 31.3273 81.4247 31.4332C81.305 31.5255 81.1371 31.6015 80.8417 31.6016L80.8418 32.6016ZM87.627 23.8379V24.8379C88.1903 24.8379 88.7129 24.9548 89.0629 25.107C89.2404 25.1842 89.3288 25.251 89.3564 25.2775C89.3917 25.3113 89.2676 25.212 89.2676 24.9796L90.2676 24.9795L91.2676 24.9794C91.2675 24.4554 90.9848 24.0676 90.7393 23.8326C90.4862 23.5903 90.1716 23.4082 89.8605 23.2729C89.2332 23.0001 88.4354 22.8379 87.627 22.8379V23.8379ZM90.2676 24.9795H89.2676C89.2676 24.9112 89.2889 24.8112 89.3354 24.726C89.3471 24.7045 89.3536 24.6976 89.3333 24.7261C89.3263 24.7359 89.2728 24.8096 89.2408 24.8555C89.0506 25.1284 88.8244 25.5211 88.5801 26.2653L89.5303 26.5771L90.4804 26.889C90.6688 26.315 90.8113 26.1 90.8815 25.9992C90.9253 25.9363 91.2676 25.5617 91.2676 24.9795H90.2676ZM89.5303 26.5771L88.5814 26.2614C88.2191 27.3503 87.9986 28.8757 87.7557 30.3949L88.7432 30.5527L89.7306 30.7106C89.9893 29.0928 90.1825 27.7843 90.4791 26.8929L89.5303 26.5771ZM88.7432 30.5527L88.8792 31.5434C91.4518 31.1901 93.5789 29.3543 93.5791 26.6759L92.5791 26.6758L91.5791 26.6757C91.579 28.1044 90.4597 29.3076 88.6071 29.562L88.7432 30.5527ZM92.5791 26.6758H93.5791C93.5791 25.1946 92.9168 23.9996 91.8326 23.2061C90.7796 22.4354 89.3843 22.0781 87.9023 22.0781V23.0781V24.0781C89.0904 24.0781 90.0335 24.3678 90.6514 24.82C91.238 25.2494 91.5791 25.8532 91.5791 26.6758H92.5791ZM87.9023 23.0781L87.9023 22.0781C85.7508 22.0782 84.0352 22.7743 82.8516 23.919C81.6743 25.0576 81.086 26.5815 81.0859 28.1161L82.0859 28.1162L83.0859 28.1163C83.086 27.0925 83.4761 26.0973 84.242 25.3566C85.0017 24.6219 86.1942 24.0782 87.9024 24.0781L87.9023 23.0781ZM82.0859 28.1162H81.0859C81.0859 28.6936 81.1942 29.0548 81.3406 29.353C81.4722 29.6209 81.3906 29.4607 81.3906 29.3812L82.3906 29.3809L83.3906 29.3806C83.3905 28.8748 83.1566 28.5136 83.1358 28.4714C83.13 28.4594 83.0859 28.4014 83.0859 28.1162H82.0859ZM82.3906 29.3809H81.3906C81.3906 29.2935 81.421 29.4821 80.927 29.7589C80.4949 30.001 79.8592 30.1797 79.165 30.1797L79.165 31.1797L79.1651 32.1797C80.1721 32.1797 81.1492 31.927 81.9046 31.5037C82.5981 31.1151 83.3906 30.4044 83.3906 29.3809H82.3906ZM79.165 31.1797V30.1797C77.4162 30.1797 76 28.8685 76 27.0771H75H74C74 30.0501 76.3902 32.1797 79.165 32.1797V31.1797ZM75 27.0771L76 27.0772C76.0001 24.4797 77.43 22.7523 79.5254 21.6211C81.6581 20.4699 84.3964 20 86.6631 20L86.6631 19L86.6631 18C84.1799 18 81.0868 18.5055 78.5754 19.8612C76.0269 21.2369 74.0001 23.548 74 27.0771L75 27.0771ZM91.0449 35.4004L91.0316 34.4005C89.9559 34.4148 89.376 35.4007 89.376 36.209H90.376H91.376C91.376 36.2162 91.3745 36.2417 91.3439 36.2789C91.3125 36.3169 91.2181 36.3982 91.0582 36.4003L91.0449 35.4004ZM90.376 36.209L89.3761 36.2238C89.3807 36.5396 89.4632 36.9394 89.7534 37.2734C90.0665 37.6338 90.4996 37.7781 90.9162 37.7724L90.9023 36.7725L90.8885 35.7726C90.9116 35.7722 90.9702 35.7755 91.0469 35.8065C91.1268 35.8389 91.2027 35.8921 91.2631 35.9617C91.3798 36.096 91.3761 36.2117 91.3759 36.1942L90.376 36.209ZM90.9023 36.7725L90.9027 37.7725C91.0503 37.7724 91.4191 37.7636 91.7588 37.5445L91.2168 36.7041L90.6748 35.8637C90.7747 35.7993 90.8575 35.7811 90.8825 35.7763C90.9106 35.7709 90.9202 35.7725 90.902 35.7725L90.9023 36.7725ZM91.2168 36.7041L92.1568 36.363C92.1085 36.2298 92.0791 36.0755 92.0791 35.9394L91.0791 35.9395L90.0791 35.9395C90.0791 36.3327 90.1579 36.7177 90.2768 37.0452L91.2168 36.7041ZM91.0791 35.9395H92.0791C92.0791 35.8935 92.0893 35.8332 92.1105 35.7779L91.1768 35.4199L90.243 35.062C90.1365 35.3398 90.0791 35.6425 90.0791 35.9395H91.0791ZM91.1768 35.4199L91.546 34.4906C91.3066 34.3955 91.1056 34.4004 91.0449 34.4004L91.0449 35.4004L91.0449 36.4004C91.0595 36.4004 91.0563 36.4005 91.0501 36.4003C91.0416 36.4 91.0209 36.3992 90.9932 36.3959C90.9281 36.3882 90.8643 36.3718 90.8075 36.3493L91.1768 35.4199ZM99.9688 34.0127L99.9573 33.0128C99.3707 33.0195 98.9106 33.3266 98.6016 33.6553C98.2896 33.9871 98.0593 34.4108 97.9012 34.8526L98.8428 35.1895L99.7843 35.5263C99.877 35.2674 99.9835 35.1052 100.059 35.0252C100.137 34.9419 100.115 35.0111 99.9802 35.0126L99.9688 34.0127ZM98.8428 35.1895L98.0682 35.8219C98.4224 36.2557 98.9779 36.5271 99.526 36.5273L99.5264 35.5273L99.5267 34.5273C99.5563 34.5274 99.5753 34.5312 99.5837 34.5332C99.5924 34.5354 99.5963 34.5373 99.5968 34.5375C99.5975 34.5379 99.5986 34.5384 99.6008 34.5401C99.603 34.5418 99.6091 34.5468 99.6174 34.557L98.8428 35.1895ZM99.5264 35.5273V36.5273C100.091 36.5273 100.566 36.2434 100.876 35.9171C101.193 35.5837 101.441 35.1005 101.441 34.5435L100.441 34.543L99.4414 34.5425C99.4414 34.5193 99.4466 34.5095 99.4448 34.5135C99.4428 34.5182 99.4369 34.5284 99.4268 34.5391C99.4163 34.5501 99.4112 34.5512 99.4194 34.5472C99.4274 34.5433 99.4635 34.5273 99.5264 34.5273V35.5273ZM100.441 34.543L101.441 34.5251C101.436 34.2288 101.354 33.8667 101.108 33.5551C100.837 33.2124 100.429 33.0127 99.9688 33.0127V34.0127V35.0127C99.9124 35.0127 99.8319 35.0007 99.7441 34.9585C99.6564 34.9164 99.5873 34.8567 99.5383 34.7947C99.4475 34.6796 99.442 34.5827 99.4416 34.5609L100.441 34.543Z" fill="#16070E" mask="url(#path-5-outside-2_214870_161)"/>
</g>
<defs>
<filter id="filter0_dd_214870_161" x="30.9298" y="0" width="255.089" height="75.1399" filterUnits="userSpaceOnUse" color-interpolation-filters="sRGB">
<feFlood flood-opacity="0" result="BackgroundImageFix"/>
<feColorMatrix in="SourceAlpha" type="matrix" values="0 0 0 0 0 0 0 0 0 0 0 0 0 0 0 0 0 0 127 0" result="hardAlpha"/>
<feOffset dx="3" dy="3"/>
<feComposite in2="hardAlpha" operator="out"/>
<feColorMatrix type="matrix" values="0 0 0 0 0.0862745 0 0 0 0 0.027451 0 0 0 0 0.054902 0 0 0 1 0"/>
<feBlend mode="normal" in2="BackgroundImageFix" result="effect1_dropShadow_214870_161"/>
<feColorMatrix in="SourceAlpha" type="matrix" values="0 0 0 0 0 0 0 0 0 0 0 0 0 0 0 0 0 0 127 0" result="hardAlpha"/>
<feOffset dx="6" dy="6"/>
<feComposite in2="hardAlpha" operator="out"/>
<feColorMatrix type="matrix" values="0 0 0 0 0 0 0 0 0 0 0 0 0 0 0 0 0 0 0.15 0"/>
<feBlend mode="normal" in2="effect1_dropShadow_214870_161" result="effect2_dropShadow_214870_161"/>
<feBlend mode="normal" in="SourceGraphic" in2="effect2_dropShadow_214870_161" result="shape"/>
</filter>
</defs>
</svg>
