<?xml version="1.0" encoding="UTF-8"?>
<svg id="Layer_1" data-name="Layer 1" xmlns="http://www.w3.org/2000/svg" viewBox="0 0 238 238">
  <defs>
    <style>
      .cls-1 {
        fill: #35241f;
        opacity: .17;
      }

      .cls-2 {
        fill: #e8bda7;
      }
    </style>
  </defs>
  <path class="cls-2" d="M145,136.22c-4.49,3.3-7.52,9.72-7.52,17.09,0,6.9,2.66,12.97,6.69,16.42h-49.84c4.06-3.43,6.77-9.54,6.77-16.51,0-7.37-3.03-13.79-7.51-17.09l51.41.09Z"/>
  <path class="cls-2" d="M137.48,153.31c0,1.22.08,2.42.24,3.57-5.63,2.76-12.01,4.25-18.72,4.25s-12.71-1.4-18.2-4c.19-1.27.29-2.57.29-3.91,0-7.38-3.03-13.8-7.5-17.09l51.4.09c-4.48,3.3-7.51,9.72-7.51,17.09Z"/>
  <path class="cls-1" d="M137.48,153.31c0,1.22.08,2.42.24,3.57-5.63,2.76-12.01,4.25-18.72,4.25s-12.71-1.4-18.2-4c.19-1.27.29-2.57.29-3.91,0-7.38-3.03-13.8-7.5-17.09l51.4.09c-4.48,3.3-7.51,9.72-7.51,17.09Z"/>
  <g>
    <path class="cls-2" d="M114.59,54.82h8.83c21.29,0,38.58,17.29,38.58,38.58v17.78h-85.98v-17.78c0-21.29,17.29-38.58,38.58-38.58Z"/>
    <path class="cls-2" d="M161.99,104.79v6.5c0,5.55-1.6,11.01-4.64,15.83l-8.34,13.22c-13.27,21.04-46.74,21.04-60.02,0l-8.34-13.22c-3.04-4.82-4.64-10.28-4.64-15.83v-6.5h85.98Z"/>
  </g>
</svg>