<?xml version="1.0" encoding="UTF-8"?>
<svg id="Layer_1" data-name="Layer 1" xmlns="http://www.w3.org/2000/svg" viewBox="0 0 238 238">
  <defs>
    <style>
      .cls-1 {
        fill: #694118;
      }
    </style>
  </defs>
  <path class="cls-1" d="M151.4,67.29c1.3-11.63-14.89-22.98-36.16-25.36-21.27-2.38-38.79,4.91-41.05,26.71-1.21,11.64,17.04,19.2,37.27,18.76,21.4-.47,38.64-8.49,39.94-20.11Z"/>
  <ellipse class="cls-1" cx="147.84" cy="59.23" rx="13.47" ry="24.68" transform="translate(-9.81 81.86) rotate(-30)"/>
  <path class="cls-1" d="M88.36,54.29c1.37.6,1.55,3.1.38,5.35-4.56,8.77-9.99,14.45-12.96,13.16s-2.49-9.14.84-18.45c.86-2.39,2.82-3.96,4.19-3.36l7.55,3.3Z"/>
  <path class="cls-1" d="M159.58,50.12c1.58-.4,3.5,2.02,4.11,5.18,2.34,12.29,1.77,22.07-1.66,22.94s-8.56-7.48-12.32-19.42c-.97-3.07-.41-6.11,1.17-6.5l8.7-2.19Z"/>
</svg>