<?xml version="1.0" encoding="UTF-8"?>
<svg id="Layer_1" data-name="Layer 1" xmlns="http://www.w3.org/2000/svg" viewBox="0 0 238 238">
  <defs>
    <style>
      .cls-1 {
        fill: #694118;
      }
    </style>
  </defs>
  <path class="cls-1" d="M131.5,45.15c-5.18-8.87-23.58-7.78-41.09,2.45-17.51,10.22-14.45,19.71-13.76,38.81,11.47,8.4,26.37-1.63,31.44-7.63,13.1-15.48,28.59-24.75,23.41-33.63Z"/>
  <path class="cls-1" d="M89.35,65.76c25.99-11.44,50.03-13.96,53.7-5.63,3.51,7.98-12.94,23.02-37.16,34.33-1.78.83-3.89.04-4.68-1.75l-11.86-26.94Z"/>
  <path class="cls-1" d="M153.02,82.59c-2.04,3.39-5.88,4.77-8.32,2.97-9.12-6.75-14.17-14.73-11.56-19.05,2.45-4.05,10.86-3.66,20.32.46,3.8,1.65,4.7,7.1,1.91,11.72l-2.36,3.91Z"/>
  <path class="cls-1" d="M152.11,80.59c-3.94-.43-6.8-3.32-6.19-6.29,2.28-11.12,7.38-19.06,12.41-18.51,4.71.51,7.89,8.31,8.15,18.62.1,4.15-4.46,7.25-9.82,6.67l-4.54-.49Z"/>
  <path class="cls-1" d="M93.57,33.31c30.72-4.5,57.31,8.53,60.34,30.19,0,0-28.85-2-61.25,4.32l-2.7-29.07c-.25-2.67,1.36-5.11,3.62-5.44Z"/>
  <path class="cls-1" d="M75.3,63.08c-3.13-.97-4.66-4.5-3.23-7.45,6.18-12.71,18.16-20.01,28.8-16.71,12.16,3.77,17.94,19.92,12.94,36.09l-38.5-11.93Z"/>
  <path class="cls-1" d="M161.93,91.2c-20.28-15.85-34.18-29.33-30.44-34.14,3.74-4.81,9.28,4.21,29.57,20.06l.88,14.08Z"/>
  <path class="cls-1" d="M120.22,57.43c6.94-11.75,21.93-15.75,33.49-8.93s15.3,21.89,8.36,33.64l-41.85-24.71Z"/>
</svg>