<?xml version="1.0" encoding="UTF-8"?>
<svg id="Layer_2" data-name="Layer 2" xmlns="http://www.w3.org/2000/svg" viewBox="0 0 1684.33 899.68">
  <defs>
    <style>
      .cls-1 {
        fill: #fff;
      }
    </style>
  </defs>
  <g id="Layer_2-2" data-name="Layer 2">
    <g>
      <path class="cls-1" d="M884.96,375.68c0-66.96-17.04-135.12-46.76-187.01-18.55-32.39-41.67-58.12-68.72-76.49-31.54-21.41-67.43-32.27-106.68-32.27-59.6,0-107.58,14.03-142.58,41.71-27.07,21.4-59.33,61.77-59.33,132.58,0,58.42,24.58,109.12,67.45,139.09,40.66,28.43,92.48,34.32,142.17,16.16,24.64-9.01,37.31-36.28,28.31-60.92-9-24.64-36.28-37.31-60.92-28.31-20.44,7.47-40.02,5.77-55.12-4.79-17.09-11.95-26.89-34.27-26.89-61.24s7.61-45.69,23.25-58.06c17.57-13.89,46.5-21.23,83.66-21.23,39.06,0,69.47,19.94,92.96,60.97,21.41,37.39,34.2,89.65,34.2,139.8,0,55.87-28.82,111.83-79.08,153.52-41.78,34.66-117.58,75.98-241.42,75.98-174.33,0-291.4-75.79-347.96-225.28-23.01-60.82-41.66-203.26-8.6-315.84,7.39-25.17-7.02-51.57-32.19-58.96C55.53-2.28,29.14,12.13,21.75,37.3-.81,114.13-1.83,193.51,1.29,246.57c3.72,63.25,15.15,124.1,31.36,166.95,34.45,91.04,88.83,161.99,161.65,210.88,74.9,50.29,167.48,75.78,275.16,75.78,61.35,0,118.98-8.88,171.3-26.4,49.66-16.62,93.66-40.67,130.78-71.47,72.08-59.8,113.42-142.4,113.42-226.64Z"/>
      <path class="cls-1" d="M1684.33,356.26c-.16-26.1-21.37-47.2-47.5-47.2-66.46,0-125.23,20.37-179.66,62.27-15.5,11.93-29.8,24.91-43.27,38.53,1.04-7.16,2.15-14.31,3.34-21.43,21.34-127.95,61.72-229.29,110.79-278.04,18.61-18.49,18.71-48.56.22-67.17-18.49-18.61-48.56-18.71-67.17-.22-84.94,84.38-122.08,239.61-136.66,324.63-9.68,56.44-15.26,115.49-15.72,166.33-43.26,50.35-79.17,79.86-129.67,79.86-45.25-.89-54.96-19.79-62.02-41.29,38-10.84,70.73-24.39,97.88-40.55,105.31-61,122.63-173.71,32.62-229.09-116.95-62.15-212.28,84.6-226.59,193.6-10.23,1.68-21.4,3.24-32.59,4.67,22.94-116.38,65.01-405.01,170.82-405.68,30.73-1.13,56.06,17.96,72.81,39.74,12.68,16.48,34.66,22.72,54.17,15.51h0c30.09-11.12,40.97-48.33,21.29-73.66-64.03-82.44-184.28-112.97-270.08-19.64-98.24,113.89-120.83,324.4-152.77,483.07-82.81,50.24-185.92,152.84-192.77,251.24-3.57,63.07,46.58,106.7,108.46,107.95,118.99-2.65,144.86-185.06,168.98-295.51,11.88-4.7,23.09-7.79,33.23-9.07,7.28-.92,14.44-1.9,21.48-2.95,32.71,137.13,200.56,146.98,297.64,63.03.63-.51,1.24-1.04,1.86-1.56.09.23.18.47.28.7,16.32,39.59,46.12,43.87,58.17,43.87,20.77,0,39.59-9.59,52.98-27.01,7.58-9.85,13.5-22.32,18.1-38.1,6.5-22.27,9.84-48.68,13.38-76.65.7-5.55,1.41-11.16,2.15-16.72,7.89,19.79,17.61,40.85,30.63,60.31,26.59,39.75,61.35,64.07,103.3,72.29,25.75,5.04,50.7-11.74,55.74-37.49,5.04-25.74-11.74-50.7-37.49-55.74-37.2-7.28-54.94-48.74-74.27-102.17-5.31-14.69-10.38-28.67-16.29-40.8,30.1-19.66,64.36-31.92,106.11-32.04,26.17-.07,48.27-21.63,48.11-47.8ZM1192.86,383.3c3.8,0,6.38,1.44,8.25,2.48,4.13,2.32,10.75,7.77,8.69,18.36-6.35,27.91-50.14,52.94-84.93,65.78,11-32.99,39.65-83.69,67.99-86.62ZM803.05,803.54c-1.82,1.22-2.4,1.42-4.95.88-7.31-1.56-10.31-3.49-11.12-4.1-4.59-26.73,39.51-88.4,67.33-115.07-15.82,65.87-38.9,112-51.26,118.29Z"/>
    </g>
  </g>
</svg>